<svg width="783" height="592" viewBox="0 0 783 592" fill="none" xmlns="http://www.w3.org/2000/svg">

  <path d="M94 285H666V441C666 445.418 662.418 449 658 449H102C97.5817 449 94 445.418 94 441V285Z" fill="#ECFBEC" />
  <path d="M94 101C94 96.5817 97.5817 93 102 93H658C662.418 93 666 96.5817 666 101V285H94V101Z" fill="#FFF2F2" />
  <path
    d="M94 135C94 130.582 97.5817 127 102 127H112C116.418 127 120 130.582 120 135V449H102C97.5817 449 94 445.418 94 441V135Z"
    fill="#DAE0FD" fill-opacity="0.49" />
  <path d="M132 297C132 292.582 135.582 289 140 289H152C156.418 289 160 292.582 160 297V449H132V297Z" fill="#DAE0FD"
    fill-opacity="0.49" />
  <path d="M172 364C172 359.582 175.582 356 180 356H190C194.418 356 198 359.582 198 364V449H172V364Z" fill="#DAE0FD"
    fill-opacity="0.49" />
  <path d="M210 224C210 219.582 213.582 216 218 216H230C234.418 216 238 219.582 238 224V449H210V224Z" fill="#DAE0FD"
    fill-opacity="0.49" />
  <path d="M250 274C250 269.582 253.582 266 258 266H268C272.418 266 276 269.582 276 274V449H250V274Z" fill="#DAE0FD"
    fill-opacity="0.49" />
  <path d="M288 247C288 242.582 291.582 239 296 239H308C312.418 239 316 242.582 316 247V449H288V247Z" fill="#DAE0FD"
    fill-opacity="0.49" />
  <path d="M328 261C328 256.582 331.582 253 336 253H346C350.418 253 354 256.582 354 261V449H328V261Z" fill="#DAE0FD"
    fill-opacity="0.49" />
  <path d="M366 145C366 140.582 369.582 137 374 137H386C390.418 137 394 140.582 394 145V449H366V145Z" fill="#DAE0FD"
    fill-opacity="0.49" />
  <path d="M406 194C406 189.582 409.582 186 414 186H424C428.418 186 432 189.582 432 194V449H406V194Z" fill="#DAE0FD"
    fill-opacity="0.49" />
  <path d="M444 226C444 221.582 447.582 218 452 218H464C468.418 218 472 221.582 472 226V449H444V226Z" fill="#DAE0FD"
    fill-opacity="0.49" />
  <path d="M522 329C522 324.582 525.582 321 530 321H542C546.418 321 550 324.582 550 329V449H522V329Z" fill="#DAE0FD"
    fill-opacity="0.49" />
  <path d="M562 360C562 355.582 565.582 352 570 352H580C584.418 352 588 355.582 588 360V449H562V360Z" fill="#DAE0FD"
    fill-opacity="0.49" />
  <path d="M600 209C600 204.582 603.582 201 608 201H620C624.418 201 628 204.582 628 209V449H600V209Z" fill="#DAE0FD"
    fill-opacity="0.49" />
  <path
    d="M640 239C640 234.582 643.582 231 648 231H658C662.418 231 666 234.582 666 239V441C666 445.418 662.418 449 658 449H640V239Z"
    fill="#DAE0FD" fill-opacity="0.49" />
  <path d="M484 188C484 183.582 487.582 180 492 180H502C506.418 180 510 183.582 510 188V449H484V188Z" fill="#DAE0FD"
    fill-opacity="0.49" />
  <path
    d="M155 265.5L155.394 264.581L155.134 264.47L154.855 264.511L155 265.5ZM190 280.5L189.606 281.419L189.987 281.582L190.371 281.428L190 280.5ZM227.5 265.5V264.5H227.307L227.129 264.572L227.5 265.5ZM265 265.5L265.355 264.565L265.183 264.5H265V265.5ZM304.5 280.5L304.943 279.603L304.9 279.582L304.855 279.565L304.5 280.5ZM343 299.5L342.557 300.397L343.454 300.839L343.897 299.942L343 299.5ZM380.5 223.5V222.5H379.878L379.603 223.058L380.5 223.5ZM417 223.5L417.283 222.541L417.144 222.5H417V223.5ZM456 235L455.717 235.959L455.758 235.971L455.799 235.98L456 235ZM495 243L495.407 242.087L495.308 242.042L495.201 242.02L495 243ZM527.5 257.5L527.093 258.413L527.287 258.5H527.5V257.5ZM564.5 257.5V258.5H564.597L564.692 258.481L564.5 257.5ZM608 249L608.733 248.32L608.355 247.912L607.808 248.019L608 249ZM645.267 290.68C645.642 291.085 646.275 291.109 646.68 290.733C647.085 290.358 647.109 289.725 646.733 289.32L645.267 290.68ZM114.145 272.489L155.145 266.489L154.855 264.511L113.855 270.511L114.145 272.489ZM154.606 266.419L189.606 281.419L190.394 279.581L155.394 264.581L154.606 266.419ZM190.371 281.428L227.871 266.428L227.129 264.572L189.629 279.572L190.371 281.428ZM227.5 266.5H265V264.5H227.5V266.5ZM264.645 266.435L304.145 281.435L304.855 279.565L265.355 264.565L264.645 266.435ZM304.057 281.397L342.557 300.397L343.443 298.603L304.943 279.603L304.057 281.397ZM343.897 299.942L381.397 223.942L379.603 223.058L342.103 299.058L343.897 299.942ZM380.5 224.5H417V222.5H380.5V224.5ZM416.717 224.459L455.717 235.959L456.283 234.041L417.283 222.541L416.717 224.459ZM455.799 235.98L494.799 243.98L495.201 242.02L456.201 234.02L455.799 235.98ZM494.593 243.913L527.093 258.413L527.907 256.587L495.407 242.087L494.593 243.913ZM527.5 258.5H564.5V256.5H527.5V258.5ZM564.692 258.481L608.192 249.981L607.808 248.019L564.308 256.519L564.692 258.481ZM607.267 249.68L645.267 290.68L646.733 289.32L608.733 248.32L607.267 249.68Z"
    fill="#8358FF" />
  <circle cx="114" cy="272" r="3" fill="#8358FF" stroke="white" stroke-width="2" />
  <circle cx="154" cy="266" r="3" fill="#8358FF" stroke="white" stroke-width="2" />
  <circle cx="190" cy="280" r="3" fill="#8358FF" stroke="white" stroke-width="2" />
  <circle cx="228" cy="266" r="3" fill="#8358FF" stroke="white" stroke-width="2" />
  <circle cx="266" cy="266" r="3" fill="#8358FF" stroke="white" stroke-width="2" />
  <circle cx="304" cy="280" r="3" fill="#8358FF" stroke="white" stroke-width="2" />
  <circle cx="342" cy="299" r="3" fill="#8358FF" stroke="white" stroke-width="2" />
  <circle cx="380" cy="224" r="3" fill="#8358FF" stroke="white" stroke-width="2" />
  <circle cx="418" cy="224" r="3" fill="#8358FF" stroke="white" stroke-width="2" />
  <circle cx="456" cy="235" r="3" fill="#8358FF" stroke="white" stroke-width="2" />
  <circle cx="494" cy="243" r="3" fill="#8358FF" stroke="white" stroke-width="2" />
  <circle cx="528" cy="257" r="3" fill="#8358FF" stroke="white" stroke-width="2" />
  <circle cx="565" cy="257" r="3" fill="#8358FF" stroke="white" stroke-width="2" />
  <circle cx="608" cy="249" r="3" fill="#8358FF" stroke="white" stroke-width="2" />
  <circle cx="646" cy="290" r="3" fill="#8358FF" stroke="white" stroke-width="2" />
  <path
    d="M153.5 291L153.671 290.015L153.411 289.97L153.163 290.059L153.5 291ZM188 297L188.567 296.176L188.387 296.052L188.171 296.015L188 297ZM228 324.5L227.433 325.324L227.689 325.5H228V324.5ZM266.5 324.5V325.5H267.164L267.422 324.888L266.5 324.5ZM307.5 227L308.202 226.288L307.15 225.252L306.578 226.612L307.5 227ZM340.5 259.5L339.798 260.212L339.992 260.403L340.255 260.469L340.5 259.5ZM380 269.5L379.755 270.469L379.888 270.503L380.026 270.5L380 269.5ZM418 268.5L418.514 267.643L418.265 267.493L417.974 267.5L418 268.5ZM455.5 291L454.986 291.857L455.235 292.007L455.526 292L455.5 291ZM493.5 290L493.526 291L493.613 290.997L493.699 290.98L493.5 290ZM528 283L528.199 283.98L528.652 283.888L528.875 283.483L528 283ZM565 216L565.868 215.503L564.984 213.961L564.125 215.517L565 216ZM608 291L607.132 291.497L607.221 291.652L607.358 291.767L608 291ZM647.358 325.267C647.781 325.621 648.412 325.565 648.767 325.142C649.121 324.719 649.065 324.088 648.642 323.733L647.358 325.267ZM113.337 306.441L153.837 291.941L153.163 290.059L112.663 304.559L113.337 306.441ZM153.329 291.985L187.829 297.985L188.171 296.015L153.671 290.015L153.329 291.985ZM187.433 297.824L227.433 325.324L228.567 323.676L188.567 296.176L187.433 297.824ZM228 325.5H266.5V323.5H228V325.5ZM267.422 324.888L308.422 227.388L306.578 226.612L265.578 324.112L267.422 324.888ZM306.798 227.712L339.798 260.212L341.202 258.788L308.202 226.288L306.798 227.712ZM340.255 260.469L379.755 270.469L380.245 268.531L340.745 258.531L340.255 260.469ZM380.026 270.5L418.026 269.5L417.974 267.5L379.974 268.5L380.026 270.5ZM417.486 269.357L454.986 291.857L456.014 290.143L418.514 267.643L417.486 269.357ZM455.526 292L493.526 291L493.474 289L455.474 290L455.526 292ZM493.699 290.98L528.199 283.98L527.801 282.02L493.301 289.02L493.699 290.98ZM528.875 283.483L565.875 216.483L564.125 215.517L527.125 282.517L528.875 283.483ZM564.132 216.497L607.132 291.497L608.868 290.503L565.868 215.503L564.132 216.497ZM607.358 291.767L647.358 325.267L648.642 323.733L608.642 290.233L607.358 291.767Z"
    fill="#5275FF" />
  <circle cx="114" cy="305" r="3" fill="#5275FF" stroke="white" stroke-width="2" />
  <circle cx="153" cy="291" r="3" fill="#5275FF" stroke="white" stroke-width="2" />
  <circle cx="188" cy="297" r="3" fill="#5275FF" stroke="white" stroke-width="2" />
  <circle cx="228" cy="325" r="3" fill="#5275FF" stroke="white" stroke-width="2" />
  <circle cx="266" cy="325" r="3" fill="#5275FF" stroke="white" stroke-width="2" />
  <circle cx="308" cy="227" r="3" fill="#5275FF" stroke="white" stroke-width="2" />
  <circle cx="342" cy="260" r="3" fill="#5275FF" stroke="white" stroke-width="2" />
  <circle cx="380" cy="269" r="3" fill="#5275FF" stroke="white" stroke-width="2" />
  <circle cx="418" cy="269" r="3" fill="#5275FF" stroke="white" stroke-width="2" />
  <circle cx="456" cy="291" r="3" fill="#5275FF" stroke="white" stroke-width="2" />
  <circle cx="494" cy="290" r="3" fill="#5275FF" stroke="white" stroke-width="2" />
  <circle cx="528" cy="283" r="3" fill="#5275FF" stroke="white" stroke-width="2" />
  <circle cx="565" cy="216" r="3" fill="#5275FF" stroke="white" stroke-width="2" />
  <circle cx="608" cy="290" r="3" fill="#5275FF" stroke="white" stroke-width="2" />
  <circle cx="648" cy="325" r="3" fill="#5275FF" stroke="white" stroke-width="2" />
</svg>