<svg xmlns="http://www.w3.org/2000/svg" width="32" height="32" fill="none">
  <circle cx="16" cy="16" r="16" fill="#F0EEFF"/>
  <path fill="#8358FF" d="M10.32 10.32a.25.25 0 0 1 .18-.07h9a.25.25 0 0 1 .25.25v.75a.75.75 0 0 0 1.5 0v-.75a1.75 1.75 0 0 0-1.75-1.75h-9a1.75 1.75 0 0 0-1.75 1.75v11a1.75 1.75 0 0 0 1.75 1.75h3.75a.75.75 0 0 0 0-1.5H10.5a.25.25 0 0 1-.25-.25v-11c0-.07.03-.13.07-.18z"/>
  <path fill="#8358FF" fill-rule="evenodd" d="M17.5 12.75c-.97 0-1.75.78-1.75 1.75v7c0 .97.78 1.75 1.75 1.75h4c.97 0 1.75-.78 1.75-1.75v-7c0-.97-.78-1.75-1.75-1.75h-4zm-.25 1.75c0-.14.11-.25.25-.25h4c.14 0 .25.11.25.25v7c0 .14-.11.25-.25.25h-4a.25.25 0 0 1-.25-.25v-7z" clip-rule="evenodd"/>
</svg>
