<svg xmlns="http://www.w3.org/2000/svg" width="32" height="32" fill="none">
  <circle cx="16" cy="16" r="16" fill="#DCF6EF"/>
  <path fill="#14C393" d="M12 14.5c0-.41.34-.75.75-.75h6.5a.75.75 0 0 1 0 1.5h-6.5a.75.75 0 0 1-.75-.75zM12 17.5c0-.41.34-.75.75-.75h6.5a.75.75 0 0 1 0 1.5h-6.5a.75.75 0 0 1-.75-.75z"/>
  <path fill="#14C393" fill-rule="evenodd" d="M16 9.25c-4.18 0-7.75 2.95-7.75 6.82 0 3.86 3.57 6.81 7.75 6.81.47 0 .93-.03 1.37-.1l2.9.93a.75.75 0 0 0 .96-.55l.59-2.6a6.34 6.34 0 0 0 1.93-4.5c0-3.86-3.57-6.81-7.75-6.81zm-6.25 6.82c0-2.84 2.7-5.32 6.25-5.32 3.56 0 6.25 2.48 6.25 5.32 0 1.35-.6 2.6-1.63 3.56a.75.75 0 0 0-.22.39l-.45 2.01-2.29-.74a.75.75 0 0 0-.36-.02c-.42.07-.86.11-1.3.11-3.56 0-6.25-2.47-6.25-5.31z" clip-rule="evenodd"/>
</svg>
