<svg width="801" height="592" viewBox="0 0 801 592" fill="none" xmlns="http://www.w3.org/2000/svg">
  <rect x="114" y="169" width="36" height="36" rx="3" fill="#F3F4FA" />
  <rect x="259" y="169" width="36" height="36" rx="3" fill="#F3F4FA" />
  <rect x="259" y="311" width="36" height="36" rx="3" fill="#F3F4FA" />
  <rect x="404" y="169" width="36" height="36" rx="3" fill="#ECF0FE" />
  <rect x="114" y="311" width="36" height="36" rx="3" fill="#FFADAD" />
  <rect x="671" y="356" width="35" height="36" rx="3" transform="rotate(90 671 356)" fill="#FFE7CA" />
  <rect x="549" y="169" width="36" height="36" rx="3" fill="#F3F4FA" />
  <rect x="404" y="311" width="36" height="36" rx="3" fill="#F3F4FA" />
  <rect x="114" y="212" width="36" height="36" rx="3" fill="#F3F4FA" />
  <rect x="259" y="212" width="36" height="36" rx="3" fill="#F3F4FA" />
  <rect x="259" y="355" width="36" height="35" rx="3" fill="#F3F4FA" />
  <rect x="404" y="212" width="36" height="36" rx="3" fill="#5275FF" />
  <rect x="114" y="355" width="36" height="35" rx="3" fill="#ECF0FE" />
  <rect x="671" y="399" width="35" height="36" rx="3" transform="rotate(90 671 399)" fill="#ECF0FE" />
  <rect x="549" y="212" width="36" height="36" rx="3" fill="#F3F4FA" />
  <rect x="404" y="355" width="36" height="35" rx="3" fill="#F3F4FA" />
  <rect x="114" y="255" width="36" height="36" rx="3" fill="#F3F4FA" />
  <rect x="259" y="255" width="36" height="36" rx="3" fill="#F3F4FA" />
  <rect x="259" y="398" width="36" height="36" rx="3" fill="#F3F4FA" />
  <rect x="404" y="255" width="36" height="36" rx="3" fill="#5275FF" />
  <rect x="114" y="398" width="36" height="36" rx="3" fill="#FFADAD" />
  <rect x="585" y="312" width="36" height="36" rx="3" transform="rotate(90 585 312)" fill="#FFADAD" />
  <rect x="549" y="255" width="36" height="36" rx="3" fill="#F3F4FA" />
  <rect x="404" y="398" width="36" height="36" rx="3" fill="#F3F4FA" />
  <rect x="157" y="169" width="36" height="36" rx="3" fill="#F3F4FA" />
  <rect x="302" y="169" width="36" height="36" rx="3" fill="#F3F4FA" />
  <rect x="302" y="311" width="36" height="36" rx="3" fill="#F3F4FA" />
  <rect x="447" y="169" width="36" height="36" rx="3" fill="#A9BAFF" />
  <rect x="157" y="311" width="36" height="36" rx="3" fill="#FF6363" />
  <rect x="671" y="312" width="36" height="36" rx="3" transform="rotate(90 671 312)" fill="#FF6363" />
  <rect x="592" y="169" width="36" height="36" rx="3" fill="#F3F4FA" />
  <rect x="447" y="311" width="36" height="36" rx="3" fill="#F3F4FA" />
  <rect x="157" y="212" width="36" height="36" rx="3" fill="#F3F4FA" />
  <rect x="302" y="212" width="36" height="36" rx="3" fill="#F3F4FA" />
  <rect x="302" y="355" width="36" height="35" rx="3" fill="#F3F4FA" />
  <rect x="447" y="212" width="36" height="36" rx="3" fill="#DAE0FD" />
  <rect x="157" y="355" width="36" height="35" rx="3" fill="#FFAD4D" />
  <rect x="585" y="356" width="35" height="36" rx="3" transform="rotate(90 585 356)" fill="#FFAD4D" />
  <rect x="592" y="212" width="36" height="36" rx="3" fill="#F3F4FA" />
  <rect x="447" y="355" width="36" height="35" rx="3" fill="#F3F4FA" />
  <rect x="157" y="255" width="36" height="36" rx="3" fill="#F3F4FA" />
  <rect x="302" y="255" width="36" height="36" rx="3" fill="#F3F4FA" />
  <rect x="302" y="398" width="36" height="36" rx="3" fill="#F3F4FA" />
  <rect x="447" y="255" width="36" height="36" rx="3" fill="#FFF3E4" />
  <rect x="592" y="356" width="36" height="35" rx="3" fill="#FFF3E4" />
  <rect x="157" y="398" width="36" height="36" rx="3" fill="#ECF0FE" />
  <rect x="592" y="255" width="36" height="36" rx="3" fill="#F3F4FA" />
  <rect x="447" y="398" width="36" height="36" rx="3" fill="#F3F4FA" />
  <rect x="200" y="169" width="36" height="36" rx="3" fill="#F3F4FA" />
  <rect x="345" y="169" width="36" height="36" rx="3" fill="#F3F4FA" />
  <rect x="345" y="311" width="36" height="36" rx="3" fill="#F3F4FA" />
  <rect x="490" y="169" width="36" height="36" rx="3" fill="#5275FF" />
  <rect x="200" y="311" width="36" height="36" rx="3" fill="#FFADAD" />
  <rect x="628" y="312" width="36" height="36" rx="3" transform="rotate(90 628 312)" fill="#FFD49C" />
  <rect x="635" y="169" width="36" height="36" rx="3" fill="#F3F4FA" />
  <rect x="490" y="311" width="36" height="36" rx="3" fill="#F3F4FA" />
  <rect x="200" y="212" width="36" height="36" rx="3" fill="#F3F4FA" />
  <rect x="345" y="212" width="36" height="36" rx="3" fill="#F3F4FA" />
  <rect x="345" y="355" width="36" height="35" rx="3" fill="#F3F4FA" />
  <rect x="490" y="212" width="36" height="36" rx="3" fill="#FFADAD" />
  <rect x="200" y="355" width="36" height="35" rx="3" fill="#FF6363" />
  <rect x="628" y="399" width="35" height="36" rx="3" transform="rotate(90 628 399)" fill="#FF6363" />
  <rect x="635" y="212" width="36" height="36" rx="3" fill="#F3F4FA" />
  <rect x="490" y="355" width="36" height="35" rx="3" fill="#F3F4FA" />
  <rect x="200" y="255" width="36" height="36" rx="3" fill="#F3F4FA" />
  <rect x="345" y="255" width="36" height="36" rx="3" fill="#F3F4FA" />
  <rect x="345" y="398" width="36" height="36" rx="3" fill="#F3F4FA" />
  <rect x="490" y="255" width="36" height="36" rx="3" fill="#ECF0FE" />
  <rect x="200" y="398" width="36" height="36" rx="3" fill="#FF6363" />
  <rect x="585" y="399" width="35" height="36" rx="3" transform="rotate(90 585 399)" fill="#FF6363" />
  <rect x="635" y="255" width="36" height="36" rx="3" fill="#F3F4FA" />
  <rect x="490" y="398" width="36" height="36" rx="3" fill="#F3F4FA" />
</svg>