<svg xmlns="http://www.w3.org/2000/svg" width="610" height="165" fill="none">
  <path fill="url(#paint0_linear)" d="M70.5 92.5l-58 21v40h585v-141l-59 10-58 10-58 8-59-12-59 19-58 12-59-9-58 9-59 33z" opacity=".5"/>
  <path stroke="#5275FF" d="M12.5 113.5l58-21 59-33 58-9 59 9 58-12 59-19 59 12 58-8 58-10 59-10" filter="url(#filter0_dd)"/>
  <circle cx="12.5" cy="113.5" r="1.5" fill="#5275FF"/>
  <circle cx="70.5" cy="92.5" r="1.5" fill="#5275FF"/>
  <circle cx="129.5" cy="59.5" r="1.5" fill="#5275FF"/>
  <circle cx="187.5" cy="50.5" r="1.5" fill="#5275FF"/>
  <circle cx="246.5" cy="59.5" r="1.5" fill="#5275FF"/>
  <circle cx="304.5" cy="47.5" r="1.5" fill="#5275FF"/>
  <circle cx="363.5" cy="28.5" r="1.5" fill="#5275FF"/>
  <circle cx="422.5" cy="40.5" r="1.5" fill="#5275FF"/>
  <circle cx="480.5" cy="32.5" r="1.5" fill="#5275FF"/>
  <circle cx="538.5" cy="22.5" r="1.5" fill="#5275FF"/>
  <circle cx="597.5" cy="12.5" r="1.5" fill="#5275FF"/>
  <path fill="url(#paint1_linear)" d="M70.5 121.5l-58 11v21h585v-102l-59 20-58 20-58-12-59-11-59 38-58 2-59 1-58-21-59 33z" opacity=".2"/>
  <path stroke="#FF5B5B" d="M12.5 132.5l58-11 59-33 58 21 59-1 58-2 59-38 59 11 58 12 58-20 59-20" filter="url(#filter1_dd)"/>
  <circle cx="12.5" cy="132.5" r="1.5" fill="#FF5B5B"/>
  <circle cx="70.5" cy="121.5" r="1.5" fill="#FF5B5B"/>
  <circle cx="129.5" cy="88.5" r="1.5" fill="#FF5B5B"/>
  <circle cx="187.5" cy="109.5" r="1.5" fill="#FF5B5B"/>
  <circle cx="246.5" cy="108.5" r="1.5" fill="#FF5B5B"/>
  <circle cx="304.5" cy="106.5" r="1.5" fill="#FF5B5B"/>
  <circle cx="363.5" cy="68.5" r="1.5" fill="#FF5B5B"/>
  <circle cx="422.5" cy="79.5" r="1.5" fill="#FF5B5B"/>
  <circle cx="480.5" cy="91.5" r="1.5" fill="#FF5B5B"/>
  <circle cx="538.5" cy="71.5" r="1.5" fill="#FF5B5B"/>
  <circle cx="597.5" cy="51.5" r="1.5" fill="#FF5B5B"/>
  <path fill="url(#paint2_linear)" d="M70.5 131.5l-58 9v13h585v-74l-59 20-58 10-58 3-59-16-59 28-58 5-59-9-58-4-59 15z" opacity=".2"/>
  <path stroke="#68DBF4" d="M12.5 140.5l58-9 59-15 58 4 59 9 58-5 59-28 59 16 58-3 58-10 59-20" filter="url(#filter2_dd)"/>
  <circle cx="12.5" cy="140.5" r="1.5" fill="#68DBF4"/>
  <circle cx="70.5" cy="131.5" r="1.5" fill="#68DBF4"/>
  <circle cx="129.5" cy="116.5" r="1.5" fill="#68DBF4"/>
  <circle cx="187.5" cy="120.5" r="1.5" fill="#68DBF4"/>
  <circle cx="246.5" cy="129.5" r="1.5" fill="#68DBF4"/>
  <circle cx="304.5" cy="124.5" r="1.5" fill="#68DBF4"/>
  <circle cx="363.5" cy="96.5" r="1.5" fill="#68DBF4"/>
  <circle cx="422.5" cy="112.5" r="1.5" fill="#68DBF4"/>
  <circle cx="480.5" cy="109.5" r="1.5" fill="#68DBF4"/>
  <circle cx="538.5" cy="99.5" r="1.5" fill="#68DBF4"/>
  <circle cx="597.5" cy="79.5" r="1.5" fill="#68DBF4"/>
  <circle cx="12.5" cy="146.5" r="1.5" fill="#14C393"/>
  <circle cx="70.5" cy="138.5" r="1.5" fill="#14C393"/>
  <circle cx="129.5" cy="126.5" r="1.5" fill="#14C393"/>
  <circle cx="187.5" cy="137.5" r="1.5" fill="#14C393"/>
  <circle cx="246.5" cy="141.5" r="1.5" fill="#14C393"/>
  <circle cx="304.5" cy="134.5" r="1.5" fill="#14C393"/>
  <circle cx="363.5" cy="115.5" r="1.5" fill="#14C393"/>
  <circle cx="422.5" cy="126.5" r="1.5" fill="#14C393"/>
  <circle cx="480.5" cy="124.5" r="1.5" fill="#14C393"/>
  <circle cx="538.5" cy="123.5" r="1.5" fill="#14C393"/>
  <circle cx="597.5" cy="93.5" r="1.5" fill="#14C393"/>
  <path fill="url(#paint3_linear)" d="M70.5 138.5l-58 8v7h585v-60l-59 30-58 1-58 2-59-11-59 19-58 7-59-4-58-11-59 12z" opacity=".2"/>
  <path stroke="#14C393" d="M12.5 146.5l58-8 59-12 58 11 59 4 58-7 59-19 59 11 58-2 58-1 59-30" filter="url(#filter3_dd)"/>
  <circle cx="12.5" cy="152.5" r="1.5" fill="#8358FF"/>
  <circle cx="70.5" cy="147.5" r="1.5" fill="#8358FF"/>
  <circle cx="129.5" cy="138.5" r="1.5" fill="#8358FF"/>
  <circle cx="187.5" cy="146.5" r="1.5" fill="#8358FF"/>
  <circle cx="246.5" cy="146.5" r="1.5" fill="#8358FF"/>
  <circle cx="304.5" cy="143.5" r="1.5" fill="#8358FF"/>
  <circle cx="363.5" cy="124.5" r="1.5" fill="#8358FF"/>
  <circle cx="422.5" cy="144.5" r="1.5" fill="#8358FF"/>
  <circle cx="480.5" cy="138.5" r="1.5" fill="#8358FF"/>
  <circle cx="538.5" cy="137.5" r="1.5" fill="#8358FF"/>
  <circle cx="597.5" cy="105.5" r="1.5" fill="#8358FF"/>
  <path fill="url(#paint4_linear)" d="M70.5 147.5l-58 5v1h585v-48l-59 32-58 1-58 6-59-20-59 19-58 3h-59l-58-8-59 9z" opacity=".3"/>
  <path stroke="#8358FF" d="M12.5 152.5l58-5 59-9 58 8h59l58-3 59-19 59 20 58-6 58-1 59-32" filter="url(#filter4_dd)"/>
  <defs>
    <filter id="filter0_dd" width="609.3" height="126" x=".3" y="0" color-interpolation-filters="sRGB" filterUnits="userSpaceOnUse">
      <feFlood flood-opacity="0" result="BackgroundImageFix"/>
      <feColorMatrix in="SourceAlpha" values="0 0 0 0 0 0 0 0 0 0 0 0 0 0 0 0 0 0 127 0"/>
      <feOffset/>
      <feGaussianBlur stdDeviation="6"/>
      <feColorMatrix values="0 0 0 0 0.323144 0 0 0 0 0.458515 0 0 0 0 1 0 0 0 0.6 0"/>
      <feBlend in2="BackgroundImageFix" result="effect1_dropShadow"/>
      <feColorMatrix in="SourceAlpha" values="0 0 0 0 0 0 0 0 0 0 0 0 0 0 0 0 0 0 127 0"/>
      <feOffset/>
      <feGaussianBlur stdDeviation="2"/>
      <feColorMatrix values="0 0 0 0 0.323144 0 0 0 0 0.458515 0 0 0 0 1 0 0 0 0.2 0"/>
      <feBlend in2="effect1_dropShadow" result="effect2_dropShadow"/>
      <feBlend in="SourceGraphic" in2="effect2_dropShadow" result="shape"/>
    </filter>
    <filter id="filter1_dd" width="609.3" height="106" x=".4" y="39" color-interpolation-filters="sRGB" filterUnits="userSpaceOnUse">
      <feFlood flood-opacity="0" result="BackgroundImageFix"/>
      <feColorMatrix in="SourceAlpha" values="0 0 0 0 0 0 0 0 0 0 0 0 0 0 0 0 0 0 127 0"/>
      <feOffset/>
      <feGaussianBlur stdDeviation="6"/>
      <feColorMatrix values="0 0 0 0 1 0 0 0 0 0.358079 0 0 0 0 0.358079 0 0 0 0.6 0"/>
      <feBlend in2="BackgroundImageFix" result="effect1_dropShadow"/>
      <feColorMatrix in="SourceAlpha" values="0 0 0 0 0 0 0 0 0 0 0 0 0 0 0 0 0 0 127 0"/>
      <feOffset/>
      <feGaussianBlur stdDeviation="2"/>
      <feColorMatrix values="0 0 0 0 1 0 0 0 0 0.358079 0 0 0 0 0.358079 0 0 0 0.2 0"/>
      <feBlend in2="effect1_dropShadow" result="effect2_dropShadow"/>
      <feBlend in="SourceGraphic" in2="effect2_dropShadow" result="shape"/>
    </filter>
    <filter id="filter2_dd" width="609.2" height="86" x=".4" y="67" color-interpolation-filters="sRGB" filterUnits="userSpaceOnUse">
      <feFlood flood-opacity="0" result="BackgroundImageFix"/>
      <feColorMatrix in="SourceAlpha" values="0 0 0 0 0 0 0 0 0 0 0 0 0 0 0 0 0 0 127 0"/>
      <feOffset/>
      <feGaussianBlur stdDeviation="6"/>
      <feColorMatrix values="0 0 0 0 0.407843 0 0 0 0 0.858824 0 0 0 0 0.956863 0 0 0 0.6 0"/>
      <feBlend in2="BackgroundImageFix" result="effect1_dropShadow"/>
      <feColorMatrix in="SourceAlpha" values="0 0 0 0 0 0 0 0 0 0 0 0 0 0 0 0 0 0 127 0"/>
      <feOffset/>
      <feGaussianBlur stdDeviation="2"/>
      <feColorMatrix values="0 0 0 0 0.407843 0 0 0 0 0.858824 0 0 0 0 0.956863 0 0 0 0.2 0"/>
      <feBlend in2="effect1_dropShadow" result="effect2_dropShadow"/>
      <feBlend in="SourceGraphic" in2="effect2_dropShadow" result="shape"/>
    </filter>
    <filter id="filter3_dd" width="609.3" height="77.9" x=".4" y="81.1" color-interpolation-filters="sRGB" filterUnits="userSpaceOnUse">
      <feFlood flood-opacity="0" result="BackgroundImageFix"/>
      <feColorMatrix in="SourceAlpha" values="0 0 0 0 0 0 0 0 0 0 0 0 0 0 0 0 0 0 127 0"/>
      <feOffset/>
      <feGaussianBlur stdDeviation="6"/>
      <feColorMatrix values="0 0 0 0 0.0784314 0 0 0 0 0.764706 0 0 0 0 0.576471 0 0 0 0.6 0"/>
      <feBlend in2="BackgroundImageFix" result="effect1_dropShadow"/>
      <feColorMatrix in="SourceAlpha" values="0 0 0 0 0 0 0 0 0 0 0 0 0 0 0 0 0 0 127 0"/>
      <feOffset/>
      <feGaussianBlur stdDeviation="2"/>
      <feColorMatrix values="0 0 0 0 0.0784314 0 0 0 0 0.764706 0 0 0 0 0.576471 0 0 0 0.2 0"/>
      <feBlend in2="effect1_dropShadow" result="effect2_dropShadow"/>
      <feBlend in="SourceGraphic" in2="effect2_dropShadow" result="shape"/>
    </filter>
    <filter id="filter4_dd" width="609.3" height="71.9" x=".5" y="93.1" color-interpolation-filters="sRGB" filterUnits="userSpaceOnUse">
      <feFlood flood-opacity="0" result="BackgroundImageFix"/>
      <feColorMatrix in="SourceAlpha" values="0 0 0 0 0 0 0 0 0 0 0 0 0 0 0 0 0 0 127 0"/>
      <feOffset/>
      <feGaussianBlur stdDeviation="6"/>
      <feColorMatrix values="0 0 0 0 0.515284 0 0 0 0 0.344978 0 0 0 0 1 0 0 0 0.6 0"/>
      <feBlend in2="BackgroundImageFix" result="effect1_dropShadow"/>
      <feColorMatrix in="SourceAlpha" values="0 0 0 0 0 0 0 0 0 0 0 0 0 0 0 0 0 0 127 0"/>
      <feOffset/>
      <feGaussianBlur stdDeviation="2"/>
      <feColorMatrix values="0 0 0 0 0.515284 0 0 0 0 0.344978 0 0 0 0 1 0 0 0 0.2 0"/>
      <feBlend in2="effect1_dropShadow" result="effect2_dropShadow"/>
      <feBlend in="SourceGraphic" in2="effect2_dropShadow" result="shape"/>
    </filter>
    <linearGradient id="paint0_linear" x1="305" x2="305" y1="12" y2="115" gradientUnits="userSpaceOnUse">
      <stop stop-color="#214EFF"/>
      <stop offset="1" stop-color="#181B2B" stop-opacity="0"/>
    </linearGradient>
    <linearGradient id="paint1_linear" x1="305" x2="305" y1="77.5" y2="143.5" gradientUnits="userSpaceOnUse">
      <stop stop-color="#FF2323"/>
      <stop offset="1" stop-color="#181B2B" stop-opacity="0"/>
    </linearGradient>
    <linearGradient id="paint2_linear" x1="305" x2="305" y1="86" y2="136.5" gradientUnits="userSpaceOnUse">
      <stop stop-color="#00C2FF"/>
      <stop offset="1" stop-color="#181B2B" stop-opacity="0"/>
    </linearGradient>
    <linearGradient id="paint3_linear" x1="305" x2="305" y1="101" y2="153" gradientUnits="userSpaceOnUse">
      <stop stop-color="#00FF94"/>
      <stop offset="1" stop-color="#181B2B" stop-opacity="0"/>
    </linearGradient>
    <linearGradient id="paint4_linear" x1="305" x2="305" y1="116" y2="153" gradientUnits="userSpaceOnUse">
      <stop stop-color="#4200FF"/>
      <stop offset="1" stop-color="#181B2B" stop-opacity="0"/>
    </linearGradient>
  </defs>
</svg>
