<svg width="124" height="40" viewBox="0 0 124 40" fill="none" xmlns="http://www.w3.org/2000/svg">
  <g id="logo/sheets/light" clip-path="url(#clip0_1271_1183)">
    <g id="Group">
      <g id="Vector">
        <path
          d="M50.3686 33.4372V33.9747C50.3686 34.056 50.3436 34.1247 50.2873 34.181C50.2311 34.2372 50.1623 34.2622 50.0811 34.2622H49.5561C49.4748 34.2622 49.4061 34.2372 49.3498 34.181C49.2936 34.1247 49.2686 34.056 49.2686 33.9747L49.3061 25.6747C49.3061 25.581 49.3311 25.5122 49.3873 25.4622C49.4436 25.4122 49.5123 25.3872 49.5936 25.3872H50.1561C50.2373 25.3872 50.3061 25.4122 50.3623 25.4685C50.4186 25.5247 50.4436 25.5935 50.4436 25.6747L50.4311 28.5622C50.8998 27.9497 51.5748 27.6435 52.4623 27.6435C53.3373 27.6497 53.9936 27.9372 54.4248 28.506C54.8623 29.081 55.0873 29.7935 55.1123 30.656C55.1186 30.7497 55.1248 30.8747 55.1248 31.031C55.1248 31.1872 55.1186 31.3122 55.1123 31.406C55.0873 32.2622 54.8498 32.9747 54.4123 33.5435C53.9748 34.1122 53.3123 34.3935 52.4373 34.3935C51.5311 34.3935 50.8436 34.0685 50.3686 33.4372ZM53.5123 32.8622C53.7873 32.4872 53.9436 31.9997 53.9686 31.3872C53.9748 31.306 53.9811 31.181 53.9811 31.0247C53.9873 29.4247 53.3998 28.6247 52.2186 28.6185C51.6498 28.6185 51.2123 28.7997 50.9123 29.1685C50.6061 29.5372 50.4436 29.9747 50.4248 30.4872C50.4186 30.581 50.4123 30.7435 50.4123 30.9747C50.4123 31.1997 50.4123 31.356 50.4248 31.4497C50.4373 31.981 50.5936 32.4435 50.8873 32.831C51.1811 33.2185 51.6186 33.4122 52.2061 33.4185C52.7936 33.4185 53.2311 33.2372 53.5123 32.8622Z"
          fill="#7A859E" />
        <path
          d="M57.3686 36.5935C57.3186 36.5435 57.2936 36.4873 57.2936 36.4185C57.2936 36.3935 57.3123 36.3185 57.3561 36.1935L58.3436 33.9123L55.9811 28.2623C55.9311 28.1623 55.9061 28.0935 55.9061 28.0498C55.9123 27.9748 55.9436 27.9123 55.9936 27.8623C56.0436 27.8123 56.0998 27.7873 56.1686 27.7873H56.7436C56.8748 27.7873 56.9748 27.856 57.0436 27.9873L58.9498 32.5935L60.9436 27.9998C61.0123 27.8685 61.1123 27.7998 61.2435 27.7998H61.806C61.8748 27.7998 61.931 27.8248 61.981 27.8748C62.031 27.9248 62.056 27.981 62.056 28.0498C62.056 28.106 62.0373 28.181 61.9936 28.2748L58.4186 36.4623C58.3748 36.531 58.3311 36.581 58.2873 36.6123C58.2436 36.6435 58.1811 36.6623 58.1061 36.6623H57.5561C57.4811 36.6685 57.4186 36.6435 57.3686 36.5935Z"
          fill="#7A859E" />
        <path
          d="M66.7998 34.1747C66.406 33.9872 66.1123 33.7685 65.9185 33.5247C65.7248 33.281 65.631 33.081 65.631 32.9247C65.631 32.8435 65.6623 32.7747 65.7185 32.731C65.7748 32.6872 65.8373 32.6622 65.906 32.6622H66.431C66.481 32.6622 66.5185 32.6685 66.5498 32.6872C66.581 32.706 66.6185 32.7435 66.6685 32.7997C66.856 33.0372 67.0748 33.2185 67.3123 33.356C67.5498 33.4872 67.8685 33.556 68.2685 33.5622C68.7185 33.5622 69.081 33.481 69.3498 33.3185C69.6185 33.156 69.756 32.9122 69.7623 32.5935C69.7623 32.3872 69.706 32.2185 69.5873 32.0935C69.4685 31.9685 69.281 31.856 69.006 31.756C68.7373 31.656 68.3373 31.5435 67.7998 31.4247C67.0748 31.2622 66.5623 31.031 66.2623 30.731C65.9623 30.431 65.8185 30.0435 65.8185 29.5685C65.8185 29.2622 65.9123 28.9622 66.0998 28.6747C66.2873 28.3872 66.556 28.156 66.9248 27.981C67.2873 27.7997 67.7185 27.7185 68.2185 27.7185C68.7435 27.7185 69.1935 27.8122 69.5623 27.9872C69.931 28.1622 70.2123 28.3685 70.3998 28.606C70.5873 28.8435 70.681 29.0372 70.681 29.1935C70.681 29.2685 70.656 29.331 70.5998 29.381C70.5435 29.431 70.481 29.456 70.406 29.456H69.931C69.8123 29.456 69.731 29.4122 69.681 29.3185C69.5373 29.1622 69.4185 29.0372 69.3248 28.9497C69.231 28.8622 69.0873 28.7872 68.906 28.7247C68.7248 28.6622 68.4935 28.631 68.2185 28.6247C67.8123 28.6247 67.4998 28.706 67.281 28.8747C67.0623 29.0435 66.956 29.2685 66.9498 29.556C66.9498 29.731 66.9935 29.881 67.0873 29.9997C67.181 30.1185 67.3498 30.2372 67.6123 30.3372C67.8685 30.4435 68.256 30.5497 68.7623 30.6622C69.556 30.831 70.1123 31.0747 70.4435 31.381C70.7685 31.6935 70.9373 32.0872 70.931 32.5685C70.931 32.9247 70.8248 33.2497 70.6185 33.5435C70.4123 33.8372 70.106 34.0622 69.706 34.2247C69.306 34.3872 68.8185 34.4685 68.2623 34.4685C67.681 34.4622 67.1935 34.3622 66.7998 34.1747Z"
          fill="#7A859E" />
        <path
          d="M73.0498 34.231C72.7061 34.0622 72.4311 33.8372 72.2311 33.5497C72.0248 33.2622 71.9248 32.9435 71.9311 32.5935C71.9311 32.0435 72.1623 31.5935 72.6123 31.2435C73.0623 30.8935 73.6748 30.6685 74.4498 30.5497L76.3248 30.2935V29.931C76.3311 29.0747 75.8311 28.6435 74.8436 28.6372C74.4623 28.6372 74.1498 28.7122 73.9186 28.8622C73.6873 29.0185 73.5123 29.1997 73.4061 29.406C73.3748 29.4872 73.3373 29.5435 73.2998 29.5747C73.2623 29.606 73.2123 29.6185 73.1436 29.6185H72.6561C72.5811 29.6185 72.5186 29.5934 72.4623 29.5372C72.4061 29.4809 72.3811 29.4185 72.3811 29.3435C72.3811 29.1497 72.4748 28.931 72.6561 28.6747C72.8373 28.4247 73.1123 28.1997 73.4873 28.0185C73.8623 27.831 74.3186 27.7435 74.8623 27.7435C75.7936 27.7497 76.4623 27.9684 76.8686 28.3997C77.2686 28.8372 77.4686 29.3747 77.4686 30.0247L77.4498 34.0872C77.4498 34.1685 77.4248 34.2372 77.3686 34.2935C77.3123 34.3497 77.2436 34.3747 77.1623 34.3747H76.6123C76.5311 34.3747 76.4623 34.3497 76.4123 34.2935C76.3623 34.2372 76.3373 34.1685 76.3373 34.0872V33.5372C76.1498 33.8122 75.8873 34.0372 75.5373 34.2185C75.1873 34.3997 74.7373 34.4872 74.1873 34.4872C73.7686 34.4872 73.3936 34.3997 73.0498 34.231ZM75.7873 33.0435C76.1373 32.6872 76.3186 32.1685 76.3186 31.481V31.131L74.8561 31.3372C74.2561 31.4185 73.7998 31.556 73.4936 31.756C73.1873 31.956 73.0311 32.2059 73.0311 32.5059C73.0311 32.8497 73.1686 33.1122 73.4436 33.2935C73.7248 33.481 74.0498 33.5747 74.4373 33.5747C74.9811 33.581 75.4311 33.3997 75.7873 33.0435Z"
          fill="#7A859E" />
        <path
          d="M79.3373 34.306C79.2811 34.2498 79.2561 34.181 79.2561 34.0998L79.2811 28.1748C79.2811 28.0935 79.3061 28.0248 79.3623 27.9685C79.4186 27.9123 79.4873 27.8873 79.5686 27.8873H80.1061C80.1998 27.8873 80.2686 27.9123 80.3186 27.9623C80.3686 28.0123 80.3936 28.081 80.3936 28.1748V28.7248C80.6436 28.4185 80.9373 28.181 81.2623 28.0185C81.5936 27.856 82.0061 27.7748 82.4936 27.7748C83.2936 27.781 83.9123 28.0373 84.3498 28.5498C84.7873 29.0623 85.0061 29.7435 85.0061 30.581L84.9936 34.1185C84.9936 34.1998 84.9686 34.2685 84.9123 34.3248C84.8561 34.381 84.7873 34.406 84.7061 34.406H84.1311C84.0498 34.406 83.9811 34.381 83.9248 34.3248C83.8686 34.2685 83.8436 34.1998 83.8436 34.1185L83.8561 30.656C83.8561 30.056 83.7123 29.5873 83.4248 29.256C83.1373 28.9248 82.7186 28.756 82.1748 28.7498C81.6436 28.7498 81.2123 28.9123 80.8998 29.2498C80.5811 29.5873 80.4186 30.0498 80.4186 30.6435L80.4061 34.106C80.4061 34.1873 80.3811 34.256 80.3248 34.3123C80.2686 34.3685 80.1998 34.3935 80.1186 34.3935H79.5436C79.4561 34.3873 79.3873 34.3623 79.3373 34.306Z"
          fill="#7A859E" />
        <path
          d="M87.2873 32.231L87.2998 28.881L86.3123 28.8747C86.2311 28.8747 86.1623 28.8497 86.1123 28.7997C86.0623 28.7497 86.0373 28.681 86.0373 28.5997V28.1997C86.0373 28.1185 86.0623 28.0497 86.1123 27.9935C86.1623 27.9372 86.2311 27.9122 86.3123 27.9122L87.2998 27.9185L87.3061 25.831C87.3061 25.7497 87.3311 25.681 87.3811 25.6247C87.4311 25.5685 87.4998 25.5435 87.5811 25.5435H88.1311C88.2123 25.5435 88.2811 25.5685 88.3373 25.6247C88.3936 25.681 88.4186 25.7497 88.4186 25.831L88.4123 27.9185L89.9623 27.9247C90.0436 27.9247 90.1123 27.9497 90.1686 28.006C90.2248 28.0622 90.2498 28.131 90.2498 28.2122V28.6122C90.2498 28.6935 90.2248 28.7622 90.1686 28.8122C90.1123 28.8622 90.0436 28.8872 89.9623 28.8872L88.4123 28.881L88.3998 32.1435C88.3998 32.5685 88.4686 32.8872 88.5998 33.106C88.7373 33.3247 88.9686 33.431 89.3061 33.431H90.0686C90.1498 33.431 90.2186 33.456 90.2686 33.5122C90.3186 33.5685 90.3436 33.6372 90.3436 33.7185V34.131C90.3436 34.2122 90.3186 34.281 90.2686 34.3372C90.2186 34.3935 90.1498 34.4185 90.0686 34.4185L89.2186 34.4122C87.9248 34.4247 87.2811 33.6935 87.2873 32.231Z"
          fill="#7A859E" />
        <path
          d="M91.5811 26.6309C91.5248 26.5747 91.4998 26.5059 91.4998 26.4247V25.7747C91.4998 25.6934 91.5248 25.6184 91.5811 25.5622C91.6373 25.5059 91.7061 25.4747 91.7873 25.4747H92.5248C92.6061 25.4747 92.6811 25.5059 92.7373 25.5622C92.7936 25.6184 92.8248 25.6934 92.8248 25.7747V26.4247C92.8248 26.5059 92.7936 26.5747 92.7373 26.6309C92.6811 26.6872 92.6061 26.7122 92.5248 26.7122H91.7873C91.7061 26.7122 91.6373 26.6872 91.5811 26.6309ZM91.6498 34.3559C91.5936 34.2997 91.5686 34.2309 91.5686 34.1497L91.5936 28.2247C91.5936 28.1434 91.6186 28.0747 91.6748 28.0184C91.7311 27.9622 91.7998 27.9372 91.8811 27.9372H92.4311C92.5123 27.9372 92.5811 27.9622 92.6373 28.0184C92.6936 28.0747 92.7186 28.1434 92.7186 28.2247L92.6936 34.1497C92.6936 34.2309 92.6686 34.2997 92.6123 34.3559C92.5561 34.4122 92.4873 34.4372 92.4061 34.4372H91.8561C91.7686 34.4372 91.6998 34.4122 91.6498 34.3559Z"
          fill="#7A859E" />
        <path
          d="M94.6498 34.3684C94.5936 34.3121 94.5686 34.2434 94.5686 34.1621L94.5936 28.2371C94.5936 28.1559 94.6186 28.0871 94.6748 28.0309C94.7311 27.9746 94.7998 27.9496 94.8811 27.9496H95.4061C95.4873 27.9496 95.5561 27.9746 95.6061 28.0309C95.6561 28.0871 95.6811 28.1559 95.6811 28.2371V28.6621C96.1311 28.1059 96.7436 27.8309 97.5123 27.8309C98.4311 27.8371 99.0748 28.2184 99.4561 28.9871C99.6561 28.6371 99.9436 28.3621 100.319 28.1559C100.687 27.9496 101.106 27.8434 101.562 27.8496C102.244 27.8496 102.806 28.0871 103.237 28.5559C103.669 29.0246 103.881 29.6996 103.881 30.5871L103.862 34.1996C103.862 34.2809 103.837 34.3496 103.781 34.4059C103.725 34.4621 103.656 34.4871 103.575 34.4871H103.037C102.956 34.4871 102.887 34.4621 102.831 34.4059C102.775 34.3496 102.75 34.2809 102.75 34.1996L102.769 30.6996C102.769 30.0309 102.637 29.5559 102.362 29.2684C102.087 28.9809 101.725 28.8371 101.275 28.8309C100.875 28.8309 100.531 28.9746 100.244 29.2684C99.9561 29.5622 99.8061 30.0371 99.8061 30.6871L99.7873 34.1871C99.7873 34.2684 99.7623 34.3371 99.7061 34.3934C99.6498 34.4496 99.5811 34.4746 99.4998 34.4746H98.9498C98.8686 34.4746 98.7998 34.4496 98.7436 34.3934C98.6873 34.3371 98.6623 34.2684 98.6623 34.1871L98.6748 30.6871C98.6748 30.0309 98.5373 29.5559 98.2498 29.2621C97.9623 28.9684 97.6061 28.8246 97.1811 28.8184C96.7811 28.8184 96.4373 28.9621 96.1498 29.2496C95.8623 29.5371 95.7123 30.0121 95.7123 30.6621L95.6998 34.1746C95.6998 34.2559 95.6748 34.3246 95.6186 34.3809C95.5623 34.4371 95.4936 34.4621 95.4123 34.4621H94.8623C94.7686 34.4559 94.6998 34.4246 94.6498 34.3684Z"
          fill="#7A859E" />
        <path
          d="M106.206 33.8309C105.7 33.2996 105.425 32.5746 105.375 31.6559L105.362 31.2309L105.375 30.8184C105.431 29.9184 105.712 29.2059 106.225 28.6746C106.737 28.1434 107.419 27.8809 108.262 27.8809C109.181 27.8871 109.887 28.1809 110.387 28.7621C110.887 29.3496 111.137 30.1434 111.131 31.1434V31.3684C111.131 31.4496 111.106 31.5184 111.05 31.5746C110.994 31.6309 110.925 31.6559 110.844 31.6559L106.506 31.6371V31.7496C106.531 32.2934 106.694 32.7559 107 33.1371C107.306 33.5246 107.712 33.7121 108.225 33.7184C108.619 33.7184 108.937 33.6434 109.181 33.4934C109.425 33.3434 109.612 33.1809 109.737 33.0121C109.812 32.9121 109.869 32.8559 109.912 32.8309C109.956 32.8121 110.025 32.7996 110.125 32.7996H110.675C110.75 32.7996 110.812 32.8184 110.869 32.8621C110.925 32.9059 110.95 32.9559 110.95 33.0246C110.95 33.2059 110.837 33.4309 110.612 33.6871C110.387 33.9434 110.069 34.1684 109.656 34.3496C109.244 34.5309 108.769 34.6246 108.237 34.6246C107.394 34.6309 106.712 34.3621 106.206 33.8309ZM110.006 30.8059V30.7684C110.006 30.1871 109.85 29.7059 109.537 29.3434C109.225 28.9746 108.8 28.7934 108.262 28.7871C107.719 28.7871 107.294 28.9684 106.987 29.3309C106.675 29.6934 106.519 30.1684 106.519 30.7559V30.7934L110.006 30.8059Z"
          fill="#7A859E" />
        <path
          d="M112.737 34.4498C112.681 34.3935 112.656 34.3248 112.656 34.2435L112.681 28.3185C112.681 28.2373 112.706 28.1685 112.762 28.1123C112.819 28.056 112.887 28.031 112.969 28.031H113.506C113.6 28.031 113.669 28.056 113.719 28.106C113.769 28.156 113.794 28.2248 113.794 28.3185V28.8685C114.044 28.5623 114.337 28.3248 114.662 28.1623C114.994 27.9998 115.406 27.9185 115.894 27.9185C116.694 27.9248 117.312 28.181 117.75 28.6935C118.187 29.206 118.406 29.8873 118.406 30.7248L118.394 34.2623C118.394 34.3435 118.369 34.4123 118.312 34.4685C118.256 34.5248 118.187 34.5498 118.106 34.5498H117.531C117.45 34.5498 117.381 34.5248 117.325 34.4685C117.269 34.4123 117.244 34.3435 117.244 34.2623L117.256 30.7998C117.256 30.1998 117.112 29.731 116.825 29.3998C116.537 29.0623 116.119 28.8998 115.575 28.8935C115.044 28.8935 114.619 29.056 114.3 29.3935C113.981 29.731 113.825 30.1935 113.819 30.7873L113.8 34.2498C113.8 34.331 113.775 34.3998 113.719 34.456C113.662 34.5123 113.594 34.5373 113.512 34.5373H112.937C112.856 34.531 112.787 34.506 112.737 34.4498Z"
          fill="#7A859E" />
        <path
          d="M120.687 32.3747L120.7 29.0247L119.712 29.0185C119.631 29.0185 119.562 28.9935 119.512 28.9435C119.462 28.8935 119.437 28.8247 119.437 28.7435V28.3435C119.437 28.2622 119.462 28.1935 119.512 28.1372C119.562 28.081 119.631 28.056 119.712 28.056L120.7 28.0622L120.706 25.9747C120.706 25.8935 120.731 25.8247 120.781 25.7685C120.831 25.7122 120.9 25.6872 120.981 25.6872H121.531C121.612 25.6872 121.681 25.7122 121.737 25.7685C121.794 25.8247 121.819 25.8935 121.819 25.9747L121.812 28.0622L123.362 28.0685C123.444 28.0685 123.512 28.0935 123.569 28.1497C123.625 28.206 123.65 28.2747 123.65 28.356V28.756C123.65 28.8372 123.625 28.906 123.569 28.956C123.512 29.006 123.444 29.031 123.362 29.031L121.812 29.0247L121.8 32.2872C121.8 32.7122 121.869 33.031 122 33.2497C122.137 33.4685 122.369 33.5747 122.706 33.5747H123.469C123.55 33.5747 123.619 33.5997 123.669 33.656C123.719 33.7122 123.744 33.781 123.744 33.8622V34.2747C123.744 34.356 123.719 34.4247 123.669 34.481C123.619 34.5372 123.55 34.5622 123.469 34.5622L122.619 34.556C121.325 34.5685 120.681 33.8372 120.687 32.3747Z"
          fill="#7A859E" />
      </g>
    </g>
    <g id="Group_2">
      <g id="Vector_2">
        <path
          d="M51.3438 18.7247C50.5875 18.381 50.0313 17.981 49.6688 17.5185C49.3063 17.0622 49.125 16.6685 49.125 16.3372C49.125 16.1872 49.175 16.0685 49.2688 15.9747C49.3625 15.8872 49.4812 15.8372 49.6125 15.8372H51.4313C51.55 15.8372 51.65 15.8997 51.7438 16.0185C51.8188 16.081 51.9812 16.2185 52.2437 16.4435C52.5 16.6685 52.8 16.8435 53.1313 16.9747C53.4625 17.0997 53.8312 17.1685 54.2312 17.1685C54.825 17.1685 55.3063 17.0497 55.675 16.8185C56.0438 16.5872 56.2312 16.2497 56.2312 15.8185C56.2312 15.5185 56.1437 15.2747 55.975 15.0872C55.8062 14.8997 55.5 14.7247 55.0625 14.5685C54.625 14.4122 53.9687 14.2372 53.1 14.0372C51.8437 13.7685 50.9125 13.356 50.3125 12.7997C49.7125 12.2435 49.4125 11.5122 49.4125 10.5935C49.4125 9.99347 49.5938 9.42472 49.9438 8.89347C50.2938 8.36222 50.8312 7.92472 51.5312 7.58722C52.2312 7.24972 53.075 7.08097 54.05 7.08097C55.0563 7.08097 55.925 7.24347 56.65 7.56222C57.375 7.88722 57.925 8.26847 58.3062 8.71847C58.6812 9.16847 58.875 9.56847 58.875 9.91222C58.875 10.0497 58.825 10.1622 58.7312 10.2622C58.6312 10.3622 58.5187 10.406 58.3875 10.406H56.7187C56.5562 10.406 56.4313 10.3435 56.3438 10.2247C56.2375 10.1497 56.075 10.0122 55.8437 9.80597C55.6125 9.60597 55.3563 9.44347 55.075 9.32472C54.7938 9.20597 54.4562 9.14347 54.0562 9.14347C53.5062 9.14347 53.0875 9.26222 52.7875 9.50597C52.4937 9.74347 52.3438 10.0622 52.3438 10.4497C52.3438 10.7185 52.4125 10.9435 52.5562 11.1247C52.7 11.306 52.9812 11.4747 53.4125 11.631C53.8437 11.7872 54.4875 11.9497 55.3438 12.1122C58.0063 12.6372 59.3437 13.8122 59.3437 15.6435C59.3437 16.7122 58.8875 17.5685 57.975 18.231C57.0625 18.8935 55.7937 19.2185 54.1687 19.2185C53.0375 19.2435 52.1 19.0685 51.3438 18.7247Z"
          fill="#181B2B" />
        <path
          d="M61.7812 18.856C61.675 18.7497 61.625 18.6247 61.625 18.4747V3.58096C61.625 3.41846 61.675 3.28721 61.7812 3.18721C61.8875 3.08721 62.0125 3.04346 62.1562 3.04346H64.175C64.3375 3.04346 64.4688 3.09346 64.5625 3.18721C64.6563 3.28721 64.7062 3.41846 64.7062 3.58096V8.71221C65.5937 7.63096 66.7875 7.09346 68.2812 7.09346C69.6437 7.09346 70.7312 7.54971 71.5437 8.45596C72.3562 9.36221 72.7625 10.5997 72.7625 12.156V18.481C72.7625 18.631 72.7125 18.756 72.6187 18.8622C72.5187 18.9685 72.3937 19.0185 72.2312 19.0185H70.2125C70.05 19.0185 69.9187 18.9685 69.8125 18.8622C69.7062 18.756 69.6562 18.631 69.6562 18.481V12.2935C69.6562 11.4247 69.4438 10.7435 69.025 10.256C68.6 9.76846 68 9.52471 67.2125 9.52471C66.4562 9.52471 65.85 9.77471 65.3937 10.2685C64.9375 10.7622 64.7062 11.4372 64.7062 12.2935V18.481C64.7062 18.631 64.6563 18.756 64.5625 18.8622C64.4688 18.9685 64.3375 19.0185 64.175 19.0185H62.1562C62.0125 19.0185 61.8813 18.9622 61.7812 18.856Z"
          fill="#181B2B" />
        <path
          d="M76.65 17.7997C75.6812 16.8372 75.1625 15.4747 75.1062 13.706L75.0812 13.1435C75.0812 11.2685 75.5687 9.79346 76.5375 8.71221C77.5062 7.63096 78.85 7.09346 80.5687 7.09346C82.3312 7.09346 83.6875 7.63096 84.6437 8.71221C85.6 9.79346 86.075 11.231 86.075 13.031V13.506C86.075 13.656 86.025 13.781 85.9187 13.8872C85.8125 13.9935 85.6812 14.0435 85.5187 14.0435H78.15V14.2247C78.1812 15.0622 78.4062 15.756 78.825 16.306C79.2437 16.856 79.825 17.1247 80.5687 17.1247C81.4125 17.1247 82.1 16.781 82.6312 16.0872C82.7625 15.9247 82.8687 15.8185 82.9437 15.781C83.0187 15.7435 83.1437 15.7247 83.3187 15.7247H85.275C85.4062 15.7247 85.525 15.7622 85.6187 15.8372C85.7125 15.9122 85.7625 16.0185 85.7625 16.1497C85.7625 16.5122 85.55 16.931 85.1312 17.4185C84.7125 17.906 84.1062 18.331 83.3187 18.6872C82.5312 19.0497 81.625 19.2247 80.5875 19.2247C78.9312 19.2435 77.6187 18.7622 76.65 17.7997ZM83.0125 12.131V12.0872C83.0125 11.1997 82.7937 10.4935 82.3562 9.96221C81.9187 9.43096 81.325 9.16221 80.5687 9.16221C79.8125 9.16221 79.2187 9.43096 78.7937 9.96221C78.3625 10.4935 78.15 11.206 78.15 12.0872V12.131H83.0125Z"
          fill="#181B2B" />
        <path
          d="M89.4812 17.7997C88.5125 16.8372 87.9937 15.4747 87.9375 13.706L87.9125 13.1435C87.9125 11.2685 88.4 9.79346 89.3687 8.71221C90.3375 7.63096 91.6812 7.09346 93.4 7.09346C95.1625 7.09346 96.5187 7.63096 97.475 8.71221C98.4312 9.79346 98.9062 11.231 98.9062 13.031V13.506C98.9062 13.656 98.8562 13.781 98.75 13.8872C98.6437 13.9935 98.5125 14.0435 98.35 14.0435H90.975V14.2247C91.0062 15.0622 91.2312 15.756 91.65 16.306C92.0687 16.856 92.6562 17.1247 93.3937 17.1247C94.2375 17.1247 94.925 16.781 95.4562 16.0872C95.5875 15.9247 95.6937 15.8185 95.7687 15.781C95.8437 15.7435 95.9687 15.7247 96.1437 15.7247H98.1C98.2312 15.7247 98.35 15.7622 98.4437 15.8372C98.5375 15.9122 98.5875 16.0185 98.5875 16.1497C98.5875 16.5122 98.375 16.931 97.9562 17.4185C97.5375 17.906 96.9312 18.331 96.15 18.6872C95.3625 19.0497 94.4562 19.2247 93.4187 19.2247C91.7687 19.2435 90.45 18.7622 89.4812 17.7997ZM95.8437 12.131V12.0872C95.8437 11.1997 95.625 10.4935 95.1875 9.96221C94.75 9.43096 94.1562 9.16221 93.4 9.16221C92.6437 9.16221 92.05 9.43096 91.625 9.96221C91.1937 10.4935 90.9812 11.206 90.9812 12.0872V12.131H95.8437Z"
          fill="#181B2B" />
        <path
          d="M103.419 17.9497C102.738 17.2372 102.4 16.1935 102.4 14.8122V9.72471H100.644C100.494 9.72471 100.369 9.67471 100.269 9.56846C100.163 9.46221 100.113 9.33721 100.113 9.18721V7.86221C100.113 7.71221 100.163 7.58721 100.269 7.48096C100.369 7.37471 100.5 7.32471 100.644 7.32471H102.4V3.58096C102.4 3.41846 102.45 3.28721 102.556 3.18721C102.663 3.08721 102.788 3.04346 102.938 3.04346H104.781C104.944 3.04346 105.075 3.09346 105.169 3.18721C105.263 3.28721 105.313 3.41846 105.313 3.58096V7.31846H108.088C108.238 7.31846 108.363 7.36846 108.463 7.47471C108.563 7.58096 108.619 7.70596 108.619 7.85596V9.18096C108.619 9.33096 108.569 9.45596 108.463 9.56221C108.356 9.66846 108.231 9.71846 108.088 9.71846H105.313V14.556C105.313 15.1997 105.425 15.6872 105.644 16.0185C105.869 16.3497 106.231 16.5122 106.731 16.5122H108.288C108.45 16.5122 108.581 16.5622 108.675 16.656C108.769 16.7497 108.819 16.8872 108.819 17.0497V18.4685C108.819 18.6185 108.769 18.7435 108.675 18.8497C108.581 18.956 108.45 19.006 108.288 19.006H106.469C105.113 19.0185 104.094 18.6622 103.419 17.9497Z"
          fill="#181B2B" />
        <path
          d="M112.362 18.7247C111.606 18.381 111.05 17.981 110.688 17.5185C110.325 17.0622 110.144 16.6685 110.144 16.3372C110.144 16.1872 110.194 16.0685 110.288 15.9747C110.381 15.8872 110.5 15.8372 110.631 15.8372H112.45C112.569 15.8372 112.675 15.8997 112.762 16.0185C112.837 16.081 113 16.2185 113.262 16.4435C113.519 16.6685 113.819 16.8435 114.15 16.9747C114.481 17.106 114.85 17.1685 115.25 17.1685C115.844 17.1685 116.325 17.0497 116.694 16.8185C117.062 16.5872 117.25 16.2497 117.25 15.8185C117.25 15.5185 117.162 15.2747 116.994 15.0872C116.825 14.8997 116.519 14.7247 116.081 14.5685C115.644 14.4122 114.987 14.2372 114.119 14.0372C112.862 13.7685 111.931 13.356 111.331 12.7997C110.731 12.2435 110.431 11.5122 110.431 10.5935C110.431 9.99347 110.612 9.42472 110.962 8.89347C111.312 8.36222 111.844 7.92472 112.55 7.58722C113.25 7.24972 114.094 7.08097 115.069 7.08097C116.075 7.08097 116.944 7.24347 117.669 7.56222C118.394 7.88722 118.944 8.26847 119.325 8.71847C119.706 9.16847 119.894 9.56847 119.894 9.91222C119.894 10.0497 119.844 10.1622 119.75 10.2622C119.656 10.3622 119.537 10.406 119.406 10.406H117.744C117.581 10.406 117.456 10.3435 117.369 10.2247C117.262 10.1497 117.1 10.0122 116.869 9.80597C116.638 9.60597 116.381 9.44347 116.1 9.32472C115.819 9.20597 115.481 9.14347 115.081 9.14347C114.531 9.14347 114.113 9.26222 113.812 9.50597C113.519 9.74347 113.369 10.0622 113.369 10.4497C113.369 10.7185 113.437 10.9435 113.581 11.1247C113.725 11.306 114.006 11.4747 114.438 11.631C114.869 11.7872 115.513 11.9497 116.369 12.1122C119.031 12.6372 120.369 13.8122 120.369 15.6435C120.369 16.7122 119.912 17.5685 119 18.231C118.087 18.8935 116.819 19.2185 115.194 19.2185C114.056 19.2435 113.119 19.0685 112.362 18.7247Z"
          fill="#181B2B" />
      </g>
    </g>
    <path id="Subtract" fill-rule="evenodd" clip-rule="evenodd"
      d="M40 20C40 31.0457 31.0457 40 20 40C8.9543 40 0 31.0457 0 20C0 8.9543 8.9543 0 20 0C31.0457 0 40 8.9543 40 20ZM17.175 10.2625L17.9938 9.44375C19.1 8.33125 20.9 8.33125 22.0125 9.44375L26.9125 14.3438L26.0938 15.1625C24.9813 16.2688 23.1813 16.2688 22.075 15.1625L17.175 10.2625ZM10.2625 22.825L9.44375 22.0062C8.33125 20.9 8.33125 19.1 9.44375 17.9875L14.3438 13.0875L15.1625 13.9062C16.2688 15.0187 16.2688 16.8187 15.1625 17.925L10.2625 22.825ZM30.5563 17.9937L29.7375 17.175L24.8375 22.075C23.7313 23.1812 23.7313 24.9812 24.8375 26.0937L25.6563 26.9125L30.5563 22.0125C31.6688 20.9 31.6688 19.1 30.5563 17.9937ZM22.825 29.7374L22.0062 30.5562C20.9 31.6687 19.1 31.6687 17.9875 30.5562L13.0875 25.6562L13.9062 24.8374C15.0187 23.7312 16.8187 23.7312 17.925 24.8374L22.825 29.7374Z"
      fill="#1AA168" />
  </g>
  <defs>
    <clipPath id="clip0_1271_1183">
      <rect width="123.744" height="40" fill="white" />
    </clipPath>
  </defs>
</svg>