<svg width="822" height="592" viewBox="0 0 822 592" fill="none" xmlns="http://www.w3.org/2000/svg">
  <path
    d="M121 445V278.47C121 274.052 124.582 270.47 129 270.47H146.5H181.224C184.414 270.47 187 273.056 187 276.247C187 279.437 189.586 282.023 192.776 282.023H267.342C269.362 282.023 271 280.385 271 278.365C271 276.344 272.638 274.706 274.658 274.706H324.842C326.862 274.706 328.5 276.344 328.5 278.365C328.5 280.385 330.138 282.023 332.158 282.023H356.224C359.414 282.023 362 279.437 362 276.247C362 273.056 364.586 270.47 367.776 270.47H440C444.418 270.47 448 266.889 448 262.47V252.756V241.887C448 237.469 451.582 233.887 456 233.887H480H492C496.418 233.887 500 230.306 500 225.887V224.645V208C500 203.582 503.582 200 508 200H525.5H548H578.5C582.918 200 586.5 203.582 586.5 208V213.285C586.5 217.703 590.082 221.285 594.5 221.285H618.301C621.172 221.285 623.5 218.957 623.5 216.086C623.5 213.215 625.828 210.887 628.699 210.887H657.801C660.672 210.887 663 213.215 663 216.086C663 218.957 665.328 221.285 668.199 221.285H689C693.418 221.285 697 224.866 697 229.285V445C697 449.418 693.418 453 689 453H129C124.582 453 121 449.418 121 445Z"
    fill="#D2D6E7" fill-opacity="0.21" />
  <path d="M206 340.543V453H242V215H229V268.979H216.667V340.543H206Z" fill="#DAE0FD" fill-opacity="0.39" />
  <path d="M401 229.546V316.445L401.001 453H426V164H413.171V229.546H401Z" fill="#DAE0FD" fill-opacity="0.72" />
  <path d="M584 351.454V360.388L584.001 453H609V257H596.171V351.454H584Z" fill="#D2D6E7" fill-opacity="0.48" />
  <path d="M206 453V340.543H216.667V268.979H229V215H242" stroke="#A9BAFF" />
  <path d="M401.001 453L401 315.509V228.574H413.171V163H426" stroke="#A9BAFF" />
  <path d="M584.001 453L584 359.601V350.545H596.171V256H609" stroke="#A9BAFF" />
  <path d="M269 354C269 352.343 270.343 351 272 351H282C283.657 351 285 352.343 285 354V453H269V354Z" fill="#ECEEF5" />
  <path d="M303 393C303 391.343 304.343 390 306 390H316C317.657 390 319 391.343 319 393V453H303V393Z" fill="#ECEEF5" />
  <path d="M165 393C165 391.343 166.343 390 168 390H178C179.657 390 181 391.343 181 393V453H165V393Z" fill="#ECEEF5" />
  <path
    d="M121 408C121 406.343 122.343 405 124 405H134C135.657 405 137 406.343 137 408V453H129C124.582 453 121 449.418 121 445V408Z"
    fill="#ECEEF5" />
  <path d="M337 373C337 371.343 338.343 370 340 370H350C351.657 370 353 371.343 353 373V453H337V373Z" fill="#ECEEF5" />
  <path d="M353 393C353 391.343 354.343 390 356 390H366C367.657 390 369 391.343 369 393V453H353V393Z" fill="#ECEEF5" />
  <path d="M426 323C426 321.343 427.343 320 429 320H439C440.657 320 442 321.343 442 323V453H426V323Z" fill="#ECEEF5" />
  <path d="M460 374C460 372.343 461.343 371 463 371H473C474.657 371 476 372.343 476 374V453H460V374Z" fill="#ECEEF5" />
  <path d="M489 386C489 384.343 490.343 383 492 383H502C503.657 383 505 384.343 505 386V453H489V386Z" fill="#ECEEF5" />
  <path d="M523 415C523 413.343 524.343 412 526 412H536C537.657 412 539 413.343 539 415V453H523V415Z" fill="#ECEEF5" />
  <path d="M555 374C555 372.343 556.343 371 558 371H568C569.657 371 571 372.343 571 374V453H555V374Z" fill="#ECEEF5" />
  <path
    d="M681 354C681 352.343 682.343 351 684 351H694C695.657 351 697 352.343 697 354V445C697 449.418 693.418 453 689 453H681V354Z"
    fill="#ECEEF5" />
  <path d="M626 394C626 392.343 627.343 391 629 391H639C640.657 391 642 392.343 642 394V453H626V394Z" fill="#ECEEF5" />
  <path d="M648 422C648 420.343 649.343 419 651 419H661C662.657 419 664 420.343 664 422V453H648V422Z" fill="#ECEEF5" />
</svg>