<svg xmlns="http://www.w3.org/2000/svg" width="1439" height="770" fill="none">
  <path stroke="#F9FAFC" stroke-linecap="round" stroke-linejoin="round" stroke-miterlimit="10" stroke-width="6" d="M2353 490c-23-16-45-33-69-48-26-16-54-28-83-35-21-5-40 2-58 12-8 5-17 11-26 15-10 5-20 7-31 4-13-3-26-5-39 0-8 4-16 9-20 19-3 9-1 15 6 20l12 8c18 8 27 22 30 41 4 20 7 40 13 59l15 48c4 12 4 25 2 37-5 22-21 35-39 46-28 16-58 29-83 49-22 17-43 34-66 50l-30 20c-20 14-24 29-20 45 4 19 18 29 41 32 17 2 35 3 51 13 19 11 32 26 29 50-1 8-4 17-9 24-16 23-26 49-31 77-4 23-19 37-42 43-20 6-39 8-59 5-31-6-47-29-53-57l-9-50c-4-23-14-43-29-60-16-18-30-37-41-58-8-15-14-31-14-48 0-16 8-27 22-35 20-11 41-16 62-22l45-13c17-6 24-20 27-37 3-30 11-59 30-83 10-13 18-27 26-41l21-45 2-5c4-22-5-33-27-34-20-1-38 3-58 5-21 2-43 0-61-16l-64-56c-22-19-41-40-56-64l-17-33c-8-16-16-33-31-45-11-9-24-15-38-18-27-7-49-21-70-38-20-17-40-34-65-44-22-9-44-18-67-24-38-11-66-32-85-66a239 239 0 0 0-71-82 67 67 0 0 1-28-58c1-24 7-45 14-67l10-33c7-16 19-27 35-33 26-10 52-21 79-29 14-5 30-7 45-7 29 0 53 19 60 49 5 20 8 41 17 60 10 20 24 35 43 45l77 40c20 10 38 23 57 34 19 10 41 11 62 9 22-3 45-5 66 0 31 8 46 31 53 61l13 48c7 18 24 25 42 28 24 2 47-5 70-9 23-5 46-8 69-6 33 2 58 18 72 49 9 20 20 40 36 56 17 17 37 29 61 34 15 3 29-1 42-7l57-25 66-30 13-7M513-504c22 29 41 59 59 92 8 15 17 30 21 48s3 35-3 52l-21 50c-7 20-14 41-19 61-6 23-13 45-25 65-19 31-16 60 5 89l59 84c8 12 18 23 28 34 17 17 28 38 36 61 6 17 17 28 34 32 15 4 30 7 43 16 17 12 28 28 31 49 4 20-1 40-2 60s3 40 14 58c12 19 24 37 34 56 14 27 8 45-10 64l-27 24c-25 23-41 52-57 81-11 22-22 43-38 62a44 44 0 0 1-43 14l-66-21c-34-11-59 3-77 26-10 13-20 26-33 36-19 12-49 8-65-7-14-15-23-32-29-51-8-23-20-44-37-62l-15-18c-15-22-9-54 15-71 28-21 55-42 80-67 12-13 27-23 39-36 22-21 36-46 38-77 1-11 2-23 1-34-3-16-12-27-26-36-21-14-43-29-59-49l-56-75-47-71c-19-29-47-45-80-53-28-7-56-11-85-17L65-47 8-55c-31-4-62-7-92-17-25-8-50-4-74 3l-74 20c-15 3-31 3-47 6-19 4-39 8-57 14-34 12-68 25-104 29l-48 7c-15 3-25 12-33 24-7 10-5 26 3 35 10 13 24 20 37 28 17 10 35 18 50 32l28 25c12 12 27 19 44 20 12 0 25-4 37-5 22-2 44-4 66-4 25 0 50-2 74-4 20-2 41-5 58 11 6 5 12 9 16 16 13 24 34 36 57 47l47 19c23 8 46 6 70 1 18-3 36-7 55-1 26 9 41 29 51 54 5 10 6 20-3 29l-13 10-48 20a98 98 0 0 0-61 75c-5 23-3 45 0 68 5 38 1 76-14 112L8 675c-12 23-31 39-60 38-29 0-58 1-87-2-21-2-41-8-62-13-17-3-34-4-52-2-15 3-31 4-46 3-15 0-29-3-43-5-17-1-33-3-49-2-22 2-44 2-66-1l-44-6-6-1c-23-11-26-20-13-46 7-13 15-25 18-39 4-21-8-38-24-44-20-7-39-6-58 2-18 6-35 16-53 23-12 5-24 9-37 10-29 3-56-4-83-15-11-4-15-11-15-22l-3-35c-3-20-15-37-30-51-7-7-14-13-20-21-10-11-20-21-33-26-17-8-34-2-48 8-14 9-26 22-38 34-27 30-58 33-91 3-19-17-36-36-55-54-14-14-29-26-49-33-20-6-38-3-54 10l-39 33c-4 4-10 6-15 9"/>
  <path stroke="#F9FAFC" stroke-linecap="round" stroke-linejoin="round" stroke-miterlimit="10" stroke-width="6" d="M-1260 1202c41-1 77-15 108-40 21-17 39-37 59-54 25-23 51-43 77-65 11-10 23-20 33-32 15-17 12-36 4-56-5-11-10-23-12-36-3-17 6-33 17-45 22-24 48-42 81-49 24-5 45 2 65 15 13 8 25 19 38 27 16 10 32 16 51 9 19-8 33-21 37-42 2-12-3-23-8-34l-21-48c-9-28-8-56-1-84 5-19 20-31 39-34 20-4 40-5 61-7l19 3c8 2 13 7 15 15l7 34c6 31 26 46 55 53l69 16c22 5 44 4 66-2l51-12c6-2 13-2 20-3 23-2 46-3 68-7 25-4 49-3 73 5 28 8 56 13 84 15 16 2 32 7 48 8 41 5 79-7 96-54 9-23 14-48 21-72 5-18 12-35 15-53 3-16 4-33 3-50-2-26-7-52 2-77 6-17 17-29 33-37 20-11 41-16 63-19 27-4 54-4 80-13 8-3 16-6 23-11 20-11 19-32 7-47-10-13-23-23-38-30-25-12-45-29-63-50a87 87 0 0 0-34-25c-18-7-35-12-53-16-25-7-51-8-75-18-21-9-34-25-38-46l-16-83c-3-17-1-33 10-46C-11-6 3-11 16-14c20-5 40-4 60-1l52 5c31 3 62 3 92 13 29 10 51 29 67 57l52 91c13 21 25 43 39 64 8 11 18 21 27 31 10 11 22 19 28 33 10 24-2 49-20 61l-42 27-32 23c-17 14-34 28-49 44-12 12-23 27-33 42-7 10-11 22-17 32-9 16-5 29 7 41 16 16 32 31 50 46 19 16 32 36 41 59 10 25 23 49 46 65 31 23 72 25 102-5l32-34c15-18 42-22 66-9 19 10 37 22 55 34 15 9 26 6 36-4 10-9 16-21 22-32l51-104c15-29 37-53 64-72 12-8 23-18 33-29 13-15 14-33 5-51-7-15-16-29-25-43-11-18-22-36-26-56-2-8-3-16-3-25-1-22 1-44-2-65-5-33-23-58-49-77l-44-35c-8-7-15-17-23-25-14-13-27-27-43-38-29-22-46-52-60-84l-12-28c-11-25-7-50 5-75 11-21 22-41 32-63 5-13 8-27 11-40 6-22 10-45 15-67 5-20 8-39 4-59-3-15-10-27-19-37-21-24-36-52-51-80-4-6-6-13-9-20"/>
  <path stroke="#F9FAFC" stroke-linecap="round" stroke-linejoin="round" stroke-miterlimit="10" stroke-width="6" d="M-1244 232c23 0 44-8 62-23l28-32c6-9 7-20 8-31l2-52c2-27 21-46 47-51l39-9c19-6 31-21 43-36l35-46c25-29 58-42 94-50 17-4 34-9 48-21 12-9 19-21 26-34l12-27c8-17 17-20 35-12 26 12 49 28 71 46s45 34 70 48c15 8 30 16 44 26 24 14 25 25 13 51a97 97 0 0 1-69 58c-34 8-67 18-101 28-16 5-30 12-43 23-16 13-32 28-47 43-14 14-17 31-13 49 6 26 13 51 29 72 4 5 8 11 13 14 12 10 21 10 34 1 13-8 24-18 36-25 22-15 46-22 71-27 11-2 21-4 30-8 14-6 26-17 33-31l15-28c12-20 29-26 52-23 20 3 39 8 57 17 15 8 28 18 39 30 13 13 28 24 46 28 16 4 32 0 48-3 23-5 47-11 71-9 27 2 53 4 78 13 13 6 23 16 30 27l46 70c11 18 25 27 47 27 24-1 48 0 72 1h5c22 1 30 11 25 33l-13 49c-8 30-8 60-5 90 6 53-3 103-33 148a76 76 0 0 1-63 35c-37 2-72-2-106-11-29-8-58-10-88-9-23 1-43-9-59-25l-59-59c-19-18-40-30-63-41-33-15-69-22-103-32-16-4-29-12-38-27l-21-36c-23-39-56-63-101-69-16-2-32-2-47-5-9-1-17-5-25-7l-19-7c-21-7-41 0-60 8-33 15-62 38-90 60-13 9-27 17-45 16-15-1-27-8-38-18-21-19-41-40-61-61-13-12-27-24-43-31-14-7-29-10-44-12-20-1-39 1-59 2M988 1528c11-21 29-34 49-44l57-27c31-13 49-36 61-66 9-20 18-41 39-52 13-7 28-10 42-14 22-5 43-11 59-29 17-19 27-42 28-67 2-21 0-42-4-62-2-8-1-16-2-24 0-15-6-20-21-17-25 5-48 14-71 23l-80 34c-23 8-43 4-58-16-5-7-9-16-12-24-12-33-13-67-11-101 0-15 2-30 1-44-1-21-13-38-25-53-11-15-25-28-31-46-5-15-11-29-13-44-3-19-4-38-3-58 1-35 14-65 44-86l33-28c17-12 37-18 56-26 17-7 34-15 46-30 24-33 14-83-27-96-27-9-50-6-71 14l-6 5c-21 20-36 7-42-14-4-14-5-28-8-42-3-18-10-34-19-50-6-12-11-26-13-39-1-10 2-21 6-30 15-33 30-66 51-97 14-20 34-34 55-47 27-15 51-35 75-55 17-13 21-30 14-49l-20-58c-10-29-10-59-6-89 3-16 6-32 7-49 1-21-5-40-12-60l-8-21c-9-25-28-39-53-45-37-8-69-28-98-51-22-18-44-38-67-55-18-15-39-24-62-26-16-1-33-1-49-3-14-1-28-1-39-11a62 62 0 0 1-22-47c-1-16 4-31 9-47 6-21 6-43 6-65"/>
  <path stroke="#F9FAFC" stroke-linecap="round" stroke-linejoin="round" stroke-miterlimit="10" stroke-width="6" d="M-254 1508c-4-19-9-39-7-59l6-32 27-90c5-17 14-32 26-44 19-19 27-43 31-69 4-28 22-41 47-48 12-3 25-7 36-13 19-9 28-27 34-47 9-32 21-63 40-91 16-22 23-47 21-74l-5-45c-3-17 9-37 26-42l46-10 61-19c21-6 43-8 65-2 12 3 18 11 19 23l6 31c7 36 42 59 75 62 27 2 48-10 69-23 33-21 69-36 105-48 31-10 52-29 57-61 3-18-1-34-25-32l-44 4c-15 2-30 0-44-4-22-6-43-13-62-25a78 78 0 0 1-31-40c-6-18-13-37-21-54-14-27-38-46-64-61l-89-47c-8-4-20 0-25 8a490 490 0 0 0-42 103c-4 15-3 31-4 47-2 18-6 35-19 48a343 343 0 0 1-68 54c-20 12-41 15-62 2-16-10-32-20-49-26-31-12-63-23-95-32-17-5-34-1-52 3-32 7-64 12-96 21-20 5-38 14-56 22-20 9-38 22-61 23-12 1-25-2-37-4-6-1-12-5-16 0-4 6 1 12 4 17 23 39 58 65 96 87 20 11 40 22 62 26 27 4 40 4 54-21 5-8 12-15 19-22 8-7 32-5 40 2 17 14 17 28 1 43-6 6-12 11-20 16-13 7-20 18-23 33-5 33-20 62-37 90a254 254 0 0 0-36 120c-1 14-8 26-17 36l-73 82c-11 12-25 21-36 32l-40 46c-7 9-9 20-7 32l7 58 1 10M-41-159c3-14 15-21 25-29l70-56a859 859 0 0 0 138-144c21-29 48-28 71-9 11 9 20 21 30 31l21 17c20 15 39 13 57-4l43-43c13-12 28-21 46-24 21-4 41 10 50 25 11 22 9 44-2 65-16 31-35 60-60 85a96 96 0 0 0-29 75c0 19 3 38 2 56 0 19-3 37-5 56-4 23 2 39 24 46l25 11c34 14 58 38 71 73 6 17 5 30-6 44a76 76 0 0 1-38 27c-20 7-37-2-52-16-22-21-39-47-48-76-8-25-22-44-46-55-20-10-39-22-58-33-27-15-56-23-86-30L88-92c-28-7-56-18-84-28-13-4-26-11-36-22-4-4-6-10-9-16M948 104c-4 3-9 5-11 9-12 18-13 39 1 57 7 9 15 18 24 26 17 18 21 38 17 62a110 110 0 0 1-46 76c-23 13-40 4-52-15-13-20-18-41-19-64l1-47c2-29-6-53-32-69-22-15-44-30-65-47-16-12-29-26-42-41-11-13-23-24-37-35-12-9-24-17-35-28a63 63 0 0 1-19-46c-1-21 10-38 30-48 28-15 50-35 63-66 3-8 9-16 15-24 10-12 25-17 40-19 22-5 43-12 63-23 30-17 58-11 85 6 21 13 40 28 56 46 18 20 42 34 65 49 24 16 35 39 35 69 1 20-6 39-9 59-4 22-5 45-3 67 3 24 3 47 3 71 0 19-14 35-33 40-12 3-20-5-29-11-4-2-7-7-10-11-16-17-32-34-55-43M1488-488c5 20 11 41 23 59 15 22 36 38 62 50 19 8 39 17 53 33 26 31 51 62 71 96 8 15 12 33 15 50 4 30 18 54 36 77l37 46c15 19 19 40 12 63-5 17-18 25-33 31-23 8-47 12-71 15-27 3-51-6-74-16-25-11-49-24-74-37-22-11-39-28-44-54l-4-32c-2-16-8-31-17-44-21-28-47-48-81-56l-51-7-55-12-18-5c-24-9-23-24-13-41 9-13 20-24 31-35 12-12 25-25 32-41s12-32 15-49c5-29 9-57 20-84l2-10"/>
  <path stroke="#F9FAFC" stroke-linecap="round" stroke-linejoin="round" stroke-miterlimit="10" stroke-width="6" d="M1444-489l32 58c13 29 35 51 63 66 35 20 68 44 95 75 18 20 32 42 36 69 2 11 4 22 4 34 1 21 12 38 24 55l32 44c7 12 13 24 15 37 3 17-8 35-32 44-30 11-60 5-88-7-18-7-36-14-49-29-9-9-13-19-12-32 0-16 1-33-8-48-4-8-8-15-14-21-37-47-87-77-141-99l-28-13c-21-10-30-24-23-49 11-35 14-71 22-107 6-23 16-44 31-63 5-6 11-10 17-15M1007 651c0 16-10 28-19 40-13 18-18 38-20 60-1 23-5 45-8 68-3 24-20 35-42 41-18 5-37 10-55 12s-35-1-52-5l-45-9c-15-4-28-10-32-28-4-22-11-43-17-65-6-24-3-48 4-71 14-47 36-89 61-130 15-24 38-40 63-53 22-12 44-23 63-38 21-18 38-7 47 17 6 18 8 37 14 55 5 18 12 35 20 52 8 18 16 35 19 53M901-198c23 2 40 14 55 30l45 42 26 19c22 22 18 48-1 69-11 12-27 11-43 9-25-4-50-4-71 16-17 16-31 34-43 53-9 12-18 23-31 29-17 9-32 5-48-4s-27-22-36-36c-14-21-32-37-51-52-10-7-18-16-18-30 0-7 4-12 8-17 7-7 14-14 22-19 17-12 28-29 38-46 12-19 28-31 49-36 27-6 52-13 77-23 7-3 14-3 21-5M677 231c12 2 24 4 30 16 5 9 8 18 10 28 5 27 11 53 23 77l22 41c8 15 14 31 6 48-4 8-8 15-14 21-30 27-49 62-70 95-8 12-18 23-28 33-13 14-31 16-48 13l-57-12c-28-5-56-4-80 15l-18 19c-5 5-9 10-15 13-10 7-22 4-27-8-4-8-6-18-6-27-2-17-1-34-3-52-1-9-6-17-8-26-4-18 3-33 12-48 12-21 26-41 45-57 30-27 50-60 62-99 4-10 8-21 16-29 9-10 20-16 33-19 26-8 51-16 75-30 11-6 26-8 39-12M319 215c-5 19-14 26-29 23l-20-7c-16-8-31-17-45-27-19-13-40-20-61-26-35-10-68-24-97-46a77 77 0 0 1-32-54c-1-15 11-37 25-46 15-8 31-11 47-12 26-2 52-4 79-3 26 1 50 11 68 32 11 14 18 30 24 47 8 22 14 45 23 66 7 17 15 34 18 52"/>
  <path stroke="#F9FAFC" stroke-linecap="round" stroke-linejoin="round" stroke-miterlimit="10" stroke-width="6" d="M466 484c3-22 15-38 30-53 13-13 23-28 29-46 5-15 12-30 18-44 7-19 22-28 39-32 21-6 43-10 66-9 14 0 26 6 34 16 20 26 31 57 35 90 2 14-4 26-11 38l-50 79c-5 9-13 16-20 23-16 14-36 14-55 10l-64-14c-28-6-45-23-50-51l-1-6M1462 532c-3 17-13 31-25 43-15 15-31 30-51 38-29 11-59 18-90 15-20-3-32-17-36-36-4-14-5-28-6-43l-1-55c0-23 13-32 32-32 28 0 54 7 80 16l63 17c7 2 15 6 21 11 9 5 12 15 13 25M1518 356c-6 22-23 30-41 37-37 15-72 7-106-7a95 95 0 0 1-55-47c-8-18-11-37-5-56 5-15 15-22 29-26 17-5 34-6 52-4 17 3 33 6 49 13 21 9 39 24 53 42l19 31c3 5 3 11 5 16"/>
  <path stroke="#F9FAFC" stroke-linecap="round" stroke-linejoin="round" stroke-miterlimit="10" stroke-width="6" d="M1346 316c3-11 7-22 18-27 13-6 28-9 42-7 22 4 42 13 57 31 6 8 12 17 12 29-1 11-6 19-16 25-15 9-32 10-49 6-16-4-31-10-45-21-11-9-16-21-19-35M867 763c-6 15-19 19-35 8-9-6-17-15-21-26-3-8-1-13 3-19 5-6 11-5 17-4 15 2 31 18 34 34l2 6M1825 497c-27-6-51-19-73-35-34-25-58-56-71-97-5-19-12-38-23-54a65 65 0 0 0-48-29c-20-3-41-3-59-13-14-7-28-16-41-26-28-22-59-38-91-51-20-7-40-15-57-27-20-14-33-34-44-55-17-31-32-62-53-91a60 60 0 0 1-9-57 117 117 0 0 1 105-89c25-1 38 10 48 33 6 16 12 32 21 46 14 25 37 40 63 52 27 13 56 21 80 40l33 28c12 11 25 22 41 26 14 4 27 5 41 4 19-2 39-3 57 6 17 9 26 24 29 42 3 13 4 26 5 39 2 18 14 29 29 37 20 11 42 17 65 17 18 0 35-6 52-13 19-8 39-14 60-14 24 1 42 10 55 29 17 22 30 47 42 73 10 21 4 34-17 43-13 6-26 9-38 15-22 10-38 28-54 45-18 19-33 40-56 55-20 13-42 22-68 22l-23-1M469 188c-28-8-47-28-66-49-29-33-50-72-77-107-28-35-64-60-109-71-48-12-97-21-146-32a2001 2001 0 0 1-143-40c-27-11-52-8-78 2-19 8-37 16-56 21-31 7-61 2-89-13-15-8-24-22-27-40-5-25-4-49 5-74 8-24 26-41 49-52 16-7 32-11 49-12 22-1 41 6 59 19l54 38c25 19 52 18 80 6 20-8 38-21 55-36l82-73c21-20 39-42 51-69 7-13 13-26 24-37 13-13 30-16 46-15 17 2 32 8 48 12 7 2 14 6 21 10 23 12 36 10 55-7l26-23c20-16 43-25 70-24 20 0 39 7 54 21 26 23 44 52 50 87 3 19 1 38-7 56-11 22-22 43-30 66-6 15-8 31-13 46-4 14-10 28-16 42-11 22-21 44-20 69 0 18 5 34 18 48l40 42c20 21 34 46 49 70 6 10 11 21 12 33 1 18-7 30-20 40-15 12-32 22-48 33a70 70 0 0 1-51 13"/>
  <path stroke="#F9FAFC" stroke-linecap="round" stroke-linejoin="round" stroke-miterlimit="10" stroke-width="6" d="M1544 198c-44-13-85-36-124-61a85 85 0 0 1-40-53c-2-9-2-19-1-28 2-11 12-18 24-18 41 1 80 7 117 24 17 8 29 21 38 37 11 19 19 40 25 61 6 24-9 41-31 38h-7M1311 596c-22-5-30-32-27-53 3-15 10-28 24-32 10-2 22 1 32 2 14 2 26 9 36 19 8 9 9 25 2 35a64 64 0 0 1-55 29h-11M186 146c-12-3-25-5-37-10-16-6-29-16-38-32-13-22-2-39 16-49 17-9 35-13 54-14 30-1 60 24 64 55 1 7 3 16 1 23-5 18-21 27-43 28l-16-1"/>
  <path stroke="#F9FAFC" stroke-linecap="round" stroke-linejoin="round" stroke-miterlimit="10" stroke-width="6" d="M1276 657c-27-4-36-23-39-48-2-24-6-47-10-71-2-14-7-28-17-40a97 97 0 0 0-38-25c-27-13-52-29-74-50l-16-16a56 56 0 0 1-15-40c-1-23 7-43 21-61 25-33 84-38 113-7 15 17 25 35 36 54l27 48c9 15 25 22 40 28 28 10 57 20 86 28 16 5 33 5 49 8 13 2 26 4 38 8 15 6 24 19 26 34 3 26 1 51-17 70-13 14-28 25-43 37-24 19-51 26-80 32-29 5-57 12-86 11M189 700c-7-3-15-5-18-13s0-18 8-22c7-3 18 0 22 8 9 14 5 22-11 27"/>
  <path stroke="#F9FAFC" stroke-linecap="round" stroke-linejoin="round" stroke-miterlimit="10" stroke-width="6" d="M175 760c-38-13-57-42-57-82-1-18 4-34 15-48 14-19 36-26 58-20 35 10 60 31 74 65 12 29 2 53-22 68-20 14-43 19-67 17M849 835c-12-4-25-7-36-13-35-18-56-48-63-86-4-18 1-38 9-55 17-36 39-69 69-96 13-13 30-20 48-20 23 0 41 11 53 32 9 18 9 36-2 53-15 23-14 47-7 72 4 15 9 31 11 46 2 22-7 48-38 59-14 5-28 9-43 8M1124 871c-20-3-36-15-47-32-18-29-11-53 14-71 23-15 49-21 76-18 14 1 28 16 28 32 1 35-15 62-42 83-8 6-18 7-28 6M1446 1051l-16-3c-38-9-55-36-61-72l-7-44c-4-20-15-37-24-55-6-13-11-26-10-40 1-24 11-42 33-54 19-9 40-14 61-16 22-3 41 14 47 40 2 10 4 20 8 30 10 26 29 43 54 54 14 7 29 12 44 17 18 6 36 12 47 28 15 22 13 49-3 71a90 90 0 0 1-67 38l-54 3-51 3M1568 246c-24-6-43-20-63-32l-76-40c-28-14-57-29-74-57-16-25-27-53-32-82-5-27-6-54 5-80l7-13c8-9 20-11 30-3 10 9 19 19 27 29 23 25 52 42 84 53l57 21c17 8 32 20 42 35 21 28 43 53 71 73 20 15 22 30 11 52-12 25-34 36-60 42-9 2-18 1-28 1M1192 438c-26-3-47-15-65-34-13-13-24-27-22-48 1-20 18-38 39-37 18 0 32 9 43 21 16 17 28 37 34 59l3 16c0 12-5 22-20 24l-12-1M617 424c-12-5-21-12-27-24-9-20-5-40 22-47 20-4 43 3 45 27 3 23-15 43-39 44"/>
  <path stroke="#F9FAFC" stroke-linecap="round" stroke-linejoin="round" stroke-miterlimit="10" stroke-width="6" d="M1431 1088l-20-4c-30-8-51-26-60-56-5-19-12-38-16-57-6-27-19-52-29-77a123 123 0 0 1 19-129c14-16 33-24 51-31 20-7 40-13 61-17 26-6 47-20 65-39l32-34c20-21 32-46 40-73l27-81c10-28 22-29 47-18 24 11 42 30 59 50 16 20 28 43 34 69 7 27 3 52-11 77-18 32-48 53-81 69-33 18-68 33-104 43-22 6-34 25-27 48 4 16 17 26 31 32l37 13c40 11 67 35 80 75l27 86c3 11 0 17-11 20l-35 7-58 14-26 4c-33 1-67 0-100 7-10 2-21 1-31 2M1174 1091c-28-9-34-29-35-52v-44c1-28-8-52-27-72-20-20-41-40-56-64a95 95 0 0 1-15-65c2-12 8-22 16-30 20-22 46-33 73-42 17-6 33-12 52-12 27 0 39 17 46 37 7 24 3 48-3 72-6 21-13 41-18 62-5 24-2 47 13 68 9 12 18 25 25 38 15 26 17 48 3 68-18 23-42 39-74 36"/>
  <path stroke="#F9FAFC" stroke-linecap="round" stroke-linejoin="round" stroke-miterlimit="10" stroke-width="6" d="M1719 1134l-57-12-77-7-46-5c-24-2-48 4-72 7-26 5-51 3-77 1-14-2-28-1-42-1-22-1-26-4-26-26v-15c2-47-9-92-30-134-7-15-13-32-18-48-6-19-6-39-2-58 4-21 9-41 15-62 9-36 32-59 67-69l52-15c28-7 54-18 76-37 19-17 39-32 52-54 11-17 16-36 22-55 6-23 8-46 6-70-1-19-8-37-25-50-11-8-24-10-36-8-26 3-52 8-78 5a224 224 0 0 1-111-46c-22-22-31-49-37-77-5-19-6-39-5-58 0-15 9-24 24-23a481 481 0 0 1 160 33c19 10 35 23 50 38 25 25 53 46 84 62 16 8 26 21 35 36 16 28 37 52 61 74 34 32 66 67 90 108l21 35c8 15 9 31 2 46-13 30-31 58-54 82-15 16-35 24-55 34-18 9-37 18-53 33-17 18-15 30-2 45l40 54c10 15 18 32 28 48 9 14 18 28 29 41 19 23 30 48 31 78 1 9 4 18 3 26 0 11-1 21-3 31-2 8-11 13-19 13h-22"/>
  <path stroke="#F9FAFC" stroke-linecap="round" stroke-linejoin="round" stroke-miterlimit="10" stroke-width="6" d="M1147 1136c-30-10-43-32-46-61-2-23 0-47 1-71 0-19-5-37-15-53-15-22-31-43-45-66-17-27-28-56-25-89 2-18 8-33 20-47 25-26 56-41 88-55 17-8 35-14 51-22 17-8 29-21 32-40 6-32 7-64-8-95-6-13-16-23-29-30l-70-37c-21-12-40-27-56-46a64 64 0 0 1-13-57c5-27 15-54 33-76 23-28 53-44 88-48 41-5 67 11 85 48l24 54c16 39 45 62 84 75l60 19c8 2 17 3 26 3l56 3c21 1 34 14 41 33s6 38 3 58c-4 20-9 39-22 55-34 39-74 66-126 76-29 6-57 14-85 23-16 5-30 15-34 33-2 6-3 13-3 20 0 31-7 61-14 90-6 26-9 52-2 78 5 17 13 34 22 49 15 27 24 54 21 85-3 19-13 33-27 45-24 18-49 33-78 42-12 4-24 5-37 4M907 400c-36-14-54-43-67-77-6-17-8-35-10-54-2-23-3-46-11-68-6-17-14-33-27-46l-42-38-38-37c-20-23-43-41-68-59-27-19-39-48-45-80-4-19-3-38 7-56 9-17 25-24 40-32 21-11 35-26 32-51l-9-30c-6-16-12-32-10-49 2-23 9-45 21-64 8-12 18-13 27-3 10 10 18 23 26 35l11 16c15 18 34 24 60 16l36-11c28-9 53-3 77 13 21 14 42 31 63 48 21 16 40 37 64 50l34 19c25 14 36 38 43 64 7 23 3 46 0 70l-5 39-1 39 4 41c3 25 5 50-6 74-8 20-23 34-41 45-34 19-56 49-72 84-9 21-22 40-37 58l-34 36c-5 6-13 9-21 8"/>
</svg>
