<svg xmlns="http://www.w3.org/2000/svg" width="3608" height="2032" fill="none">
  <path stroke="#F9FAFC" stroke-linecap="round" stroke-linejoin="round" stroke-miterlimit="10" stroke-width="6" d="M3605 968l-71-47c-26-15-54-27-83-34-21-4-40 3-58 13l-26 16c-10 5-20 7-31 4-12-3-26-4-38 1-9 4-17 10-20 20-3 9-2 14 6 19l12 8c18 8 27 22 31 40l13 59 17 48c4 12 4 25 2 37-4 22-20 36-39 47-27 16-56 30-81 50l-65 51-30 21c-20 14-24 29-20 45 5 19 19 28 41 31 18 2 36 2 52 12 19 11 32 26 30 50-1 8-4 17-9 24-16 23-25 49-30 77-3 23-18 38-41 44-19 6-39 9-59 6-31-6-47-28-54-57l-10-49c-3-23-15-42-30-59-16-18-30-37-41-58-8-14-15-30-15-47s8-28 22-36c19-11 40-16 62-23 14-4 29-8 44-14 16-6 24-20 26-37 3-30 11-59 29-84 9-13 18-27 25-41l21-45 2-6c3-21-6-32-28-33-20 0-38 4-58 6-21 2-43 1-62-15l-64-55c-22-19-42-39-57-63-7-11-11-22-17-33-9-16-17-33-32-44-12-9-25-14-39-18-27-6-49-20-70-36-21-17-41-34-66-43-22-9-44-18-67-24-38-10-67-30-87-64a239 239 0 0 0-72-81 67 67 0 0 1-28-58c0-23 6-45 12-66 3-12 5-23 10-34 6-16 18-27 34-33 26-10 52-22 78-31 14-4 30-7 45-7 29-1 54 18 61 47 5 21 9 41 19 61 10 19 24 34 43 44l78 38c19 10 38 23 57 34 20 10 41 10 62 7 22-2 45-6 67 0 31 7 46 30 53 59 4 16 9 33 15 48 7 19 23 26 42 27 23 3 46-5 69-10 23-4 46-8 69-6 34 2 58 16 73 47 10 20 21 40 37 56 17 16 37 29 61 33 15 2 29-2 42-8l57-25 65-32 13-7M1748 3c23 29 43 60 60 91 9 16 18 31 22 48 5 18 5 36-2 53-6 16-14 33-19 50-7 20-14 41-19 61-6 23-12 45-24 65-19 32-15 61 7 89l60 84 28 33c17 17 30 38 38 61 5 16 16 27 34 31 15 3 30 7 44 16 17 11 28 27 31 47 4 21 0 41-1 61s4 40 15 58c12 18 25 36 35 55 14 27 9 45-9 64l-26 24c-25 24-41 53-56 83-11 21-22 43-37 62a44 44 0 0 1-43 15l-66-20c-35-10-59 4-77 27-10 13-19 26-33 36-18 13-48 10-64-5-15-15-24-32-31-51-7-23-20-44-37-61l-15-18c-17-22-10-54 13-71 28-22 55-43 79-69 12-13 26-23 39-36 22-21 35-47 37-78 0-11 1-23-1-34-2-16-12-27-26-35-21-14-43-29-60-49l-57-74c-16-23-31-47-48-70-20-28-48-44-81-52-28-6-56-10-85-15l-66-11-57-8c-31-3-62-5-92-15-25-7-49-3-74 4-24 7-48 15-73 21-15 4-32 4-47 7-19 4-39 9-57 15-34 13-67 26-103 31l-48 8c-15 3-25 12-33 24-7 11-5 26 4 36 10 12 24 19 37 27 18 9 36 17 51 31l28 24c12 12 27 19 44 20 12 0 25-4 38-6l65-5c25-1 50-2 74-5 20-2 41-5 59 9 5 5 12 10 15 17 14 23 35 35 59 45 15 7 31 14 47 19 23 7 46 5 69 0 18-3 37-8 55-2 27 9 42 29 53 53 4 10 5 20-3 29-4 4-8 8-13 10l-48 21a98 98 0 0 0-60 76c-4 23-1 45 2 68 5 38 2 76-12 112l-25 56c-12 24-30 40-59 40s-58 1-87-1c-21-1-41-8-62-11-17-4-35-5-53-2-15 3-30 4-45 4s-29-3-44-4c-16-1-32-3-48-2-22 2-44 3-66 0l-44-5-7-1c-23-10-26-20-13-46 7-13 14-25 17-39 4-22-8-37-24-43-20-8-40-6-59 2-18 7-34 17-52 25-12 4-24 8-37 10-29 3-56-3-83-14-11-4-15-11-15-22l-4-34c-4-21-16-37-31-51l-21-21c-9-11-19-20-33-26-17-7-33-1-47 9s-26 23-38 35c-27 31-57 34-91 5l-55-53c-15-14-30-26-50-32-20-7-38-3-54 10l-38 34-16 9"/>
  <path stroke="#F9FAFC" stroke-linecap="round" stroke-linejoin="round" stroke-miterlimit="10" stroke-width="6" d="M3 1738c41-1 77-16 108-42 20-17 38-37 57-55l76-66c12-10 23-20 33-32 14-17 12-37 3-56-5-12-10-24-13-36-3-18 6-33 17-45 22-25 47-43 79-51 24-5 46 2 66 14 13 8 25 19 39 27 15 9 32 15 50 7 19-7 33-20 37-42 2-12-4-23-9-34-7-16-15-31-21-48-9-27-9-55-3-83 5-20 20-31 39-35 20-4 40-6 61-8 6 0 13 1 19 3 8 1 13 7 15 15l8 33c6 31 26 46 55 52l70 15c22 5 44 3 65-3l51-13 21-3c22-2 45-3 67-8 25-5 49-3 73 4 28 8 56 12 85 14 16 1 32 6 48 7 41 4 79-8 95-55 8-24 13-49 20-73 5-18 11-35 14-53 3-17 3-33 2-51-2-25-7-51 1-77 5-16 16-28 32-37 19-12 41-16 63-20 26-4 54-5 79-14 9-3 17-7 24-11 19-12 17-33 5-48-10-13-23-22-38-29-25-12-45-29-64-49a87 87 0 0 0-35-25c-17-6-34-11-52-15-25-6-52-7-76-17-21-8-34-24-38-45-7-28-12-55-17-83-4-16-3-32 9-46 10-11 23-16 37-19 19-5 39-5 60-3 17 3 34 3 51 5 31 2 62 2 92 12 30 9 52 28 68 55l54 90 40 64c8 11 18 21 28 31s22 18 28 32c10 24-1 49-19 62l-42 27c-11 7-21 15-31 24-17 14-34 28-49 44-12 13-22 28-32 43l-17 32c-8 16-4 30 8 41 16 15 33 31 51 45 20 15 32 36 42 58 10 25 24 49 47 65 31 22 73 24 102-7l31-34c15-18 42-23 66-11 19 10 38 22 56 33 15 10 25 6 36-4 10-9 15-21 21-33l50-104c14-30 36-54 63-73 11-9 22-18 31-29 14-16 14-34 5-52l-26-43c-11-17-22-35-27-55-2-8-2-16-3-25-1-21 0-44-3-65-5-32-24-57-50-76l-44-34-24-25c-14-13-28-27-43-38-30-21-48-50-62-82l-12-28c-12-25-8-50 3-75 11-21 22-42 31-64 5-12 8-26 11-40l14-67c4-20 7-40 3-60-3-14-11-26-20-36-21-24-37-52-53-79l-9-20"/>
  <path stroke="#F9FAFC" stroke-linecap="round" stroke-linejoin="round" stroke-miterlimit="10" stroke-width="6" d="M3 768c24 0 45-9 62-25 10-9 19-20 27-31 6-9 7-20 8-31l2-53c1-27 20-46 46-51l38-10c19-7 31-21 42-37l35-46c24-30 57-43 93-52 17-4 34-9 48-21 12-10 18-22 25-35l11-27c9-17 18-20 35-13 26 12 50 28 72 46 22 17 46 33 71 46 15 7 30 16 45 25 23 14 25 25 13 51a97 97 0 0 1-68 59c-33 8-67 20-100 30-16 5-31 13-43 23l-46 44c-14 14-16 32-12 50 6 25 13 50 30 71l13 14c12 9 21 9 34 0l35-26c22-14 46-22 71-27 11-2 21-4 30-9 14-7 26-17 32-31l15-29c11-20 28-26 51-24a155 155 0 0 1 98 45c13 14 27 24 46 28 16 3 32 0 48-4 23-5 47-11 71-10 26 2 53 3 78 12 13 5 23 15 31 27l46 69c12 18 26 27 48 26 24-2 48-1 72-1h4c23 1 31 11 27 33-4 17-10 33-13 50-7 30-7 60-3 90 6 53-2 103-31 148a76 76 0 0 1-63 36c-36 3-71-1-106-9-29-7-58-9-87-8-24 1-44-8-60-24l-61-58c-18-17-40-29-63-39-33-16-69-22-103-31-16-4-30-12-39-26l-22-36c-23-39-56-62-102-67-15-2-31-2-47-5-8-1-17-4-25-7l-19-6c-21-7-41 0-60 9-33 16-61 39-89 61-13 10-26 18-44 17-16 0-28-8-38-17-22-19-42-40-63-60a129 129 0 0 0-88-42c-19-1-39 2-58 3M2256 2027c11-20 28-33 48-44l57-28c31-13 48-37 60-67 9-20 18-41 38-53 13-7 28-10 42-14 22-6 43-12 58-30 17-20 26-42 27-68 1-21-1-41-5-62-2-7-2-15-2-23-1-16-6-20-22-17-24 5-47 14-70 24l-80 35c-22 9-43 5-58-15-5-7-9-15-12-23-13-33-14-67-13-102v-44c-1-20-13-37-26-52-11-15-25-28-31-45-6-15-12-29-14-45-3-18-4-38-4-57 0-35 13-65 43-87l33-28c16-13 36-19 55-27 17-8 34-15 45-31 24-33 13-83-28-95-27-9-50-6-71 15l-6 5c-20 20-36 7-42-14-4-13-6-28-9-42-3-17-10-34-19-50-7-11-12-25-14-38-1-9 2-21 5-30 15-34 30-67 50-97 14-21 33-36 54-48 27-16 51-36 75-57 16-14 20-30 13-49l-21-58c-11-29-12-59-8-89 2-16 5-32 6-49 1-20-6-40-12-60l-9-20c-9-26-29-39-54-44-37-9-69-27-98-50l-68-54c-19-14-40-23-63-25l-49-2c-13-1-28-1-39-11a62 62 0 0 1-23-46c-1-16 4-32 8-47 6-22 5-44 5-66"/>
  <path stroke="#F9FAFC" stroke-linecap="round" stroke-linejoin="round" stroke-miterlimit="10" stroke-width="6" d="M1014 2028c-4-19-10-39-8-59 1-10 2-21 5-32l26-91c5-16 13-31 25-44 19-19 27-44 30-69 4-29 21-42 46-49l36-13c19-10 27-29 33-48 9-33 20-64 39-92 15-22 22-47 19-74l-5-45c-3-18 8-37 25-42 15-5 31-7 46-12l61-19c21-7 43-9 65-3 11 3 18 10 19 22l7 31c7 36 42 59 76 61 26 1 48-11 68-24 33-22 68-37 105-50 30-10 51-29 56-62 2-17-3-34-26-32l-45 5c-14 2-29 0-43-3-22-5-43-12-63-24-14-10-24-23-31-40-7-18-13-36-22-53-15-27-38-46-65-60-29-16-60-30-90-45-8-4-20-1-25 8l-20 41c-8 20-15 41-20 63-4 15-2 31-3 46-2 18-5 36-18 49a342 342 0 0 1-68 54c-20 13-40 16-62 4-16-10-32-19-49-26-31-11-63-21-95-30-17-4-35-1-52 4-32 8-65 14-96 23-19 5-38 14-56 23-19 9-38 23-60 24-12 0-25-2-37-4-6 0-12-5-16 1-4 5 1 11 4 16 24 39 59 64 98 86 19 11 40 21 62 25 27 4 40 3 54-22 4-9 11-16 18-22 8-7 32-6 40 1 17 14 18 27 2 43-6 6-12 12-20 16-13 8-20 19-22 34-5 32-19 62-36 90a254 254 0 0 0-34 121c-1 14-8 26-16 36-24 28-47 56-72 83-11 12-25 21-36 33l-39 46c-7 9-8 21-6 33l7 57 2 10"/>
  <path stroke="#F9FAFC" stroke-linecap="round" stroke-linejoin="round" stroke-miterlimit="10" stroke-width="6" d="M1111 2028l-11-45c-11-37-9-74 7-109 4-11 12-20 17-30 8-12 16-23 22-36 12-30 32-53 59-68 29-17 51-41 70-67l40-59 30-50c12-20 29-35 51-44 15-7 32-9 48-4 18 6 37 12 54 21 31 16 64 20 98 17 20-1 37-12 53-22 22-13 44-24 70-25l102-3c13 0 27 3 40 6 16 3 32 5 49 5l47 2c19 2 28 15 22 33l-19 60c-7 18-18 32-33 44-20 15-42 28-65 37-38 16-74 13-107-13a94 94 0 0 0-60-18c-7 0-15 1-20 5-10 6-14 17-12 27l14 51c3 9 9 17 11 25 5 23-2 37-27 40l-32-2c-23-2-45 4-63 20-23 19-44 39-69 55-27 17-54 32-84 44-19 9-39 17-56 30a88 88 0 0 0-30 51l-4 22"/>
  <path stroke="#F9FAFC" stroke-linecap="round" stroke-linejoin="round" stroke-miterlimit="10" stroke-width="6" d="M1048 2028l-8-35c-6-18-5-36-2-54 8-31 14-62 29-91 7-12 16-24 25-35 13-19 21-40 30-62 7-18 20-31 37-40l34-18c19-10 30-27 37-47 14-35 31-67 52-98 12-17 22-35 27-56 3-13 3-28 3-42-1-23 9-36 30-45 20-8 41-13 63-12 16 1 27 11 36 24 22 30 50 50 85 62 37 13 72 7 104-16l41-28c26-16 55-17 85-10 18 4 36 11 55 13 20 2 41 0 62-1l27-3 100-16c17-2 34-6 51-6 15 1 31 6 47 9l40 12c14 5 17 8 17 23l-4 40-6 48c-3 24-14 45-29 63l-43 51c-12 16-18 35-21 54-2 9-3 17-6 25-9 23-20 25-40 17-16-6-31-13-47-17-18-5-35-3-53 1-30 7-57 18-84 32a63 63 0 0 0-33 45l-7 27c-9 25-31 34-54 39-25 5-50 8-74 11-24 4-47 10-70 18l-89 29c-26 9-52 17-78 28a82 82 0 0 0-50 59l-1 2M1200 358c3-14 15-22 25-30l68-56a854 854 0 0 0 136-148c20-29 48-28 72-9 11 9 20 20 30 30l20 17c21 15 41 13 58-5 14-14 27-30 42-44 13-12 27-21 46-25 20-4 41 10 50 25 12 22 10 44-1 65-15 31-34 61-58 86a96 96 0 0 0-29 75c1 19 4 38 4 57 0 18-2 37-5 55-3 23 3 39 26 46l24 10c34 14 59 37 73 72 6 17 5 31-5 45a76 76 0 0 1-38 27c-20 7-37-1-52-15-23-21-40-46-50-75-9-25-23-44-47-55-20-9-39-21-58-32-27-14-57-22-87-29-38-8-76-14-114-23-29-6-56-16-84-26-14-4-27-10-37-21-4-5-6-11-9-16"/>
  <path stroke="#F9FAFC" stroke-linecap="round" stroke-linejoin="round" stroke-miterlimit="10" stroke-width="6" d="M1388 2028c4-6 6-13 11-18 13-19 32-27 53-33 22-7 44-7 66-6 24 2 45-6 65-19 27-16 55-27 87-30l49-3c11-1 22-3 33-2 20 0 39 2 58 3 29 2 40-17 41-40l-2-41c-2-32 16-45 38-54 34-13 65-5 93 14l17 12c19 12 39 14 59 6 17-7 26-23 29-41l8-54c2-25 16-45 33-62 22-24 45-46 70-65 14-12 20-29 26-46 3-9 7-18 12-26 4-8 12-13 21-11 9 1 15 9 17 17 5 22 4 43 2 65-2 24-8 48-3 73 4 17 12 32 23 46 22 28 46 53 76 72 21 12 30 37 25 61-3 15-6 29-14 43-12 20-30 33-49 45l-63 39c-20 13-36 29-45 52l-3 3M2193 605c-4 3-9 5-11 8-11 19-12 40 2 57 7 10 16 18 24 27 18 17 22 37 18 61a110 110 0 0 1-44 76c-23 14-40 6-53-13-12-20-18-41-19-64v-47c2-29-7-53-33-69-23-14-45-29-66-45-16-12-30-26-43-40-11-13-24-25-37-35-13-9-25-17-36-27a63 63 0 0 1-20-46c0-22 10-38 29-49 29-15 51-35 62-66 4-9 10-17 15-25 10-12 25-17 40-20 22-5 43-12 62-24 30-17 58-12 86 5 21 12 40 27 56 45 19 20 43 33 66 48 24 16 36 39 37 68 0 21-6 40-9 59-4 23-4 45-1 68 2 23 4 47 4 70 0 20-14 35-33 41-12 3-20-4-29-10l-10-11c-17-17-33-34-56-42M3 1780l33 6c17 5 32 5 44-12 15-21 36-36 56-51 25-17 46-37 67-59 23-24 47-45 75-64 23-14 45-30 68-45 6-4 13-8 18-13 18-15 37-18 59-12 32 8 63 21 86 46 12 15 22 32 32 49 16 31 39 54 70 70 12 7 23 15 33 24 13 11 19 26 20 43 3 23 4 47 4 70 0 11-1 22-5 32-5 19-22 26-39 30-22 5-45 8-67 11-17 2-33 2-50 2l-85 2-36 2c-24 0-48-5-69-16-52-28-109-43-165-59-22-7-45-15-67-24-12-5-21-5-29 4-15 16-34 27-53 38M2723 4c5 20 12 41 24 58 16 23 37 38 63 49 19 9 40 17 54 33 26 30 52 61 72 95 8 15 13 33 16 50 5 29 19 53 37 76l38 46c15 18 20 39 13 62-5 17-17 26-32 31-23 9-47 13-72 17-26 4-50-5-74-15l-74-35c-23-12-40-28-45-54l-5-32c-1-16-8-31-17-44-21-28-48-47-82-54-17-4-34-4-51-7l-55-11-19-5c-23-8-23-24-13-40 8-13 19-24 30-36 12-12 25-25 31-41 7-16 12-33 15-50 4-29 8-57 19-84l2-10M4 1705l27-4c20-3 38-11 54-24 32-24 46-59 54-96 4-20 12-39 24-56 19-27 35-55 47-87 10-26 29-47 50-65 15-13 31-25 47-36 24-17 51-25 80-29 18-2 37-3 52-15a162 162 0 0 0 40-113l-2-63c0-8-4-14-12-16-8-1-16-4-24-4-27-1-55-3-82-2-22 1-41 10-58 23-24 18-49 33-79 37-16 3-32 3-47 3-21 0-42 1-63 6-29 7-49 24-60 52-4 10-10 19-15 29-8 12-19 20-33 24"/>
  <path stroke="#F9FAFC" stroke-linecap="round" stroke-linejoin="round" stroke-miterlimit="10" stroke-width="6" d="M1080 2028c-5-20-11-40-14-61-2-13-1-27 1-41 3-24 9-48 23-69l28-45 25-46c9-18 24-29 40-39 14-9 28-17 41-27 15-13 24-30 34-47l40-68c12-20 24-40 38-59 11-15 24-29 37-43 14-13 33-13 51-10 25 4 47 16 69 27 24 11 48 20 74 19 22-1 42-7 60-18l50-31c9-4 19-6 28-7 22-3 42 4 63 6l29 3h101c18-1 37-5 56-7l44-4c10-1 21-1 31 1 21 2 35 16 44 34 10 19 16 40 10 61-3 16-12 28-25 38-18 15-34 31-45 52-13 25-36 37-63 44-24 6-48 15-71 24a425 425 0 0 1-108 30c-9 3-16 9-19 19l-10 44c-8 25-26 38-51 43-17 3-35 4-52 2-27-3-51 6-73 21-28 18-58 31-89 45-24 12-49 21-74 33-24 11-43 27-51 54-3 7-4 15-6 22M2679 3c11 20 23 39 33 59 14 29 36 49 64 64 36 19 69 43 97 73 18 20 32 42 37 69l5 34c1 21 11 38 24 54l33 44c7 12 13 24 16 37 3 17-8 35-32 44-30 12-59 6-88-5-18-7-36-14-50-29-8-9-12-19-12-31 0-17 0-33-9-49-4-7-8-14-14-20-38-46-88-76-143-97l-28-12c-21-10-31-24-23-49 10-35 13-71 20-107 5-24 15-45 30-64l16-15"/>
  <path stroke="#F9FAFC" stroke-linecap="round" stroke-linejoin="round" stroke-miterlimit="10" stroke-width="6" d="M1295 2028c6-28 9-56 29-80 12-13 28-21 44-27 38-16 76-33 109-58 23-16 43-36 59-58 13-18 28-34 45-47 13-9 23-20 24-36 0-10-3-20-6-30l-13-45c-8-33-29-51-61-61-17-6-34-15-50-23-15-7-29-14-46-14-24-1-43 10-57 29-13 17-22 36-35 53-16 23-35 45-52 68-21 29-51 47-79 69-13 10-24 22-32 38l-37 75a96 96 0 0 0-11 66l19 80M1233 4c7 26 26 41 48 54 10 5 21 10 27 20 10 15 11 30 0 43-6 8-13 14-20 19-23 16-44 34-60 57-8 12-18 21-32 25-17 5-32-2-45-10-11-7-20-15-30-23a91 91 0 0 0-58-20c-25 0-48 6-73 11-27 5-54 8-80 0-10-2-20-7-30-12l-22-9c-8-2-16 1-21 10-6 9-11 19-16 30a69 69 0 0 1-49 41c-21 4-39-2-57-12-16-8-31-20-48-26-20-8-41-12-61-18-25-6-49-12-70-26-18-12-22-31-19-50 5-28 19-54 32-79l13-26M2304 2028c15-14 35-19 54-25 33-10 56-32 72-61 7-13 12-27 18-40 14-29 36-47 68-53l37-10c23-9 35-30 46-51 8-18 15-38 18-58l5-37c3-27 20-45 49-47 27-2 54-2 81-7 21-3 42-4 63 4 15 7 26 19 35 32 13 18 25 38 38 58 12 19 16 41 19 63 4 25 2 49-3 74-9 34-22 66-53 87-10 6-23 10-35 14-15 6-30 9-44 18a88 88 0 0 0-33 39M741 1832c-22-5-35-19-37-43l-4-44c-3-23-16-40-37-51l-44-26c-22-14-36-33-44-57-9-32-21-64-29-96-6-24 6-38 21-48l23-13c14-7 25-18 34-31 10-12 23-20 38-20 11 0 23 2 33 6 37 16 74 32 110 51 29 15 57 32 84 52 24 18 28 37 19 69l-14 33-33 80c-9 22-21 42-33 62l-31 44a84 84 0 0 1-55 32M3604 697l-56 28a344 344 0 0 1-112 32c-35 0-64-34-59-68 2-13 9-24 16-35l11-17c5-14 0-27-12-37-9-6-27-7-36 0l-27 24c-12 9-26 12-40 14a691 691 0 0 1-139 13c-17 0-31-8-39-26-11-25-14-51-7-78 5-17 16-28 30-37 22-13 46-22 71-25 14-2 28 0 42 0 13-1 27 0 35-13 4-5 7-11 8-17 2-20-1-39-4-58-4-19-6-39-9-59-4-25 3-49 5-74 3-23 4-47 4-71 0-28 8-53 18-78 11-26 31-44 57-55 27-12 49-31 64-56M3 718l33-19c20-12 27-33 32-55 4-18 6-36 14-53 10-22 27-36 47-47 19-10 40-18 56-32 9-8 18-15 25-25 29-37 67-61 111-76 19-6 37-12 52-26 20-18 25-46 7-71-13-19-33-27-54-32a278 278 0 0 0-118 4c-19 6-38 11-58 11-20 1-39-16-43-37l-5-56c-2-21-3-42-2-64 2-28 4-57 15-84 7-15 19-28 29-42l7-11M4 1325c28-9 56-20 76-43 9-9 16-20 22-32 12-21 31-31 54-31 10-1 20 0 30 2a131 131 0 0 0 104-36l38-32c16-13 34-20 55-19 24 1 45 22 47 47 4 44-31 80-74 90-24 6-48 12-68 29l-38 34-33 29c-18 16-29 37-37 58-13 31-30 59-52 84-26 27-40 59-45 96-3 22-12 42-31 55-9 6-20 8-30 9H3"/>
  <path stroke="#F9FAFC" stroke-linecap="round" stroke-linejoin="round" stroke-miterlimit="10" stroke-width="6" d="M3357 3c-14 15-32 21-50 26-21 6-30 19-35 38l-20 89-3 27c-1 23 0 46-2 69-3 20-10 40-14 60l-10 68-3 16c-4 9-17 15-30 14l-36-2a187 187 0 0 1-129-55c-17-17-26-37-30-61-4-28-14-53-34-74-17-18-36-36-48-59-10-18-19-37-27-56-7-16-19-25-36-27l-31-5c-26-5-44-20-55-43l-12-25M1189 2028c-9-18-18-36-22-57-6-29-5-56 9-84 8-17 15-35 20-53 9-26 25-46 47-59 35-20 60-51 83-82 21-27 42-53 64-78 19-22 38-25 65-12 14 7 29 16 44 22 38 14 50 53 41 89-9 34-25 65-48 93-20 25-46 42-74 58s-58 25-87 37c-17 6-33 14-43 31l-8 17c-9 26-16 54-31 78M2261 1151c0 16-9 28-18 40-13 18-18 38-19 60-1 23-5 45-7 68-3 25-20 36-42 42-18 5-36 10-55 13-17 2-35 0-52-4-14-4-30-6-45-9s-28-9-32-27c-5-22-12-43-18-65-7-24-4-48 3-71 13-47 34-89 59-130 14-25 37-41 62-55 21-12 43-23 62-39 21-18 38-7 47 17 7 17 9 36 15 54s13 35 21 52 16 34 20 53M3 671c23-12 36-32 44-57 10-33 28-63 54-88l70-74c18-20 40-30 64-40l91-39c6-3 12-9 17-15 7-11 6-22-3-32-12-13-27-17-43-20-37-5-69 10-101 24l-38 19c-17 8-34 5-50-4-10-6-19-14-28-22-10-9-15-21-14-34l6-49 1-25 2-128c0-17-4-35-5-52L68 3M2794 2028c10-12 24-20 38-26 38-13 64-40 84-73 16-27 31-54 51-78l23-23c25-25 39-56 49-89l21-63c4-9 12-15 22-19 19-6 38-9 58-11 14-1 28-2 42-1 41 1 69 18 83 58l13 35c7 19 7 36-6 52l-39 50-49 58c-15 17-33 29-54 36-23 8-44 19-58 40-9 13-12 29-15 44l-1 9M1606 3c-25 26-54 42-90 39l-63-8c-13-2-26-3-39-1-12 1-18 12-21 23-5 15-10 30-13 45-8 31-25 56-48 76-27 21-52 44-76 68-10 10-21 18-32 25-31 19-61 15-90-4l-40-29a95 95 0 0 0-62-21c-38 1-74 11-107 29-21 12-34 30-45 50l-27 46-9 12c-8 10-18 9-28 6-13-4-25-10-39-12-13-1-24 1-35 7-13 6-24 14-36 21l-34 19c-19 9-38 5-56-3-27-11-50-28-68-52-10-13-21-25-30-39-6-9-10-20-14-30-3-11-9-21-18-28-23-22-41-48-57-75-9-16-20-28-35-38l-21-15c-7-4-11-10-14-18-2-9-1-15 6-21 12-10 26-12 40-15 22-7 46-11 64-28l28-29"/>
  <path stroke="#F9FAFC" stroke-linecap="round" stroke-linejoin="round" stroke-miterlimit="10" stroke-width="6" d="M586 3l-15 38c-6 13-14 26-18 40-9 32-1 59 35 72 17 7 36 12 54 15 27 5 53 15 78 26 9 3 19 6 29 6 18 0 29-12 34-29l11-46c7-23 18-43 41-55 15-8 28-5 39 9l14 26c10 20 21 40 44 49 15 6 30 8 45 5 27-6 53-13 79-21 29-8 57-5 84 11 7 4 16 7 25 10 10 3 19 0 26-7 15-15 16-42 4-60-14-19-31-30-56-28h-16c-33 2-64-5-95-11l-42-12c-23-6-41-18-54-38M2880 2028c39-39 68-86 102-129 11-15 25-28 39-40 19-17 28-40 35-63 7-26 13-53 26-78 18-38 77-51 111-28 16 12 23 29 28 47 7 34-5 61-26 86l-41 43a96 96 0 0 1-53 22c-18 3-35 9-47 24-14 16-27 32-30 53-2 21-2 42-2 63M2142 304c22 1 39 13 55 29l45 41 26 19c23 21 19 47 1 68-11 13-27 12-43 10-26-3-50-3-71 17-16 16-30 35-42 54-8 12-17 23-30 30-17 8-33 5-48-4-16-8-28-21-38-36-14-20-32-36-51-50-11-7-19-16-19-30 1-7 4-12 8-17l22-20c17-12 27-29 37-46 11-19 28-32 49-37 26-6 52-14 76-24 7-3 14-4 22-5M3178 3c2 27 9 52 18 76 9 22 15 44 14 67l-1 62c0 16-2 33-5 49-7 36-31 58-66 67-13 4-27 7-40 8-32 4-49-17-50-49-1-23-7-44-24-60l-28-21c-17-13-35-25-47-43a96 96 0 0 1-14-86c7-21 23-34 42-45l33-25M3604 1170l-20 43c-9 16-25 24-39 34-37 28-68 61-93 100-8 13-13 29-17 44-6 20-12 39-22 57-7 14-18 25-30 34-13 10-26 7-38-1-17-10-30-24-43-38l-43-52-25-27c-15-18-16-32-1-57s38-43 63-57c18-11 37-20 54-31 30-19 48-45 47-82-1-19-3-37-6-55-6-41 7-76 33-106 7-9 15-18 27-23 20-9 38-7 56 1 22 9 40 26 55 44l43 51M1924 736c12 2 24 4 31 15 4 9 8 19 10 28 5 27 11 53 24 77l23 41c8 15 14 30 7 47-4 8-8 16-15 22-29 27-47 62-68 96-8 12-18 23-27 33-13 15-31 17-48 14-19-2-38-9-57-11-28-4-56-3-80 16-7 6-12 14-18 20l-14 13c-10 7-23 4-28-7-3-9-5-18-6-28l-4-51c-1-9-5-18-8-26-4-18 3-34 11-48 12-21 26-42 44-58 30-28 49-61 61-100 3-11 7-21 15-30 9-10 20-16 32-20 26-7 51-16 75-30 11-7 26-9 39-13"/>
  <path stroke="#F9FAFC" stroke-linecap="round" stroke-linejoin="round" stroke-miterlimit="10" stroke-width="6" d="M1280 4c9 14 24 21 38 29 10 7 20 13 27 24 13 20 11 40 3 61-9 22-26 37-45 51-19 13-36 28-51 46-11 12-22 24-37 33-25 13-48 9-70-5-18-11-35-25-53-38-11-7-23-10-36-11-33-3-63 6-95 12l-65 12c-14 3-27 10-37 21-13 13-26 26-43 33-14 7-30 10-45 10h-39c-9 0-17-1-26-3-10-2-18-8-24-17a98 98 0 0 0-56-44l-46-11-64-14c-28-7-43-28-46-56-2-13 3-27 10-39l24-43 30-52M2559 3c-1 6-4 12-4 18-2 10-1 20-2 29-2 18-3 36-7 54-8 30-30 48-58 60l-27 10c-17 6-28 19-35 35-8 17-16 33-35 41-6 3-12 5-19 6-55 7-104-7-145-45-16-15-30-31-47-44-20-16-43-23-67-30-13-3-25-7-37-12-23-10-28-27-26-48 3-22 8-44 13-65l3-9M1565 726c-4 19-12 26-28 23-7-1-14-3-20-6-16-9-31-17-45-27-19-12-40-19-61-25-36-9-69-23-99-44a77 77 0 0 1-32-53c-2-16 10-37 25-47 14-9 30-12 46-13 26-3 52-4 78-4 27 1 51 10 69 31 11 13 19 30 25 47 8 22 15 44 24 65 7 17 15 34 18 52M1717 992c3-21 15-38 29-53 13-14 23-29 29-47l17-44c6-18 21-28 38-33 21-6 43-10 66-10 14 1 26 6 34 16 21 26 33 57 37 90 2 13-4 26-10 37l-49 81c-5 8-13 16-20 22-16 15-35 15-55 12l-64-13c-28-6-45-23-51-51l-1-6M1964 2028l-16-22-23-24c-10-9-14-20-14-33l-2-59c0-8 2-17 4-25 4-15 18-22 33-17 11 4 21 8 30 13 19 10 38 9 58 7l33-9c29-7 43-28 49-57 4-22 8-44 15-64 9-25 30-38 55-43 11-2 22 4 31 11 13 9 26 19 38 31a1864 1864 0 0 1 83 90c17 25 10 45-7 66-18 22-42 38-67 51-15 8-30 17-42 27a81 81 0 0 0-30 57M3605 653l-78 40c-11 5-23 9-35 9-17 0-34-6-31-27l8-47c2-10 3-20 2-31-1-15-13-24-24-32-25-20-53-36-75-60-14-15-22-34-25-54-2-10-3-20-2-29 2-23 11-29 29-31 24-3 49 0 72-8 13-4 26-9 37-16 22-13 42-19 67-8 17 7 36 11 54 17M3605 314c-19 2-37 4-55 8-20 4-36-2-51-14s-30-25-49-27c-17-1-33 0-50 1-11 1-23 5-34 7-12 2-23-4-28-15-4-12-8-24-10-36-3-21-6-41-5-62 0-28 9-54 34-72 15-11 32-16 51-17 16 0 32 1 48 4 15 3 27 1 38-9 16-14 35-21 54-29l57-23M247 2028c-11-27-33-46-50-69l-8-12c-10-21-2-32 18-37 19-5 37-1 54 5 28 9 55 19 84 23a577 577 0 0 0 84 7l71-2 19 2 61-6c20-1 39 1 56 14 20 17 36 38 48 61l5 14M3563 2028c-9-24-25-44-40-64-22-29-36-60-43-95-1-11-5-21-12-29-13-14-29-16-46-19-21-4-42-6-61-20l-8-6c-8-9-6-19 4-26 13-9 28-14 43-18l21-5c13-5 25 0 37 5l24 12c17 9 35 10 53 4l69-23M967 981c-14-1-26-6-36-15-31-30-57-64-78-102-19-36-5-68 32-83 26-10 54-14 82-11 28 4 51 17 65 44 15 29 14 59 12 90s-21 50-43 67c-9 7-21 9-33 11M2714 1024c-3 17-12 31-24 44-15 15-31 30-51 39-29 11-58 18-89 16-21-2-33-16-37-35-4-14-6-29-7-43-2-19-2-37-2-55-1-23 13-32 32-33 28-1 54 7 80 15l63 16c8 2 15 6 22 10 9 6 11 16 13 25M3605 1703l-40-2c-32-5-41-22-44-49-3-28-11-54-27-77-13-19-25-39-29-63-4-16-5-33-2-50l2-30c0-36 12-68 36-95l29-31c18-17 39-25 63-26h12M2767 848c-6 21-23 30-41 37-36 15-71 9-106-5-23-9-44-23-55-46-8-18-12-37-6-57 4-15 15-22 28-26 17-5 34-6 52-4 17 2 34 5 50 12 21 9 39 23 53 41l20 30 5 17M786 2028c6-10 15-17 26-22 14-7 16-15 13-31l-9-39c-4-14 1-28 7-40 14-25 30-48 50-69 19-20 41-25 67-13 12 5 25 11 36 19 19 14 23 31 16 57-4 15-10 29-17 43-7 16-9 33-10 49v46M3284 2028c-6-16-17-26-31-33l-23-14c-11-6-14-16-12-29 4-24 18-43 32-62l23-25c18-20 39-26 64-20 23 7 46 14 67 27 19 12 28 31 35 51l21 60c3 15 3 30 5 45M2676 2027c10-25 21-48 44-64 14-11 31-14 48-18l46-11c26-7 45-32 45-61 0-30-7-58-19-84-5-11-12-21-20-30l-52-53c-14-13-31-16-48-18h-30c-17 2-27 13-32 29l-27 77-19 54c-4 10-9 18-21 20l-22 4c-15 1-29 1-44 4-24 5-43 18-54 42l-30 62c-8 17-18 32-26 48M3 1386l28-19c29-24 61-41 98-49l18-2c9 1 17 5 17 18 0 20-5 40-10 59-6 24-15 47-31 66-12 15-26 29-40 42-19 16-33 34-44 55-7 12-12 25-19 36-4 6-11 9-17 14M51 1028c4-23 15-42 34-56 20-16 37-11 54 0 21 14 35 34 50 54l24 33 6 8c2 8 2 15-8 17-11 3-22 6-33 7l-46 2c-34-1-59-17-76-46-3-5-3-12-5-18"/>
  <path stroke="#F9FAFC" stroke-linecap="round" stroke-linejoin="round" stroke-miterlimit="10" stroke-width="6" d="M814 3c-24 37-47 75-61 117-5 14-13 28-30 31-6 2-12 2-17 1-28-4-55-7-83-13-16-3-31-11-38-29-5-11-5-22-2-32l14-34 17-40M632 2028c-10-16-22-30-42-31-10-1-20-1-28 2-22 6-42 2-61-7-23-9-45-13-69-15l-48-6h-67c-12 1-24 13-24 30v27M3605 1655c-20-6-30-21-37-39-10-28-24-54-41-78-12-20-17-41-19-63l-2-42c-2-44 39-90 79-93l20-3M1590 2028c1-27 13-49 37-63 16-10 34-15 53-17 41-4 79 7 114 26 18 9 36 13 56 14 8 0 16 1 23 3 15 3 22 14 25 28l1 9M2813 1854c-2 10-2 21-10 29-12 13-37 19-57 12-25-10-45-27-59-50-17-27 0-55 28-63 23-6 46-4 67 10 18 12 27 29 30 51l1 10M3221 527c14 1 28 4 40 12 28 18 27 55-4 70-25 12-51 16-78 11-26-5-36-29-25-53 12-26 33-36 59-39l7-2M3605 601c-18-1-27-12-33-27-6-14-12-26-22-37a77 77 0 0 0-37-20c-9-3-19-5-27-9-21-11-31-30-9-55 13-14 30-25 49-32 20-8 40-7 61-3l18 3M2594 810c3-11 7-21 18-27 13-6 27-9 42-7 22 3 42 12 57 30 7 8 12 17 12 28s-5 19-15 25c-15 9-31 10-48 7-17-4-32-10-46-20-12-9-17-21-20-35M3 623c13-9 21-23 29-36l46-84c8-15 15-30 18-47 5-22 0-41-12-57a64 64 0 0 0-71-27l-10 3M2362 3l-3 8c-2 21-13 33-33 39-19 7-38 9-57 11-15 1-30 4-46 3-27-1-54-5-80-15-27-9-50-23-68-46M2118 2025c-19-10-39-14-60-18-22-6-39-18-45-42-3-14 3-28 16-36 25-17 50-8 63 14l33 61c5 11 2 17-6 21M2452 2028l18-44c7-17 13-34 22-50 10-18 26-29 47-30 12-1 25 1 36 8 23 14 42 32 53 57 7 19 9 38 5 58M443 1713c-3 16-11 26-27 29-9 1-18 0-27-2-19-4-38-10-51-25-15-17-16-30 0-47 28-28 74-23 95 16l10 28M1750 1575c3-14 14-20 26-23 30-9 51 4 64 26l15 27c5 11 5 21-3 30-8 8-25 11-34 5a628 628 0 0 1-58-46c-5-5-7-12-11-18M3605 269h-37c-27-1-46-15-63-34-5-6-8-15-12-22-4-9-2-17 3-25l23-29 26-30c16-18 36-29 59-35M3 292c26-20 36-49 42-79 6-27 7-53 6-80-2-39-15-74-48-98M968 922c-31-6-50-43-46-70 2-12 9-19 23-20 18-1 44 12 51 27 14 29 4 55-27 63M1069 1380c-20-3-40-8-59-18-8-4-15-9-21-15-4-4-3-10 0-15 12-15 39-23 59-13 14 7 28 13 36 27l5 12c2 13-2 18-19 22M2509 72c-1 14-5 27-18 34-13 8-26 6-38-2-10-7-15-21-12-33 4-18 12-33 24-47l8-7c7-4 13-4 19 3 9 12 14 26 16 41l1 10M1978 4l-9 39c-6 18-18 33-35 43-10 6-20 8-32 4-38-14-66-39-82-76l-4-11"/>
  <path stroke="#F9FAFC" stroke-linecap="round" stroke-linejoin="round" stroke-miterlimit="10" stroke-width="6" d="M2493 2028c5-20 7-42 16-60 17-36 47-31 69-6 16 19 22 42 22 66M727 3c1 13 4 26 3 38-3 24-10 49-33 62a62 62 0 0 1-61 1c-12-5-16-19-12-33l16-40 13-27M3605 1570c-14-19-28-38-40-59-13-24-19-51-2-77 10-14 25-19 42-22M3 578c19-24 34-50 41-79 4-14 5-29 2-43-5-21-21-31-43-31M1635 2028c0-25 18-44 43-48 32-5 58 6 81 26 7 6 12 15 18 22M3605 871c-20 4-38-1-55-11-19-12-16-29-2-40 18-13 38-23 57-34M2123 1264c-6 16-19 20-35 10-9-7-17-15-22-26-2-8-1-13 3-19 5-6 11-5 17-5 15 2 31 18 35 34l2 6M3088 2028c7-9 12-19 22-26 19-13 39-13 60-6 11 3 13 14 15 24v8M1945 4c-8 23-26 34-48 35-15 1-30-6-40-19l-11-17M3 221c15-27 18-56 12-85-2-9-8-16-12-24M337 2028c4-13 14-21 27-22 28-3 54 0 75 22M2902 431c-12 0-19-7-24-16-2-5-1-11 3-16 4-4 9-5 15-4 8 3 14 7 18 15 6 12 3 18-11 22M1103 3c-12 9-25 12-40 13-22 0-43-2-63-13M578 1225c3-6 5-12 13-12s12 6 14 12c2 5 2 11 1 17s-10 9-15 5c-7-6-11-13-13-21M1420 2028c20-26 61-31 84 0M71 2028c10-16 22-27 43-25 16 1 27 12 36 24l1 1M2248 3c-16 16-35 18-56 12-8-3-17-4-23-12M73 1431c-9-4-11-8-7-17 4-8 9-15 18-17 7-2 12 3 11 11-1 13-10 19-21 23M390 3c-15 5-30 4-45 0M3605 1861l-14-7c-11-8-15-29-7-41 5-8 14-14 21-21M1531 3l-19 3-19-3M652 328c-3 8-9 11-17 10-2 0-4-2-5-4l1-6c5-6 14-6 20-1M1110 1571l4-2c4-4 4-9 0-13-4-3-8 0-10 3-3 5-2 9 4 11l1 1M3392 2028c-8-5-17-6-26 0M3076 984c-27-6-51-19-73-35-34-24-59-55-72-95-6-19-13-38-24-54a65 65 0 0 0-49-28c-20-3-41-2-59-12-15-7-29-15-42-25-28-22-59-37-92-49-19-8-40-15-57-27-20-14-33-33-45-54-17-31-33-62-55-90a60 60 0 0 1-9-58 117 117 0 0 1 103-90c25-2 39 9 48 32 7 16 13 32 22 46 15 25 39 40 65 51 27 12 56 20 80 38l33 28c13 11 26 21 42 26 14 3 27 4 41 2 19-1 39-3 57 6 17 9 26 24 30 42l6 38c2 18 14 29 29 37 20 11 42 16 65 16 19-1 35-7 52-14 19-8 39-15 60-15 23 0 42 9 55 28 17 22 31 47 43 72 10 21 5 34-16 44-13 6-26 9-38 15-22 11-37 29-53 46-18 19-33 41-55 56-20 14-42 23-67 23h-24M1716 697c-29-8-48-28-67-49-30-33-51-71-79-105-29-35-65-59-110-69l-147-31a2004 2004 0 0 1-143-37c-27-10-53-7-78 4-19 7-37 16-56 21-31 8-61 3-89-11-15-8-25-22-28-39-5-25-5-50 4-75 8-24 25-41 48-52 16-8 32-12 49-13 22-2 42 5 59 18l55 37c26 18 52 17 80 5 20-9 38-23 54-38l81-74c21-20 38-43 51-69 6-14 12-27 23-38 13-13 29-17 46-15 16 1 32 6 48 11 7 2 14 5 20 9 23 12 37 10 56-8l25-23c20-16 43-26 69-26 21 1 39 8 55 20 27 23 45 52 51 88 4 18 2 37-6 55l-29 67c-5 15-7 31-12 46-4 14-9 28-16 42-10 22-19 44-18 69 1 18 6 35 19 48l41 41c20 21 35 45 50 70 6 10 11 20 12 33 2 17-6 30-19 40-15 12-32 22-48 34a70 70 0 0 1-50 14"/>
  <path stroke="#F9FAFC" stroke-linecap="round" stroke-linejoin="round" stroke-miterlimit="10" stroke-width="6" d="M2791 689c-45-13-86-34-126-59a85 85 0 0 1-41-52c-2-9-2-19-1-28 2-11 12-18 24-18 41 0 80 5 118 21 17 8 29 21 38 37 11 19 20 39 26 61 6 23-9 40-31 38h-6M2564 1091c-23-5-31-32-28-53 3-15 9-28 23-32 10-3 22 0 33 2 14 2 26 8 36 18 8 8 10 25 3 35a64 64 0 0 1-55 30h-11M1432 659c-12-3-25-5-37-9-17-6-30-16-39-32-13-21-2-39 15-49 17-9 35-13 54-15 30-2 60 23 65 54 1 7 3 16 1 23-4 18-20 28-42 28h-16"/>
  <path stroke="#F9FAFC" stroke-linecap="round" stroke-linejoin="round" stroke-miterlimit="10" stroke-width="6" d="M2530 1153c-27-5-36-24-39-48-4-24-7-47-12-70-2-15-8-29-17-41a97 97 0 0 0-39-24c-28-12-53-29-75-49l-16-16a56 56 0 0 1-16-39c-1-23 6-43 20-61 25-34 84-40 113-9 15 16 26 35 37 53l28 48c9 14 25 21 40 26 28 11 58 20 87 28 16 4 32 4 49 7 13 2 26 3 38 8 15 5 24 17 26 33 4 25 2 50-16 70-13 14-27 26-42 38-23 19-51 27-80 33-28 6-56 13-85 13M1145 1157l-27-8c-30-12-32-26-29-50l5-30c2-18-8-50-30-57-14-4-27 0-39 4-17 6-34 13-53 13-24 1-44-8-62-21-11-7-20-15-30-23l-11-8c-13-7-21-6-33 3-8 7-15 14-24 20a83 83 0 0 1-58 9l-28-5c-26-7-43-25-55-47l-19-43c-7-18-21-30-38-39l-40-25c-11-7-19-17-18-30 0-6 2-13 6-17 8-10 19-16 32-18 22-3 45-6 67-7 17-2 26-12 31-27l13-35c11-28 46-29 64-16 14 9 25 21 37 33 16 14 34 22 55 20 17-2 35-5 52-9 24-6 48-10 72-8 30 3 57 14 75 42 15 24 23 51 23 80 1 13 4 27 7 40 4 15 18 22 34 17 15-4 28-11 43-16 14-6 28-8 43-7 13 1 24 12 27 26l2 21v98c-1 27-4 54-18 78-10 18-22 36-44 40-10 3-21 1-31 2M954 650l-32-6c-23-3-33-26-29-45 4-24 18-41 38-55 23-16 49-25 76-33l52-16c31-8 58-1 81 22 10 9 20 17 25 31 6 19-3 46-21 60-16 12-34 15-53 17-19 3-37 6-55 12-15 6-32 8-48 11-11 2-22 1-33 2M359 627c-32-6-52-27-69-52-10-16-8-34-2-50 9-27 26-46 55-53l22-4c14-1 28 0 42-2 23-3 42-14 54-36l9-12c14-17 28-21 47-11 24 12 44 30 60 52 11 15 4 26-8 31l-22 9c-19 7-36 19-51 34l-66 63c-20 19-42 32-70 31M2744 625c-14-3-26-9-35-20-6-8-2-19 7-22 15-5 38 5 44 20 5 12-1 22-15 22M3482 1179c-15-3-16-16-17-26-2-17-1-35 0-52 0-6 3-12 6-18 5-7 13-9 22-4 29 14 42 53 15 84-7 8-15 14-25 16M248 884c-28-7-42-26-48-53-1-8-1-17 1-24 11-34 31-59 67-68 25-5 54 0 67 30 6 13 5 28-1 41-9 25-25 46-47 62-11 9-24 13-38 12M1443 1213c-7-3-14-5-17-13-4-8 0-18 7-22s18 0 23 8c8 13 5 21-12 27"/>
  <path stroke="#F9FAFC" stroke-linecap="round" stroke-linejoin="round" stroke-miterlimit="10" stroke-width="6" d="M1430 1273c-37-12-57-41-58-81 0-18 4-34 15-48 14-19 35-27 57-21 35 9 61 30 76 64 12 29 2 52-21 68-21 14-43 20-68 18M2106 1337c-12-4-25-6-36-12-36-18-57-47-65-85-4-19 1-38 8-55 17-37 39-70 68-98 13-12 30-20 47-20 23-1 42 10 54 31 10 18 9 36-1 53-15 23-13 47-6 72 5 15 10 31 11 46 3 22-5 48-36 59-14 5-28 10-43 9M374 562c-9-3-14-8-15-17-1-8 2-13 8-16 5-3 17-1 22 4 5 4 8 9 5 16-3 8-4 12-17 13h-2M2382 1369c-21-3-37-15-48-31-19-29-12-54 13-72 23-15 48-21 75-19 15 1 29 16 29 32 1 34-14 62-41 83-8 6-18 7-27 7M1615 1373c-11-4-12-8-7-18 5-13 24-24 36-17 4 2 10 6 11 9 1 4-3 11-6 14-9 8-21 12-33 12M3350 1416c-36-8-56-34-72-64-10-18-7-35 5-50 11-13 24-24 40-32l51-25c27-17 44-42 49-73 4-19 5-38 3-57-2-18-2-38 2-56 5-29 22-51 52-59 15-4 28 4 37 15 19 24 34 51 45 79 11 25 4 49-6 72-11 23-25 43-43 60l-68 64c-15 15-27 32-34 52-5 16-10 31-17 46-8 18-23 27-43 28M1460 419l-43-7-85-16c-20-4-39-13-54-28-10-11-10-21-4-33 3-7 8-12 13-17l45-44 67-72c13-13 27-27 43-37 18-12 27-17 50 0 22 16 40 34 48 61 5 16 3 32-3 49-7 20-15 41-15 63 0 17-2 33-3 49-2 21-14 32-35 32h-23M742 971c-20-5-33-15-38-36-5-23 5-42 28-48 8-1 16-3 24-2 21 2 32 13 32 35 0 11-3 24-8 34-8 14-22 19-37 17M2723 1500l-29-9c-13-5-19-16-21-29-2-11-1-22 0-33 1-24 1-47-14-68l-7-12c-3-8-1-17 5-21 5-3 18 0 22 6 4 5 8 10 10 16 9 20 23 32 42 42l62 36 18 14c16 15 10 32-2 43a69 69 0 0 1-44 15h-41M1021 387c-26-7-45-30-45-58 0-36 29-57 65-49 23 5 40 19 54 37 10 13 10 27-2 38-20 19-41 34-71 32"/>
  <path stroke="#F9FAFC" stroke-linecap="round" stroke-linejoin="round" stroke-miterlimit="10" stroke-width="6" d="M1421 380c-14-3-28-5-41-9-10-3-20-8-29-13-11-7-14-20-8-32 16-33 36-63 62-89 14-14 31-24 52-25 21 0 34 16 35 35 1 18-2 35-4 53-1 12-2 25-5 37-8 28-15 43-53 43h-8M2707 1543l-16-3c-39-8-57-34-63-70l-8-44c-4-20-15-37-24-55-7-12-12-25-11-40 1-24 11-42 32-54 19-10 40-14 60-17 23-3 42 13 48 39 3 10 5 21 9 30 10 25 29 43 54 54l45 16c18 5 36 11 47 27 16 22 14 49-1 71a90 90 0 0 1-66 39l-55 3-51 4M472 678c-12 17-5 33 7 42 13 9 37 0 53-8 17-7 32-10 45-22 10-8 13-19 8-29-4-8-12-12-21-14-16-4-31-3-47 1-18 5-32 13-45 30zM2815 736c-24-4-43-19-64-31l-75-38c-29-14-58-28-76-56-16-25-27-52-33-81-6-27-7-54 4-80 1-5 3-9 6-13 8-10 21-12 30-4l28 28c23 26 52 41 85 52l57 21c17 7 32 19 43 33 21 28 44 53 72 73 20 14 22 29 12 51-12 25-34 37-60 43-9 2-18 2-28 2M3071 948c-18-4-36-8-52-18-35-20-56-49-61-89-2-17-6-35-7-52-1-25 7-44 38-45 23-2 45 6 67 11l81 22c9 2 18 5 25 9 22 11 27 31 29 52 1 37-16 65-42 89-23 19-49 23-77 21M2838 325c-21-4-37-17-53-31-19-17-40-31-63-43-21-12-43-24-60-42a68 68 0 0 1-19-65l5-28c6-19 18-24 34-11 29 23 62 39 94 56 10 6 19 13 27 21 19 18 41 34 56 57 16 23 17 50 1 75-6 8-12 11-21 11M3112 1571c-24-9-34-28-35-52-1-18 0-36 1-54 2-19 9-24 28-23 14 1 28 4 42 7 27 6 37 20 31 49-3 15-7 29-12 43-4 13-13 22-24 27-9 3-20 2-30 3M2442 935c-26-3-47-15-65-33-13-13-24-27-23-48 1-19 17-38 38-38 19 1 33 9 44 21 16 17 29 36 35 59l3 16c0 11-5 21-20 23h-11M1868 929c-13-3-22-11-28-23-9-20-6-40 21-47 20-5 43 3 46 26 2 23-15 43-38 44"/>
  <path stroke="#F9FAFC" stroke-linecap="round" stroke-linejoin="round" stroke-miterlimit="10" stroke-width="6" d="M2692 1581l-20-4c-31-7-52-25-61-55l-17-57c-6-27-20-51-30-77a123 123 0 0 1 17-129c13-15 32-24 51-31s39-14 60-19c26-6 47-20 64-39l31-35c20-21 32-46 40-73l25-82c10-28 22-29 47-19 24 11 43 30 60 49 16 20 28 43 35 69 7 27 4 52-10 77-18 33-48 53-80 71-33 18-67 33-104 44-21 7-33 25-26 49 5 15 18 25 32 31 12 5 25 8 38 12 39 11 67 35 80 74l29 86c3 10 0 17-11 20l-35 7-57 15c-9 3-17 4-26 4-34 3-68 1-101 9-10 3-20 2-31 3M389 263l-42-5-65-6-28-2-44-2c-14-1-29-2-42-7-20-7-31-25-36-44-8-29-7-58 5-85 10-23 24-45 42-64 9-10 20-19 31-29 8-8 20-11 31-15 7-3 21 4 27 14l13 31c7 19 13 38 23 56 13 22 32 38 53 52a115 115 0 0 1 56 93c1 10-3 13-13 13h-10M2434 1588c-27-8-33-29-35-51v-44c0-28-9-52-29-72-21-20-41-39-57-64a95 95 0 0 1-15-64c1-12 6-22 14-30 20-22 46-34 73-43 16-6 33-12 51-13 28-1 40 16 47 36 8 24 5 48-2 72-5 21-12 41-16 62-5 24-2 47 13 68 10 12 19 25 27 38 15 25 17 48 3 67-17 24-41 40-73 38M721 1611c-8-4-18-7-25-12-13-9-15-22-11-37 8-25 23-43 47-51 27-10 63 8 72 35 4 12 3 26-5 37a69 69 0 0 1-47 26l-30 2"/>
  <path stroke="#F9FAFC" stroke-linecap="round" stroke-linejoin="round" stroke-miterlimit="10" stroke-width="6" d="M2981 1622c-20-4-38-9-58-11-25-3-51-4-77-6l-46-4c-24-1-48 4-72 9-25 4-51 3-77 1h-42c-22 0-25-4-26-26v-15c1-47-10-91-32-133-8-15-14-31-20-48-6-19-6-39-3-58l14-62c9-36 32-59 67-70l52-16c27-8 53-18 75-38 18-17 38-33 51-55 11-17 16-36 21-55 6-23 7-47 5-70-1-20-9-37-26-50-11-8-24-10-36-8-26 4-52 10-78 7a224 224 0 0 1-112-44c-22-21-31-48-38-77-5-19-7-38-6-58 0-14 9-23 23-23a481 481 0 0 1 161 31c19 9 36 22 51 37 26 24 53 45 85 60 16 8 27 21 35 36 17 28 38 51 62 73 35 31 68 65 93 106l21 35c9 15 9 30 3 46-13 30-30 58-53 82-15 17-35 25-54 35s-38 20-53 35c-17 18-14 29-2 45 14 17 29 34 42 53l28 47c9 14 19 28 30 41 20 22 30 48 33 78 1 8 3 17 3 26 0 10 0 21-3 31-1 8-10 13-19 13h-22M289 224l-28-4c-25-3-49-10-70-24a44 44 0 0 1-16-60c8-16 19-29 35-37 19-10 34-3 44 7 11 10 20 21 30 32l37 44 3 3c4 7 9 15 5 23-4 9-14 13-24 14l-15 2"/>
  <path stroke="#F9FAFC" stroke-linecap="round" stroke-linejoin="round" stroke-miterlimit="10" stroke-width="6" d="M2408 1633c-29-9-43-31-46-60-3-23-1-47-1-71 0-19-5-37-16-53-15-21-31-42-46-65-17-26-28-56-26-89 1-17 7-33 20-47 24-27 55-42 87-57l51-22c16-9 27-22 31-41 5-32 5-64-10-94-6-14-16-24-30-30l-70-36c-22-12-40-26-57-45a64 64 0 0 1-14-56c5-28 14-55 32-77 23-28 52-45 88-50 40-5 66 10 85 47 9 18 18 35 25 53 16 39 46 62 85 74l60 18c8 2 17 3 26 3l56 2c21 1 34 13 42 32 7 19 6 38 4 58-3 20-8 39-21 55-33 40-73 68-125 79-28 6-56 15-84 24-17 5-30 15-34 33l-3 20c0 31-6 61-12 91-6 26-9 52-1 78 6 17 13 33 23 49 16 26 25 54 22 84-2 19-13 34-27 45-22 19-48 34-76 44-12 3-24 5-37 4M3395 216c-21-4-31-20-33-39-2-14 3-28 16-37 14-8 27-5 38 3 9 7 18 16 23 27 11 21 6 32-16 41-8 4-18 4-27 5M2309 213l-14-3c-26-6-44-22-57-44l-7-15c-11-24-3-37 18-42 26-8 52-10 79-5 6 1 12 1 17 3 17 6 27 18 29 36 1 17 0 33-8 48-9 15-25 20-42 22h-14M712 1643c-12-4-24-6-35-11-21-10-31-27-31-50-1-24 8-43 22-61 7-10 17-18 26-27 15-14 35-15 54-12 28 3 53 17 72 38 13 13 22 29 21 49s-10 37-25 50a99 99 0 0 1-59 22l-44 2"/>
  <path stroke="#F9FAFC" stroke-linecap="round" stroke-linejoin="round" stroke-miterlimit="10" stroke-width="6" d="M742 1682l-50-11c-29-9-57-20-72-48-5-10-9-20-11-31-4-20-4-40 4-59 4-8 8-17 14-23 16-17 31-33 48-48 12-10 27-10 42-9 21 1 41 7 60 15a198 198 0 0 1 88 67c12 13 12 30 9 46-7 33-23 62-48 85a58 58 0 0 1-40 16h-43M3069 183c-22-4-44-10-63-22-13-7-23-16-30-28-8-12-3-39 9-52l21-17 63-44c5-3 11-5 18-6 14-3 23 5 30 17 9 17 12 36 15 54 3 15 3 31 4 46 2 31-15 45-40 49l-26 3M3352 1699c-18-4-27-17-31-33-5-23 1-44 25-56 10-5 21-5 32 0 17 6 29 18 35 36 5 14-2 28-19 41a57 57 0 0 1-41 12M971 119c-5-3-11-4-14-8-7-7-3-19 7-20 9-1 18-1 26 4 9 6 10 14 0 19-5 3-12 3-18 5M993 1723l-23-5c-23-8-33-25-30-49 3-23 15-40 29-57l42-50c13-19 24-40 39-57a963 963 0 0 0 51-66c9-16 21-24 40-22 15 3 29 6 43 13 20 10 26 31 18 57l-14 50-9 51c-4 18-8 38-27 48-8 4-18 7-28 8-19 2-39 2-59 5-15 1-24 12-30 27l-7 24c-5 18-12 23-34 23M1415 1778c-17-5-31-15-42-29-11-15-6-35 9-47s31-11 47-6c6 2 12 6 17 10 20 10 22 30 12 49-8 17-22 25-42 23M2459 1783l-20-4c-17-7-22-22-15-39 12-31 37-47 68-54 15-3 30 3 40 16s13 28 6 44c-9 23-29 32-51 35-9 2-18 2-27 2M550 1821c-13-2-25-5-38-6-19-1-39 0-58-2-25-2-49-9-72-18-22-9-43-21-66-28-42-15-46-53-34-84 11-31 36-47 65-59 13-6 28-9 43-10 26 0 47 10 65 27 19 17 34 37 49 56 17 20 38 35 62 46 12 6 23 13 29 26 10 19 2 50-31 52h-13M3118 1823c-9-2-15-8-17-17-8-26-3-49 10-71 8-13 21-19 37-17 15 2 24 13 28 29 3 12 1 23-3 32-8 18-20 33-39 41-4 2-10 2-16 3M242 926c-23-5-39-21-53-38-14-18-25-38-36-58-10-18-9-36 4-53 19-23 36-47 60-65 15-12 34-17 53-19 11-1 24 0 35 1 29 4 50 21 64 46 9 16 15 34 16 52 1 20-6 37-18 51-23 27-48 52-78 71-14 8-29 13-46 12"/>
  <path stroke="#F9FAFC" stroke-linecap="round" stroke-linejoin="round" stroke-miterlimit="10" stroke-width="6" d="M500 1872l-33-4-47-6-28-2c-22 1-41-7-60-16-20-9-41-14-62-19-23-6-45-14-61-31-17-17-17-29-7-48 15-28 32-54 49-81 16-24 39-41 64-54 19-10 38-19 59-26 34-12 63-4 92 15 22 15 38 36 54 57 19 23 40 42 66 56 15 9 31 17 40 33a104 104 0 0 1 9 66c-4 32-24 48-54 54-27 6-54 6-81 6M2220 1919c-14-4-25-13-32-26-10-19-21-38-29-58-7-18-5-36 3-53 5-14 25-25 42-20 18 5 34 13 47 27 14 14 28 28 38 45 12 22 12 38-5 57a76 76 0 0 1-63 28M3056 911c-13-4-26-8-37-16a66 66 0 0 1-18-83c9-16 25-18 40-15 28 3 53 14 74 33 29 27 14 63-16 76-14 6-28 4-42 5M2157 901c-36-13-55-42-68-76-6-17-9-35-11-53-3-23-4-47-12-69-6-17-15-32-28-45s-29-24-43-37l-38-37c-20-22-44-40-69-57-28-19-40-48-47-80-3-19-3-38 7-56 9-17 24-25 39-33 21-11 35-26 31-51-1-10-5-20-9-30-6-15-13-31-11-48 2-23 8-45 20-65 8-12 18-13 27-4 10 11 18 23 27 35l11 16c15 18 34 23 60 15l36-12c27-8 53-3 77 12 22 14 42 31 63 47 22 16 41 36 65 49l35 18c25 15 36 38 44 64 7 23 4 46 1 69-2 14-4 27-4 40v39c0 14 2 27 4 41 3 25 5 49-5 74-8 20-22 35-40 45-34 21-55 51-70 86-10 21-22 40-37 58l-33 37c-6 6-13 9-21 8M2836 1198c-18-4-18-14-12-26l16-34 17-56c5-17 10-36 21-51 10-13 19-15 33-9 25 12 37 34 39 60 4 43-18 73-53 94-18 12-38 20-60 22"/>
</svg>
