<svg width="1440" height="909" viewBox="0 0 1440 909" fill="none" xmlns="http://www.w3.org/2000/svg">
  <mask id="mask0_1271_775" style="mask-type:alpha" maskUnits="userSpaceOnUse" x="-1" y="0" width="1441" height="770">
    <rect x="-0.000488281" width="1440" height="770" fill="white" />
  </mask>
  <g mask="url(#mask0_1271_775)">
    <path
      d="M62.1074 834.011C40.0184 805.034 19.8438 774.763 2.22149 742.896C-6.24248 727.62 -15.2133 712.569 -19.8112 695.209C-24.5968 677.117 -23.94 659.814 -17.5779 642.624C-11.3848 625.902 -3.87792 609.668 1.88359 592.797C8.84619 572.397 15.3209 551.753 20.6133 530.865C26.2997 508.401 32.8494 486.218 44.5038 466.306C63.102 434.496 59.2923 405.595 37.8227 376.937C17.2727 349.5 -2.03871 321.143 -22.4761 293.611C-31.0527 282.069 -40.5488 271.072 -50.608 260.787C-67.855 243.203 -79.941 222.728 -87.9921 199.663C-93.8662 182.866 -104.92 172.638 -122.674 168.453C-137.575 164.944 -152.851 161.828 -165.932 152.801C-182.973 141.034 -194.158 125.645 -197.893 104.908C-201.533 84.6767 -197.01 64.8398 -196.391 44.8153C-195.734 24.3966 -200.557 4.42839 -211.874 -13.3629C-223.566 -31.7359 -236.065 -49.7148 -246.368 -68.8385C-260.687 -95.3752 -255.207 -113.185 -237.134 -132.422C-228.971 -141.111 -219.681 -148.749 -210.973 -156.913C-186.163 -180.165 -170.661 -209.573 -155.385 -239.375C-144.387 -260.826 -133.859 -282.69 -118.17 -301.513C-108.054 -313.637 -90.3193 -320.693 -74.9303 -316.339C-52.9352 -310.128 -31.109 -303.334 -9.22653 -296.709C25.305 -286.237 49.7586 -300.256 67.6999 -323.94C77.5151 -336.889 87.0113 -349.895 100.449 -359.729C118.39 -372.885 148.98 -369.375 164.651 -354.249C179.496 -339.93 188.823 -322.927 195.129 -304.141C203.067 -280.494 215.322 -259.907 232.794 -242.209C238.237 -236.692 243.173 -230.611 247.827 -224.399C264.098 -202.723 257.905 -171.063 234.671 -153.215C207.008 -131.952 179.834 -110.258 155.737 -84.7906C143.594 -71.9538 129.2 -61.2941 116.607 -48.8702C94.9873 -27.532 81.6251 -1.89608 80.0112 28.9196C79.4106 40.4613 78.5286 52.2658 80.2551 63.5824C82.6386 79.1779 92.7728 89.8939 106.079 98.5456C127.736 112.64 149.675 126.865 166.134 147.246C185.745 171.531 204.963 196.172 223.336 221.395C240.038 244.31 255.033 268.463 271.436 291.584C291.254 319.529 319.668 335.312 352.116 342.931C380.21 349.537 408.961 353.309 437.431 358.264C459.314 362.074 481.177 366.071 503.135 369.449C522.146 372.377 541.232 374.967 560.375 376.956C591.341 380.165 622.306 382.774 652.371 391.913C677.275 399.477 702.048 395.592 726.464 388.31C750.842 381.047 775.052 373.109 799.731 367.009C814.97 363.237 831.128 363.2 846.536 359.934C865.81 355.843 885.215 351.489 903.72 344.845C937.632 332.684 971.056 319.285 1007.03 314.142C1023.02 311.853 1039.01 309.582 1054.87 306.561C1069.49 303.783 1079.94 294.531 1087.67 282.238C1094.32 271.71 1092.31 255.927 1084.02 246.581C1073.47 234.72 1060.03 226.95 1046.42 219.444C1029.07 209.872 1010.79 201.859 995.753 188.459C986.483 180.201 976.724 172.488 967.697 163.968C955.198 152.163 940.184 145.257 923.519 144.769C911.076 144.412 898.559 148.56 885.985 149.855C864.121 152.107 842.238 154.753 820.3 155.316C795.433 155.973 770.848 157.775 746.113 160.59C726.633 162.785 705.294 165.751 688.066 150.85C682.399 145.933 675.886 141.128 672.321 134.804C659.052 111.27 637.151 99.2587 613.842 89.0682C598.416 82.3308 582.876 75.6122 566.906 70.4137C544.01 62.9631 520.795 65.1776 497.505 70.0195C479.319 73.7917 460.834 77.9581 442.179 72.0652C415.586 63.6763 400.366 43.7268 389.706 19.4984C385.334 9.55183 384.133 -0.75131 392.54 -9.45926C396.369 -13.4191 400.76 -17.3978 405.658 -19.6874C421.385 -27.0441 437.544 -33.5 453.421 -40.5376C486.733 -55.3074 507.02 -80.6054 513.401 -116.526C517.454 -139.403 515.071 -162.13 511.843 -185.045C506.476 -223.086 509.947 -260.62 523.929 -296.634C531.323 -315.683 539.356 -334.562 548.364 -352.898C560.243 -377.051 578.729 -392.496 607.311 -392.421C636.4 -392.328 665.602 -393.923 694.541 -391.896C715.372 -390.432 735.847 -384.126 756.51 -380.242C773.945 -376.976 791.323 -376.15 809.096 -379.022C824.222 -381.461 839.724 -382.831 855.038 -382.719C869.432 -382.606 883.789 -379.453 898.221 -378.459C914.454 -377.333 930.894 -375.418 946.978 -376.882C969.029 -378.89 990.78 -379.322 1012.7 -376.526C1027.36 -374.649 1042.09 -373.354 1056.8 -371.759C1059 -371.515 1061.4 -371.627 1063.33 -370.764C1086.51 -360.536 1089.63 -350.721 1076.3 -324.954C1069.68 -312.136 1062.41 -299.843 1059.56 -285.449C1055.3 -264.054 1067.69 -248.233 1084 -242.209C1103.76 -234.909 1123.39 -237.105 1142.08 -244.443C1160.13 -251.518 1176.93 -261.765 1194.85 -269.215C1206.47 -274.038 1218.95 -278.13 1231.37 -279.443C1260.2 -282.484 1287.92 -276.347 1314.93 -265.931C1325.66 -261.783 1329.45 -254.896 1330.01 -244.142C1330.62 -232.544 1331.82 -220.89 1333.73 -209.442C1337.22 -188.573 1349.35 -172.696 1364.53 -158.696C1371.68 -152.108 1378.79 -145.371 1385.12 -138.014C1394.48 -127.11 1404.71 -117.314 1418.13 -111.965C1435.47 -105.059 1451.96 -111.064 1465.61 -120.73C1479.55 -130.601 1491.81 -143.288 1503.29 -156.087C1530.45 -186.396 1560.89 -189.868 1594.33 -160.46C1613.59 -143.532 1631.13 -124.689 1649.92 -107.236C1664.5 -93.6861 1679.95 -81.2248 1699.56 -75.1818C1719.66 -68.9886 1737.92 -72.2165 1753.93 -85.6538C1766.8 -96.4636 1778.81 -108.324 1791.65 -119.209C1796.28 -123.151 1802.18 -125.59 1807.49 -128.724"
      stroke="#F9FAFC" stroke-width="6" stroke-miterlimit="10" stroke-linecap="round" stroke-linejoin="round" />
    <path
      d="M1807.45 -901.01C1766.65 -899.265 1730.64 -884.42 1699.76 -858.521C1679.48 -841.5 1661.85 -821.344 1642.17 -803.571C1617.34 -781.126 1591.44 -759.844 1566.37 -737.661C1554.96 -727.564 1543.36 -717.336 1533.69 -705.644C1519.32 -688.285 1521.91 -668.973 1530.5 -649.493C1535.61 -637.933 1541.05 -626.091 1543.38 -613.817C1546.76 -596.044 1537.82 -580.637 1526.62 -568.156C1505.06 -544.153 1479.7 -525.33 1447.14 -518.104C1423.12 -512.775 1401.57 -519.174 1381.53 -531.485C1368.17 -539.687 1356.23 -550.215 1342.83 -558.341C1327.35 -567.706 1310.4 -573.261 1292.33 -565.942C1273.19 -558.191 1259.15 -545.185 1255.85 -523.791C1253.97 -511.705 1259.3 -500.782 1264.14 -490.029C1271.31 -474.077 1279.74 -458.538 1285.44 -442.079C1294.88 -414.848 1294.99 -386.622 1288.37 -358.696C1283.64 -338.803 1268.91 -327.318 1249.99 -323.377C1230 -319.21 1209.44 -317.596 1189.05 -315.738C1182.62 -315.157 1175.86 -317.015 1169.39 -318.403C1161.39 -320.111 1156.29 -325.366 1154.39 -333.342C1151.73 -344.565 1149.12 -355.806 1146.88 -367.123C1140.84 -397.751 1120.67 -412.877 1091.48 -418.789C1068.27 -423.481 1045.17 -428.717 1022.03 -433.746C999.882 -438.569 978.056 -437.105 956.323 -430.987C939.527 -426.258 922.617 -421.942 905.652 -417.888C898.933 -416.293 891.933 -415.767 885.027 -414.979C862.506 -412.408 839.686 -411.47 817.54 -407.041C792.505 -402.049 768.37 -403.306 744.292 -410.325C716.667 -418.376 688.535 -422.636 659.84 -424.588C643.794 -425.676 627.992 -430.218 611.946 -431.663C570.959 -435.341 532.937 -423.499 516.553 -376.375C508.295 -352.56 503.134 -327.674 496.566 -303.277C491.855 -285.767 485.981 -268.464 482.847 -250.673C479.92 -234.083 479.563 -217.267 480.895 -200.02C482.866 -174.572 488.064 -148.542 479.619 -123.15C474.083 -106.447 463.442 -94.2488 447.884 -85.3907C428.179 -74.1492 406.728 -69.5699 384.883 -65.9479C358.252 -61.5188 330.927 -60.787 305.179 -51.6849C297.053 -48.8135 289.039 -45.0226 281.757 -40.4246C262.634 -28.3198 264.154 -7.75103 276.146 7.20637C286.412 20.0056 299.811 29.2953 314.544 36.3142C339.316 48.1 359.998 65.0279 378.352 85.165C388.167 95.9373 399.371 105.452 413.127 110.275C430.28 116.3 447.922 121.198 465.619 125.383C490.88 131.351 517.154 132.271 541.663 142.255C562.701 150.813 575.106 166.089 579.93 187.502C586.104 214.902 591.227 242.546 596.989 270.04C600.498 286.799 599.147 302.507 587.53 316.001C577.921 327.167 564.709 332.197 550.953 335.669C531.135 340.661 511.167 340.548 490.898 337.846C473.839 335.575 456.498 335.425 439.326 333.811C408.529 330.921 377.282 331.033 347.367 321.65C317.49 312.285 295.27 293.78 279.637 266.418C262.221 235.978 243.604 206.213 225.362 176.261C212.356 154.904 199.82 133.228 185.688 112.621C177.862 101.23 167.541 91.452 157.725 81.5617C147.685 71.4463 135.543 63.245 129.687 49.545C119.272 25.129 130.813 0.318846 148.511 -12.2551C162.154 -21.939 176.793 -30.2153 190.587 -39.6927C201.246 -47.0119 211.718 -54.7439 221.534 -63.1704C238.143 -77.4709 255.146 -91.5275 270.122 -107.461C282.283 -120.41 292.305 -135.536 302.12 -150.475C308.838 -160.703 313.343 -172.358 319.273 -183.149C327.887 -198.838 323.327 -212.238 311.578 -223.385C295.195 -238.943 278.605 -254.407 260.851 -268.333C240.976 -283.947 228.44 -304.178 218.85 -326.755C208.153 -351.978 195.053 -375.418 171.857 -391.445C140.159 -413.346 98.7779 -415.617 69.6513 -384.858C58.9915 -373.598 48.8385 -361.868 38.6667 -350.157C23.1838 -332.347 -3.67197 -327.487 -27.8816 -340.079C-46.8927 -349.97 -65.0405 -361.53 -83.3196 -372.772C-98.6712 -382.23 -108.918 -379.059 -119.184 -369.112C-128.999 -359.597 -134.685 -347.755 -140.465 -336.026C-157.45 -301.494 -173.608 -266.587 -190.386 -231.962C-204.874 -202.085 -226.156 -178.082 -253.05 -158.526C-264.61 -150.118 -275.551 -140.285 -284.841 -129.437C-297.997 -114.067 -298.804 -95.8064 -289.589 -78.1465C-281.82 -63.2454 -272.567 -49.0763 -263.447 -34.9259C-252.205 -17.4912 -241.207 0.0561488 -236.459 20.5123C-234.62 28.4321 -234.02 36.7271 -233.569 44.872C-232.387 66.7545 -233.588 88.9747 -230.21 110.482C-225.143 142.78 -206.244 167.384 -180.046 186.62C-165.126 197.58 -150.149 208.559 -136.074 220.532C-127.366 227.927 -120.76 237.761 -112.334 245.549C-98.3522 258.498 -84.5207 271.879 -69.0941 282.952C-39.5359 304.196 -21.7072 333.548 -7.33154 365.771C-3.27784 374.855 0.85091 383.9 4.84831 392.984C16.1274 418.619 12.9369 443.561 1.09488 468.052C-9.18951 489.334 -20.431 510.222 -29.5331 532.011C-34.8254 544.678 -37.1149 558.697 -40.1177 572.228C-45.1097 594.693 -49.689 617.232 -54.2494 639.771C-58.1905 659.308 -61.6437 678.882 -57.1208 698.888C-53.9492 712.963 -46.461 724.88 -37.2276 735.334C-16.0958 759.299 -0.631652 786.887 15.0952 814.324C18.6985 820.611 21.4197 827.424 24.5538 833.992"
      stroke="#F9FAFC" stroke-width="6" stroke-miterlimit="10" stroke-linecap="round" stroke-linejoin="round" />
    <path
      d="M1807.45 69.2509C1783.79 69.7201 1762.99 78.3155 1745.74 93.8922C1735.46 103.182 1726.68 114.405 1718.53 125.702C1712.15 134.542 1711.23 145.689 1710.82 156.499C1710.14 174.009 1709.56 191.538 1708.92 209.047C1707.93 236.185 1688.82 254.952 1662.96 260.694C1650.09 263.566 1636.93 265.855 1624.57 270.284C1605.84 277.003 1593.47 291.717 1582.17 307.5C1571 323.114 1559.54 338.559 1547.45 353.479C1523.52 383.037 1490.36 396.231 1454.7 405.389C1437.72 409.743 1420.79 414.604 1406.6 426.521C1395.04 436.242 1388.1 448.666 1381.59 461.522C1377.16 470.248 1374.4 479.819 1370.1 488.621C1361.86 505.568 1352.76 508.589 1335.48 500.857C1309.31 489.165 1285.59 473.533 1263.26 455.779C1241.21 438.25 1218.03 422.598 1192.9 409.724C1177.59 401.88 1162.56 393.359 1147.86 384.407C1124.33 370.05 1122.79 359.053 1134.12 333.06C1147.09 303.333 1168.88 282.614 1202.14 274.357C1235.99 265.93 1269.19 254.802 1302.61 244.63C1318.55 239.769 1333.07 231.568 1345.59 220.983C1361.77 207.283 1376.67 192.044 1391.72 177.068C1405.72 163.143 1407.94 145.389 1403.71 127.467C1397.76 102.187 1390.29 77.1519 1373.89 56.1327C1369.95 51.0844 1365.75 45.9797 1360.72 42.1512C1348.93 33.1993 1339.14 33.1429 1326.19 42.1136C1314.27 50.3711 1303.35 60.0925 1291.32 68.1624C1269.73 82.6506 1245.26 90.0261 1220.11 95.5999C1209.98 97.8332 1199.43 99.8038 1190.22 104.27C1176.31 111.008 1164.98 121.292 1158.07 135.818C1153.51 145.408 1148.16 154.641 1143.13 164.006C1132.4 183.993 1115.26 190.468 1092.42 187.915C1071.85 185.626 1052.67 180.596 1034.28 171.532C1019.38 164.194 1006.68 153.966 994.853 142.461C981.753 129.719 967.209 119.096 948.892 115.287C932.677 111.909 916.819 115.606 901.054 119.003C877.502 124.088 853.949 130.319 829.739 129.005C803.484 127.579 776.947 126.153 751.893 116.957C738.606 112.077 728.828 102.225 720.946 90.7581C705.107 67.7496 689.098 44.8349 674.141 21.2634C662.918 3.58471 648.543 -5.27341 627.036 -4.22245C603.014 -3.05888 578.879 -3.95968 554.801 -3.95968C553.243 -3.95968 551.667 -3.90338 550.109 -3.95968C527.795 -4.87927 519.293 -15.0135 523.985 -36.7646C527.588 -53.5049 533.106 -69.8323 536.859 -86.5538C543.559 -116.319 543.484 -146.477 539.731 -176.599C533.125 -229.616 541.701 -279.611 570.997 -324.709C585.297 -346.723 605.472 -359.409 633.585 -361.061C669.712 -363.2 704.75 -359.953 739.676 -351.283C768.258 -344.189 797.516 -342.331 826.906 -343.682C850.515 -344.771 870.164 -335.913 886.904 -320.111C907.173 -300.968 926.841 -281.207 947.071 -262.045C965.557 -244.517 987.646 -232.919 1010.69 -222.278C1043.8 -207.001 1079.36 -200.977 1114.04 -191.612C1129.96 -187.315 1143.58 -179.714 1152.5 -165.319C1159.8 -153.496 1166.95 -141.598 1174.1 -129.662C1197.39 -90.7576 1231.06 -67.4864 1276.4 -62.194C1291.97 -60.3736 1307.74 -60.2047 1323.28 -58.1028C1331.91 -56.9393 1340.24 -53.4485 1348.63 -50.8024C1354.96 -48.8131 1361.07 -46.167 1367.42 -44.3278C1388.83 -38.1534 1408.5 -44.8532 1427.4 -53.7864C1460.3 -69.3256 1488.3 -92.2403 1516.67 -114.573C1529.47 -124.651 1542.95 -132.665 1560.72 -131.895C1576.35 -131.22 1588.46 -123.882 1598.97 -114.423C1620.32 -95.2055 1640.55 -74.7117 1661.09 -54.5746C1673.9 -42.0006 1688.13 -31.1908 1704.4 -23.9092C1718.49 -17.6034 1733.38 -13.925 1749.29 -12.8929C1768.92 -11.6355 1788.1 -14.5819 1807.49 -15.2012"
      stroke="#F9FAFC" stroke-width="6" stroke-miterlimit="10" stroke-linecap="round" stroke-linejoin="round" />
    <path
      d="M611.046 479.313C607.874 493.763 595.976 500.876 585.71 509.34C562.889 528.126 539.787 546.574 517.304 565.754C501.821 578.966 486.77 592.741 472.263 607.023C438.97 639.79 407.554 674.191 381.073 712.907C361.124 742.052 333.649 740.983 310.021 722.141C299.024 713.376 290.053 702.097 279.75 692.413C273.294 686.333 266.312 680.722 259.143 675.504C238.819 660.697 219.057 662.78 201.979 680.177C187.716 694.703 174.278 710.055 159.565 724.092C146.728 736.329 132.146 745.524 113.792 748.978C93.1293 752.862 72.2603 739.782 63.8714 724.318C52.0481 702.473 53.8497 680.403 64.303 659.665C80.0486 628.399 98.4968 598.672 123.025 573.092C142.975 552.279 152.978 527.263 151.232 498.099C150.106 479.331 147.667 460.546 147.817 441.797C147.967 423.33 149.975 404.807 152.358 386.453C155.417 363.107 149.374 346.911 126.91 340.305C118.503 337.827 110.62 333.511 102.457 330.152C68.338 316.076 43.5091 293.18 29.9029 258.011C23.5596 241.589 24.7794 227.608 34.8761 213.777C44.5412 200.564 57.2841 190.899 72.5042 185.907C92.9979 179.17 110.001 187.69 124.977 201.578C147.648 222.597 164.52 247.482 174.616 276.684C183.08 301.213 197.174 320.017 221.497 331.353C241.502 340.68 260.363 352.447 279.806 362.975C306.887 377.632 336.408 385.439 366.154 391.895C404.157 400.153 442.705 405.933 480.502 414.979C509.103 421.829 537.01 431.757 564.991 441.028C578.541 445.532 591.622 451.819 601.475 462.591C605.547 467.039 607.893 473.082 611.008 478.393"
      stroke="#F9FAFC" stroke-width="6" stroke-miterlimit="10" stroke-linecap="round" stroke-linejoin="round" />
    <path
      d="M577.265 833.542C570.621 807.306 551.723 792.029 529.465 779.493C519.537 773.9 508.859 769.265 502.121 758.999C492.437 744.248 491.687 729.216 502.403 715.929C508.183 708.779 515.446 702.529 522.953 697.143C545.511 680.909 566.155 663.099 582.294 639.997C590.102 628.831 601.024 619.728 614.799 615.337C631.915 609.876 646.215 617.007 659.765 625.828C670.219 632.64 679.902 640.673 689.886 648.217C706.833 661.016 725.112 668.392 747.126 668.317C772.237 668.223 796.071 662.048 820.299 657.544C847.193 652.552 874.123 649.268 900.96 656.869C911.001 659.721 920.403 664.807 930.106 668.861C937.613 671.995 944.969 675.598 952.664 678.113C960.959 680.834 968.804 677.625 974.058 668.767C979.745 659.158 984.437 648.949 989.185 638.815C999.3 617.176 1015.23 602.557 1038.97 597.602C1059.22 593.379 1077.69 599.741 1095.2 608.919C1111.43 617.439 1126.41 628.868 1143.32 635.512C1163.12 643.281 1184.38 647.372 1205.06 652.871C1229.1 659.271 1253.28 664.995 1274.58 679.033C1292.57 690.893 1296.57 710.205 1293.25 728.897C1288.15 757.686 1274.16 782.946 1261.33 808.638C1257.07 817.14 1252.58 825.548 1248.21 833.993"
      stroke="#F9FAFC" stroke-width="6" stroke-miterlimit="10" stroke-linecap="round" stroke-linejoin="round" />
    <path
      d="M1807.45 118.983C1796.51 125.233 1785.25 131.032 1774.66 137.844C1754.71 150.719 1747.4 171.269 1742.72 193.114C1738.86 211.168 1737.02 229.616 1728.76 246.656C1718.46 267.938 1701.94 282.539 1681.67 293.461C1662.68 303.689 1642.04 311.14 1625.47 325.497C1616.61 333.154 1607.43 340.83 1600.24 349.951C1571.12 386.922 1533.56 411 1489.38 425.957C1471.05 432.169 1452.68 438.569 1437.63 451.969C1417.38 469.985 1412.83 498.718 1430.21 523.396C1443.52 542.332 1463.86 549.971 1484.75 554.869C1501.47 558.791 1519.13 561.006 1536.25 560.424C1558.64 559.654 1581.04 557.008 1602.94 550.796C1621.58 545.504 1640.29 540.306 1660.13 540.024C1680.9 539.742 1699.8 556.032 1703.07 576.883C1706 595.481 1707.63 614.342 1708.77 633.165C1710.07 654.391 1711.57 675.767 1710.46 696.955C1708.96 725.556 1706.61 754.682 1695.22 781.182C1688.62 796.589 1676.4 809.576 1666.68 823.633C1664.26 827.124 1661.69 830.52 1659.19 833.955"
      stroke="#F9FAFC" stroke-width="6" stroke-miterlimit="10" stroke-linecap="round" stroke-linejoin="round" />
    <path
      d="M204.737 834.011C229.172 808.093 258.374 792.723 294.801 795.726C315.838 797.471 336.689 801.656 357.708 803.796C370.432 805.091 383.494 805.991 396.124 804.528C408.473 803.083 414.366 792.723 417.725 781.463C422.211 766.487 427.109 751.585 430.768 736.403C438.181 705.531 455.091 680.195 479.056 660.809C505.706 639.264 530.516 615.993 554.932 592.121C564.428 582.831 575.501 574.837 586.742 567.686C617.314 548.262 647.585 552.691 676.637 571.402C690.562 580.373 703.755 590.488 717.042 600.416C735.19 613.966 754.745 621.867 778.073 621.248C816.583 620.215 852.391 610.363 885.965 591.896C906.628 580.523 919.877 562.319 931.063 542.219C939.639 526.793 948.403 511.46 957.393 496.277C959.983 491.886 963.455 488.001 966.72 484.041C974.527 474.545 984.549 474.958 994.833 478.467C1007.5 482.784 1019.46 488.714 1033.31 489.99C1046.07 491.173 1057.93 489.371 1068.89 483.816C1081.24 477.529 1092.67 469.478 1104.68 462.496C1115.81 456.022 1126.95 449.491 1138.48 443.786C1157.38 434.458 1176.8 438.362 1194.57 445.925C1221.33 457.336 1244.49 474.451 1262.34 498.06C1272.4 511.385 1283.75 523.827 1292.97 537.696C1298.92 546.667 1302.76 557.27 1306.2 567.592C1309.9 578.665 1316.05 587.861 1324.29 595.612C1347.58 617.475 1365.78 643.168 1381.4 670.793C1390.07 686.126 1401.57 698.568 1416.17 708.308C1423.46 713.169 1430.61 718.255 1437.76 723.303C1444.08 727.789 1448.81 733.137 1451.1 741.057C1453.92 750.76 1452.88 756.502 1445.28 762.733C1433.78 772.154 1419.55 774.087 1405.87 777.822C1383.14 784.034 1359.52 788.801 1341.24 805.09C1331.37 813.892 1322.96 824.327 1313.87 834.011"
      stroke="#F9FAFC" stroke-width="6" stroke-miterlimit="10" stroke-linecap="round" stroke-linejoin="round" />
    <path
      d="M1224.73 834.011C1229.74 821.493 1234.55 808.901 1239.8 796.496C1245.53 782.946 1253.14 770.015 1257.27 756.034C1266.69 724.111 1258.27 697.443 1222.76 684.137C1205.21 677.568 1186.8 672.633 1168.39 669.142C1141.2 664 1115.88 654.034 1090.47 643.75C1081.37 640.072 1071.14 637.2 1061.48 637.35C1043.35 637.651 1032.46 649.08 1027.79 666.045C1023.58 681.247 1020.47 696.748 1016.36 711.987C1010.02 735.502 998.268 755.602 975.991 767.2C960.114 775.458 948.01 772.53 936.862 757.854C931.082 750.235 926.972 741.264 922.655 732.631C912.371 712.062 901.918 691.925 878.534 682.842C863.82 677.118 848.6 675.053 833.511 678.488C807.05 684.512 780.87 691.831 754.652 698.944C725.319 706.883 697.562 704.424 671.026 688.753C663.256 684.174 654.36 681.359 645.765 678.338C635.818 674.847 626.66 677.85 619.641 684.925C604.59 700.108 603.333 727.02 615.738 744.886C629.212 764.291 646.891 774.932 671.138 773.074C676.731 772.643 682.417 773.337 688.029 772.962C720.346 770.841 751.574 777.879 782.765 784.447C797.066 787.469 810.935 792.479 825.029 796.439C847.286 802.689 865.584 814.493 878.515 833.992"
      stroke="#F9FAFC" stroke-width="6" stroke-miterlimit="10" stroke-linecap="round" stroke-linejoin="round" />
    <path
      d="M-113.365 101.155C-125.245 99.3531 -137.669 97.4201 -144.049 85.9909C-148.873 77.3768 -152.57 67.6366 -154.39 57.934C-159.382 31.341 -165.744 5.23602 -178.225 -18.8985C-185.375 -32.6924 -194.008 -45.7168 -201.496 -59.3418C-209.734 -74.3367 -215.59 -90.1574 -207.933 -107.067C-204.423 -114.799 -199.938 -122.812 -193.858 -128.517C-164.6 -155.992 -146.151 -190.881 -125.32 -224.305C-117.719 -236.485 -107.829 -247.332 -98.2389 -258.142C-85.4585 -272.555 -67.8362 -274.263 -50.5329 -271.955C-31.2591 -269.402 -12.4919 -263.021 6.78197 -260.375C35.0077 -256.491 62.9144 -257.954 86.3733 -277.153C93.1483 -282.689 98.2342 -290.271 104.371 -296.652C108.819 -301.269 113.285 -306.036 118.484 -309.714C128.843 -317.052 141.211 -314.087 146.278 -302.207C149.881 -293.743 151.964 -284.285 152.903 -275.089C154.629 -257.973 154.235 -240.614 156.262 -223.535C157.313 -214.565 162.042 -206.101 164.295 -197.205C168.742 -179.714 161.949 -163.969 153.804 -149.518C141.811 -128.273 128.055 -107.78 109.813 -91.3585C79.467 -64.0523 60.6624 -30.2152 48.8766 8.25747C45.5361 19.1799 41.2572 29.6708 33.1498 38.4351C24.1978 48.1001 13.3692 54.3307 1.09547 57.934C-24.8032 65.4972 -49.7635 74.6932 -73.2787 88.5245C-84.8205 95.3182 -99.2711 97.1199 -112.408 101.192"
      stroke="#F9FAFC" stroke-width="6" stroke-miterlimit="10" stroke-linecap="round" stroke-linejoin="round" />
    <path
      d="M530.347 833.542C521.152 819.485 506.232 812.598 492.738 804.115C482.379 797.603 472.263 791.335 465.526 780.581C453.046 760.632 454.735 740.1 462.898 719.588C471.719 697.443 488.178 681.885 507.695 668.691C526.857 655.742 543.559 639.921 558.836 622.262C569.458 609.969 580.681 597.939 595.826 589.701C620.58 576.226 643.401 580.054 665.321 594.036C683.806 605.822 701.035 619.578 718.976 632.264C729.598 639.771 741.74 642.549 754.596 643.656C787.119 646.434 818.029 637.388 849.389 631.382C870.952 627.254 892.572 623.35 914.117 619.127C928.774 616.256 941.197 608.918 951.594 598.465C964.6 585.384 977.85 572.51 994.89 564.89C1009.06 558.566 1024.07 554.981 1039.88 555.3C1052.69 555.563 1065.53 555.019 1078.35 555.469C1087.13 555.788 1096.05 556.445 1104.58 558.359C1114.44 560.574 1122.28 566.655 1128.08 575.043C1142.29 595.593 1159.14 612.747 1184.4 619.127C1199.7 622.993 1215.01 626.841 1230.38 630.369C1251.61 635.23 1273 639.415 1294.15 644.576C1322.94 651.595 1337.22 672.238 1340.6 699.901C1342.23 713.282 1337.8 727.038 1330.78 739.256C1322.56 753.594 1314.59 768.063 1306.35 782.401C1296.42 799.648 1286.34 816.82 1276.34 834.03"
      stroke="#F9FAFC" stroke-width="6" stroke-miterlimit="10" stroke-linecap="round" stroke-linejoin="round" />
    <path
      d="M245.087 111.477C249.741 92.4655 258.018 85.2777 273.219 88.1678C280.257 89.5003 287.52 91.4332 293.788 94.7738C309.12 102.956 324.416 111.364 338.81 121.048C357.596 133.678 378.69 140.284 399.991 145.971C435.329 155.429 468.791 168.885 498.293 190.524C515.972 203.473 527.476 221.246 530.441 243.785C532.468 259.118 520.626 280.794 506.063 289.933C491.819 298.866 475.866 302.001 459.952 303.521C433.791 306.017 407.404 307.743 381.168 307.218C354.65 306.692 330.571 297.215 312.818 276.496C301.144 262.871 293.356 246.656 287.313 229.71C279.506 207.808 272.543 185.569 263.591 164.137C256.497 147.172 248.165 130.769 245.106 112.415"
      stroke="#F9FAFC" stroke-width="6" stroke-miterlimit="10" stroke-linecap="round" stroke-linejoin="round" />
    <path
      d="M93.073 -155.016C90.7084 -133.19 78.7537 -116.75 64.0966 -101.436C51.2786 -88.0364 41.4258 -72.7037 35.6643 -54.6685C30.8787 -39.6923 24.3854 -25.2791 18.9992 -10.4906C12.3181 7.82616 -2.62058 17.1159 -19.6236 21.9766C-40.8868 28.0571 -62.6567 32.4111 -85.2148 31.9795C-99.4215 31.7167 -111.545 26.612 -119.615 16.459C-140.371 -9.72113 -152.214 -40.2177 -156.399 -73.3793C-158.106 -86.9854 -152.908 -99.4092 -146.133 -110.857C-130.124 -137.901 -114.022 -164.925 -97.207 -191.481C-91.9334 -199.813 -84.8957 -207.301 -77.5765 -213.983C-61.6432 -228.565 -42.2193 -229.09 -22.3449 -225.318C-1.00663 -221.246 20.2002 -216.61 41.4822 -212.256C69.539 -206.513 86.5421 -189.754 92.1534 -161.585C92.5288 -159.727 92.7915 -157.831 93.0918 -155.955"
      stroke="#F9FAFC" stroke-width="6" stroke-miterlimit="10" stroke-linecap="round" stroke-linejoin="round" />
    <path
      d="M843.759 -143.756C857.365 -142.817 869.714 -137.9 879.266 -128.592C910.251 -98.4331 936.412 -64.2582 957.093 -26.3486C976.48 9.17762 962.63 41.4759 925.358 56.0392C899.14 66.2861 871.515 70.3773 843.796 66.9617C815.57 63.5085 792.881 50.5966 778.618 23.4594C763.285 -5.70476 764.317 -35.6571 766.438 -66.8481C768.521 -97.5886 787.082 -116.506 809.208 -133.209C818.705 -140.378 830.866 -142.986 842.801 -144.713"
      stroke="#F9FAFC" stroke-width="6" stroke-miterlimit="10" stroke-linecap="round" stroke-linejoin="round" />
    <path
      d="M996.71 834.012C1020.68 797.134 1043.48 759.694 1057.85 717.712C1062.9 702.998 1070.86 689.749 1087.75 685.902C1093.17 684.663 1099.12 684.175 1104.58 684.982C1132.15 689.017 1159.87 692.601 1187.1 698.325C1203.56 701.778 1218.31 709.661 1225.84 726.964C1230.66 738.037 1230.68 749.053 1227.3 759.806C1223.66 771.404 1218.18 782.421 1213.45 793.662C1207.86 806.968 1202.19 820.255 1196.56 833.543"
      stroke="#F9FAFC" stroke-width="6" stroke-miterlimit="10" stroke-linecap="round" stroke-linejoin="round" />
    <path
      d="M842.82 -84.6394C874.067 -79.0656 892.459 -41.3437 888.593 -14.3002C886.885 -2.32681 879.303 4.05402 865.321 5.18005C847.342 6.64389 821.763 -6.77459 814.387 -21.6569C800.105 -50.4645 811.047 -76.9261 841.881 -84.6582"
      stroke="#F9FAFC" stroke-width="6" stroke-miterlimit="10" stroke-linecap="round" stroke-linejoin="round" />
    <path
      d="M1083.98 834.011C1082.72 821.494 1079.34 808.751 1080.67 796.533C1083.38 771.892 1090.36 747.72 1113.25 733.926C1132.83 722.141 1154.47 722.722 1174.9 732.875C1186.88 738.824 1191.02 751.999 1186.11 766.412C1181.53 779.793 1175.84 792.836 1170.25 805.842C1166.21 815.225 1161.56 824.328 1157.19 833.561"
      stroke="#F9FAFC" stroke-width="6" stroke-miterlimit="10" stroke-linecap="round" stroke-linejoin="round" />
    <path
      d="M1159.05 509.34C1161.75 501.101 1167.64 497.873 1175.92 499.168C1177.64 499.431 1179.92 501.251 1180.42 502.847C1181.02 504.742 1180.78 507.782 1179.58 509.246C1174.49 515.421 1165.63 515.683 1160 510.297"
      stroke="#F9FAFC" stroke-width="6" stroke-miterlimit="10" stroke-linecap="round" stroke-linejoin="round" />
    <path
      d="M94.9493 140.566C123.55 148.111 142.768 167.91 161.854 189.117C191.337 221.884 212.788 260.469 240.601 294.307C269.315 329.232 305.929 353.498 350.257 363.632C399.089 374.799 448.447 383.77 497.504 393.979C524.473 399.59 551.46 405.22 578.165 411.939C599.354 417.269 620.692 422.861 640.942 430.875C667.929 441.553 693.264 438.588 718.994 427.797C737.255 420.14 755.402 411.62 774.432 406.515C805.098 398.277 835.257 403.25 863.37 417.569C879.04 425.545 888.123 439.583 891.558 456.811C896.55 481.771 896.231 506.563 887.88 530.941C879.397 555.714 862.413 572.379 839.123 583.602C823.583 591.09 807.331 595.313 790.272 596.589C768.352 598.221 748.946 591.128 731.155 578.816C713.026 566.28 694.803 553.894 676.749 541.244C651.057 523.266 624.333 524.542 596.97 536.59C576.458 545.617 558.91 558.979 542.508 574.068C515.446 598.935 487.558 622.938 461.096 648.424C440.415 668.335 423.28 691.231 411.044 717.599C404.832 730.98 398.752 744.399 387.942 755.415C374.824 768.777 358.534 772.193 341.794 770.673C325.635 769.19 309.72 764.085 293.937 759.713C286.75 757.723 279.993 753.895 273.256 750.479C250.116 738.712 236.866 740.439 217.874 758.024C209.429 765.85 201.453 774.257 192.445 781.37C172.195 797.322 149.599 807.231 123.1 806.931C102.494 806.687 84.1207 799.837 68.863 786.906C41.8195 764.01 23.7656 734.978 17.2534 699.808C13.7814 680.985 15.5831 662.311 23.5967 644.464C33.5057 622.356 43.9966 600.417 52.4043 577.747C57.9406 562.77 59.517 546.368 64.2088 531.016C68.5064 516.941 73.9302 503.11 80.1046 489.729C90.3327 467.546 99.6411 445.194 98.609 420.215C97.8583 402.311 92.6034 385.665 79.8981 372.415C66.4233 358.377 52.179 345.09 38.7417 330.996C18.9237 310.221 3.94752 285.88 -10.9536 261.558C-17.0904 251.536 -22.3828 241.196 -23.49 228.809C-25.0852 211.168 -17.0341 198.519 -4.34752 188.61C11.0228 176.618 27.8006 166.409 43.2647 154.51C58.5224 142.781 75.394 138.952 94.0486 140.566"
      stroke="#F9FAFC" stroke-width="6" stroke-miterlimit="10" stroke-linecap="round" stroke-linejoin="round" />
    <path
      d="M378.333 178.1C390.851 181.234 403.65 183.486 415.793 187.69C432.27 193.414 445.257 203.511 454.622 219.219C467.327 240.538 456.555 258.461 439.345 268.22C422.718 277.66 404.476 281.657 385.821 283.008C355.081 285.26 325.147 260.6 320.287 229.691C319.086 222.015 317.734 213.626 319.573 206.345C324.04 188.516 339.823 178.644 361.443 178.119C366.754 177.987 372.084 178.1 377.395 178.1"
      stroke="#F9FAFC" stroke-width="6" stroke-miterlimit="10" stroke-linecap="round" stroke-linejoin="round" />
    <path
      d="M665.471 -319.229C674.535 -316.733 683.938 -315.025 692.627 -311.572C722.204 -299.824 724.362 -285.579 721.66 -262.008C720.496 -251.911 717.08 -242.04 716.349 -231.943C714.997 -213.213 724.099 -181.76 747.07 -174.609C760.658 -170.387 773.1 -174.403 785.543 -178.532C803.053 -184.331 820.037 -191.275 839.048 -191.819C862.544 -192.494 882.438 -183.749 900.905 -170.837C911.095 -163.706 920.31 -155.242 930.106 -147.547C933.634 -144.77 937.425 -142.236 941.366 -140.04C954.428 -132.759 962.798 -133.566 974.19 -142.799C982.316 -149.386 989.917 -156.799 998.7 -162.336C1016.51 -173.54 1036.46 -174.797 1056.75 -171.813C1066.21 -170.424 1075.63 -168.529 1084.9 -166.183C1110.76 -159.652 1127.37 -141.861 1139.19 -119.265C1146.3 -105.64 1152.05 -91.2833 1158.07 -77.0953C1165.8 -58.8912 1179.65 -47.0304 1196.51 -37.5718C1210.34 -29.8022 1223.72 -21.1693 1236.85 -12.2737C1247.25 -5.23602 1255.15 4.24137 1254.5 17.6223C1254.21 23.3275 1252.36 29.9711 1248.87 34.3063C1240.68 44.4781 1229.31 50.5774 1216.29 52.2477C1194.12 55.1003 1171.92 57.8967 1149.66 59.6795C1132.42 61.0683 1123.69 70.8647 1118.64 86.1036C1114.64 98.1145 1110.27 110.032 1105.52 121.761C1094.32 149.368 1059.75 149.856 1041.09 137.357C1027.6 128.33 1016.12 116.187 1004.33 104.796C988.997 89.9884 970.718 82.613 949.849 84.546C932.189 86.1787 914.567 89.613 897.32 93.8356C873.767 99.6159 850.027 102.844 825.967 100.948C795.077 98.5087 768.427 86.9481 750.936 59.8108C735.153 35.3197 727.459 8.52028 727.083 -20.8503C726.914 -34.006 723.724 -47.2931 720.684 -60.2237C717.043 -75.6315 702.817 -82.5941 686.227 -77.7897C671.739 -73.6046 658.077 -66.6233 643.889 -61.2559C630.02 -56.0198 615.644 -53.2987 600.743 -54.6687C587.963 -55.851 576.233 -67.0175 573.643 -80.9239C572.386 -87.6801 571.785 -94.6614 571.748 -101.549C571.56 -134.391 570.922 -167.253 571.898 -200.076C572.686 -226.988 575.445 -253.844 589.483 -277.979C599.992 -296.051 611.797 -313.167 633.679 -317.99C643.588 -320.186 654.248 -318.929 664.57 -319.248"
      stroke="#F9FAFC" stroke-width="6" stroke-miterlimit="10" stroke-linecap="round" stroke-linejoin="round" />
    <path
      d="M856.895 187.483C867.536 189.36 878.139 191.406 888.799 193.076C911.976 196.717 921.604 219.294 918.02 238.173C913.384 262.608 899.346 279.818 879.472 293.612C856.257 309.714 830.152 318.647 803.409 326.417C786.124 331.427 769.177 337.771 751.743 342.143C720.889 349.894 693.114 343.757 670.181 320.692C660.872 311.328 650.175 303.07 645.708 289.783C639.102 270.096 648.373 243.729 666.334 229.634C682.173 217.211 700.921 214.283 719.895 211.956C738.474 209.685 756.585 206.326 774.451 200.076C789.727 194.728 806.111 192.156 822.213 189.585C833.286 187.802 844.696 188.121 855.957 187.483"
      stroke="#F9FAFC" stroke-width="6" stroke-miterlimit="10" stroke-linecap="round" stroke-linejoin="round" />
    <path
      d="M1451.81 210.005C1483.27 216.273 1503.48 237.348 1520.24 262.609C1530.73 278.411 1528.29 295.958 1522.79 312.173C1513.74 338.878 1496.16 358.321 1467.75 365.678C1460.41 367.573 1452.81 368.831 1445.24 369.413C1431.51 370.464 1417.6 369.788 1403.99 371.627C1380.55 374.799 1361.52 385.702 1349.48 407.041C1347.06 411.338 1344.18 415.448 1341.03 419.239C1326.94 436.186 1312.73 440.183 1293.32 430.331C1269.3 418.151 1249.15 400.547 1233.38 378.759C1222.54 363.745 1229.44 351.94 1241.6 347.023C1248.77 344.133 1255.98 341.356 1263.18 338.578C1282.8 330.996 1299.65 319.079 1314.74 304.722C1336.86 283.703 1358.35 262.008 1380.55 241.045C1400.22 222.485 1422.41 208.954 1450.86 210.005"
      stroke="#F9FAFC" stroke-width="6" stroke-miterlimit="10" stroke-linecap="round" stroke-linejoin="round" />
    <path
      d="M1436.8 275.689C1445.7 277.866 1451.03 283.083 1451.87 292.579C1452.51 299.88 1449.84 305.191 1443.37 308.513C1438.15 311.196 1426.53 309.151 1421.8 304.759C1416.87 300.18 1413.21 295.113 1416.16 287.888C1419.25 280.306 1420.6 275.933 1433.98 275.689C1434.6 275.67 1435.24 275.689 1435.86 275.689"
      stroke="#F9FAFC" stroke-width="6" stroke-miterlimit="10" stroke-linecap="round" stroke-linejoin="round" />
    <path
      d="M350.183 418.319C364.577 420.815 378.953 423.311 393.347 425.826C421.817 430.818 450.455 435.003 478.681 441.121C498.931 445.494 517.454 454.24 532.393 469.779C542.358 480.138 542.489 490.685 536.69 502.659C533.65 508.946 528.696 514.576 523.685 519.568C508.953 534.244 493.245 547.944 478.869 562.939C456.217 586.585 434.841 611.489 411.927 634.892C398.621 648.461 384.489 661.842 368.668 672.164C350.239 684.175 341.418 689.486 318.354 672.539C296.846 656.737 278.455 638.326 270.328 611.658C265.205 594.843 267.251 578.872 273.2 562.807C280.838 542.182 288.27 521.614 288.476 499.018C288.626 482.747 290.822 466.495 292.005 450.223C293.525 429.542 305.667 418.338 326.742 418.319C334.249 418.319 341.756 418.319 349.263 418.319"
      stroke="#F9FAFC" stroke-width="6" stroke-miterlimit="10" stroke-linecap="round" stroke-linejoin="round" />
    <path
      d="M789.334 450.224C815.927 456.886 834.375 480.72 834.375 508.402C834.375 544.003 805.136 565.416 769.572 557.459C746.113 552.223 729.504 538.166 715.373 520.469C705.257 507.82 705.745 493.144 717.268 482.315C737.105 463.68 758.931 448.122 788.396 450.224"
      stroke="#F9FAFC" stroke-width="6" stroke-miterlimit="10" stroke-linecap="round" stroke-linejoin="round" />
    <path
      d="M389.593 457.73C403.35 460.545 417.369 462.516 430.806 466.457C440.922 469.422 450.887 473.964 459.82 479.556C470.949 486.519 473.482 499.074 467.421 511.179C451.093 543.871 431.557 574.48 405.395 600.191C391.32 614.004 375.049 624.401 353.936 624.889C332.222 625.377 319.329 609.781 318.654 590.02C318.053 572.566 320.399 554.963 322.144 537.49C323.402 524.916 324.49 512.099 327.906 500.013C335.675 472.594 342.469 457.618 380.191 457.711C383.006 457.711 385.821 457.711 388.636 457.711"
      stroke="#F9FAFC" stroke-width="6" stroke-miterlimit="10" stroke-linecap="round" stroke-linejoin="round" />
    <path
      d="M1338.2 159.277C1350.5 142 1344 126 1331.5 117C1319 108 1295 117.5 1278.31 124.876C1261.62 132.253 1246.26 135.63 1233.12 147.078C1223.77 155.223 1220.49 165.939 1225.76 176.186C1229.97 184.387 1237.6 188.084 1246.29 190.393C1262.1 194.578 1277.54 193.545 1293.27 189.511C1312 184.687 1325.89 176.553 1338.2 159.277Z"
      stroke="#F9FAFC" stroke-width="6" stroke-miterlimit="10" stroke-linecap="round" stroke-linejoin="round" />
    <path
      d="M1421.79 574.086C1435.86 575.963 1449.9 578.196 1464.01 579.641C1485.56 581.837 1507.16 583.526 1528.76 585.327C1538.12 586.116 1547.53 586.735 1556.91 587.204C1571.6 587.936 1586.37 587.861 1600.99 589.287C1614.84 590.639 1629.26 591.483 1642.13 596.137C1662.31 603.438 1673.15 621.323 1678.5 640.822C1686.25 668.991 1685.61 697.855 1673.96 725.068C1663.84 748.677 1649.6 770.146 1631.86 788.876C1622.14 799.141 1611.2 808.225 1601.05 818.115C1592.3 826.617 1581.02 829.807 1570.01 833.466C1562.58 835.944 1548.14 829.319 1543.06 819.823C1537.65 809.745 1533.83 798.766 1529.73 788.031C1522.6 769.283 1516.69 750.216 1506.54 732.499C1493.57 709.885 1474.92 694.102 1453.76 679.989C1430.51 664.45 1411.28 645.007 1403.15 617.232C1400.3 607.51 1398.46 597.32 1397.59 587.223C1396.79 577.839 1401.03 574.33 1410.51 574.124C1413.94 574.048 1417.39 574.105 1420.83 574.105"
      stroke="#F9FAFC" stroke-width="6" stroke-miterlimit="10" stroke-linecap="round" stroke-linejoin="round" />
    <path
      d="M840.005 718.593C844.697 721.089 850.327 722.684 853.874 726.307C860.593 733.138 856.107 745.524 846.536 746.538C837.622 747.476 828.351 747.757 820.262 742.09C811.441 735.915 811.01 728.69 820.412 723.548C825.892 720.564 832.78 720.17 839.029 718.593"
      stroke="#F9FAFC" stroke-width="6" stroke-miterlimit="10" stroke-linecap="round" stroke-linejoin="round" />
    <path
      d="M1568.17 -88.3934C1591.63 -83.8893 1607.58 -67.7308 1621.22 -50.5213C1635.37 -32.6738 1647.01 -12.5929 1657.97 7.46917C1667.62 25.1103 1666.77 43.3707 1653.56 59.867C1634.98 83.0632 1617.15 106.991 1593.49 125.533C1578.1 137.582 1559.8 142.292 1540.94 144.056C1529.19 145.164 1517.03 144.826 1505.34 143.156C1476.38 139.046 1455.85 122.399 1441.47 97.42C1432.09 81.1114 1426.65 63.6579 1425.54 44.8533C1424.41 25.4856 1431.32 8.6327 1443.5 -5.70539C1466.28 -32.5612 1491.07 -57.3713 1521.23 -76.2323C1535.38 -85.0904 1550.47 -89.7446 1567.25 -88.3934"
      stroke="#F9FAFC" stroke-width="6" stroke-miterlimit="10" stroke-linecap="round" stroke-linejoin="round" />
  </g>
  <rect x="-0.000976562" width="1440" height="770" fill="url(#paint0_linear_1271_775)" />
  <defs>
    <linearGradient id="paint0_linear_1271_775" x1="719.999" y1="0" x2="719.999" y2="770"
      gradientUnits="userSpaceOnUse">
      <stop offset="0.453125" stop-color="white" stop-opacity="0" />
      <stop offset="1" stop-color="white" />
    </linearGradient>
  </defs>
</svg>