<svg width="767" height="592" viewBox="0 0 767 592" fill="none" xmlns="http://www.w3.org/2000/svg">
  <path d="M120 299L294.5 292.5L394.5 259L473 196L652.5 184.5" stroke="#DAE0FD" stroke-width="3"
    stroke-linecap="round" />
  <path d="M118.5 299L150 337L372 379.5L454.5 422L543 431L652.5 414.5" stroke="#D6F6D6" stroke-width="3"
    stroke-linecap="round" />
  <path d="M119 299L349 294L449.5 301.5L652.5 301" stroke="#9FAAC4" stroke-width="3" stroke-linecap="round" />
  <path d="M119 299L320 300L473.5 293.5H652.5" stroke="#FFCECE" stroke-width="3" stroke-linecap="round" />
  <path d="M119 299L652.5 307.5" stroke="#A9BAFF" stroke-width="3" stroke-linecap="round" />
  <path d="M119 299L341 307.5L407.5 333L492.5 363L572.5 354.5L652.5 364" stroke="#FFADAD" stroke-width="3"
    stroke-linecap="round" />
  <path d="M118.5 299L218 288L265 209L333 136.5L490 126L647 136.5" stroke="#FFD49C" stroke-width="3"
    stroke-linecap="round" />
</svg>