<svg width="773" height="592" viewBox="0 0 773 592" fill="none" xmlns="http://www.w3.org/2000/svg">
  <path d="M120 116C120 111.582 123.582 108 128 108H668C672.418 108 676 111.582 676 116V273H120V116Z" fill="#D6F6D6"
    fill-opacity="0.2" />
  <path d="M120 436C120 440.418 123.582 444 128 444H668C672.418 444 676 440.418 676 436V273H120V436Z" fill="#FFF2F2"
    fill-opacity="0.6" />
  <path
    d="M155.115 321.442C155.115 331.139 147.254 339 137.557 339C127.86 339 119.999 331.139 119.999 321.442V273H155.115V321.442Z"
    fill="#FFE6E6" />
  <path
    d="M239.979 349C239.979 353.418 236.397 357 231.979 357H214.326C209.908 357 206.326 353.418 206.326 349V273H239.979V349Z"
    fill="#FFE6E6" />
  <path
    d="M283.874 404C283.874 408.418 280.292 412 275.874 412H258.221C253.803 412 250.221 408.418 250.221 404V273H283.874V404Z"
    fill="#FFE6E6" />
  <path
    d="M292.757 218C292.757 213.582 296.339 210 300.757 210L319.507 210C323.925 210 327.507 213.582 327.507 218L327.507 274L292.757 274L292.757 218Z"
    fill="#D6F6D6" />
  <path
    d="M163.686 250C163.686 245.582 167.267 242 171.686 242L190.436 242C194.854 242 198.436 245.582 198.436 250L198.436 274L163.686 274L163.686 250Z"
    fill="#D6F6D6" />
  <path
    d="M468.493 254C468.493 249.582 472.075 246 476.493 246L494.25 246C498.669 246 502.25 249.582 502.25 254L502.25 274L468.493 274L468.493 254Z"
    fill="#D6F6D6" />
  <path
    d="M598.558 228C598.558 223.582 602.139 220 606.558 220L624.315 220C628.733 220 632.315 223.582 632.315 228L632.315 274L598.558 274L598.558 228Z"
    fill="#D6F6D6" />
  <path
    d="M371.663 397C371.663 401.418 368.081 405 363.663 405H344.547C340.129 405 336.547 401.418 336.547 397V273H371.663V397Z"
    fill="#FFE6E6" />
  <path
    d="M415.559 321C415.559 325.418 411.977 329 407.559 329H388.443C384.025 329 380.443 325.418 380.443 321V273H415.559V321Z"
    fill="#FFE6E6" />
  <path
    d="M459.452 380C459.452 384.418 455.87 388 451.452 388H432.336C427.918 388 424.336 384.418 424.336 380V273H459.452V380Z"
    fill="#FFE6E6" />
  <path
    d="M545.778 397C545.778 401.418 542.197 405 537.778 405H518.663C514.244 405 510.663 401.418 510.663 397V273H545.778V397Z"
    fill="#FFE6E6" />
  <path
    d="M588.21 413C588.21 417.418 584.628 421 580.21 421H562.557C558.139 421 554.557 417.418 554.557 413V273H588.21V413Z"
    fill="#FFE6E6" />
  <path d="M676 342C676 346.418 672.418 350 668 350H648.884C644.466 350 640.884 346.418 640.884 342V273H676V342Z"
    fill="#FFE6E6" />
  <g opacity="0.15" filter="url(#filter2_f_1271_2260)">
    <rect x="543" y="143" width="100" height="51" rx="8" fill="#7A859E" />
  </g>
  <g filter="url(#filter3_d_1271_2260)">
    <rect x="525" y="122" width="208" height="60" rx="8" fill="white" />
    <rect x="525.5" y="122.5" width="207" height="59" rx="7.5" stroke="#F1F3F9" />
  </g>
  <path
    d="M576.918 152.006C576.918 148.46 579.312 145.796 582.876 145.796C586.422 145.796 588.834 148.46 588.834 152.006C588.834 155.552 586.422 158.216 582.876 158.216C579.312 158.216 576.918 155.552 576.918 152.006ZM587.286 152.006C587.286 149.198 585.558 147.128 582.876 147.128C580.176 147.128 578.466 149.198 578.466 152.006C578.466 154.796 580.176 156.884 582.876 156.884C585.558 156.884 587.286 154.796 587.286 152.006ZM592.464 156.686V161.312H591.114V149.306H592.464V150.602C593.094 149.72 594.174 149.09 595.398 149.09C597.684 149.09 599.268 150.818 599.268 153.644C599.268 156.452 597.684 158.216 595.398 158.216C594.21 158.216 593.166 157.658 592.464 156.686ZM597.846 153.644C597.846 151.718 596.802 150.296 595.056 150.296C593.994 150.296 592.932 150.926 592.464 151.682V155.606C592.932 156.362 593.994 157.01 595.056 157.01C596.802 157.01 597.846 155.57 597.846 153.644ZM602.8 156.686V161.312H601.45V149.306H602.8V150.602C603.43 149.72 604.51 149.09 605.734 149.09C608.02 149.09 609.604 150.818 609.604 153.644C609.604 156.452 608.02 158.216 605.734 158.216C604.546 158.216 603.502 157.658 602.8 156.686ZM608.182 153.644C608.182 151.718 607.138 150.296 605.392 150.296C604.33 150.296 603.268 150.926 602.8 151.682V155.606C603.268 156.362 604.33 157.01 605.392 157.01C607.138 157.01 608.182 155.57 608.182 153.644ZM615.584 158.216C612.938 158.216 611.282 156.164 611.282 153.644C611.282 151.124 612.938 149.09 615.584 149.09C618.23 149.09 619.886 151.124 619.886 153.644C619.886 156.164 618.23 158.216 615.584 158.216ZM615.584 157.01C617.438 157.01 618.464 155.426 618.464 153.644C618.464 151.88 617.438 150.296 615.584 150.296C613.73 150.296 612.686 151.88 612.686 153.644C612.686 155.426 613.73 157.01 615.584 157.01ZM623.436 158H622.086V149.306H623.436V150.71C624.138 149.792 625.146 149.126 626.334 149.126V150.512C626.172 150.476 626.01 150.458 625.794 150.458C624.966 150.458 623.832 151.142 623.436 151.844V158ZM630.224 158.216C628.946 158.216 628.298 157.478 628.298 156.182V150.494H626.858V149.306H628.298V146.93H629.648V149.306H631.412V150.494H629.648V155.894C629.648 156.542 629.936 157.01 630.53 157.01C630.908 157.01 631.268 156.848 631.448 156.65L631.844 157.658C631.502 157.982 631.016 158.216 630.224 158.216ZM640.537 158H639.187V156.776C638.521 157.532 637.387 158.216 636.091 158.216C634.273 158.216 633.319 157.334 633.319 155.444V149.306H634.669V155.03C634.669 156.56 635.443 157.01 636.613 157.01C637.675 157.01 638.683 156.398 639.187 155.696V149.306H640.537V158ZM650.451 158H649.101V152.312C649.101 150.782 648.327 150.296 647.157 150.296C646.095 150.296 645.087 150.944 644.583 151.646V158H643.233V149.306H644.583V150.566C645.195 149.846 646.383 149.09 647.679 149.09C649.497 149.09 650.451 150.008 650.451 151.898V158ZM653.813 147.848C653.327 147.848 652.913 147.434 652.913 146.93C652.913 146.426 653.327 146.03 653.813 146.03C654.317 146.03 654.731 146.426 654.731 146.93C654.731 147.434 654.317 147.848 653.813 147.848ZM654.497 158H653.147V149.306H654.497V158ZM659.386 158.216C658.108 158.216 657.46 157.478 657.46 156.182V150.494H656.02V149.306H657.46V146.93H658.81V149.306H660.574V150.494H658.81V155.894C658.81 156.542 659.098 157.01 659.692 157.01C660.07 157.01 660.43 156.848 660.61 156.65L661.006 157.658C660.664 157.982 660.178 158.216 659.386 158.216ZM661.995 161.402L662.211 160.178C662.409 160.268 662.733 160.322 662.949 160.322C663.543 160.322 663.939 160.124 664.245 159.404L664.821 158.09L661.185 149.306H662.643L665.541 156.434L668.421 149.306H669.897L665.541 159.764C665.019 161.024 664.137 161.51 662.985 161.528C662.697 161.528 662.247 161.474 661.995 161.402ZM682.156 158H675.532V156.956L680.32 150.494H675.532V149.306H682.084V150.332L677.26 156.83H682.156V158ZM688.234 158.216C685.588 158.216 683.932 156.164 683.932 153.644C683.932 151.124 685.588 149.09 688.234 149.09C690.88 149.09 692.536 151.124 692.536 153.644C692.536 156.164 690.88 158.216 688.234 158.216ZM688.234 157.01C690.088 157.01 691.114 155.426 691.114 153.644C691.114 151.88 690.088 150.296 688.234 150.296C686.38 150.296 685.336 151.88 685.336 153.644C685.336 155.426 686.38 157.01 688.234 157.01ZM701.955 158H700.605V152.312C700.605 150.782 699.831 150.296 698.661 150.296C697.599 150.296 696.591 150.944 696.087 151.646V158H694.737V149.306H696.087V150.566C696.699 149.846 697.887 149.09 699.183 149.09C701.001 149.09 701.955 150.008 701.955 151.898V158ZM704.147 153.644C704.147 151.124 705.947 149.09 708.431 149.09C711.059 149.09 712.607 151.142 712.607 153.752V154.094H705.569C705.677 155.732 706.829 157.1 708.701 157.1C709.691 157.1 710.699 156.704 711.383 156.002L712.031 156.884C711.167 157.748 709.997 158.216 708.575 158.216C706.001 158.216 704.147 156.362 704.147 153.644ZM708.413 150.206C706.559 150.206 705.641 151.772 705.569 153.104H711.275C711.257 151.808 710.393 150.206 708.413 150.206Z"
    fill="#181B2B" />
  <circle cx="555" cy="152" r="10" fill="#14C393" />
  <g opacity="0.15" filter="url(#filter4_f_1271_2260)">
    <rect x="60" y="340" width="100" height="51" rx="8" fill="#7A859E" />
  </g>
  <g filter="url(#filter5_d_1271_2260)">
    <rect x="40" y="319" width="170" height="60" rx="8" fill="white" />
    <rect x="40.5" y="319.5" width="169" height="59" rx="7.5" stroke="#F1F3F9" />
  </g>
  <path
    d="M93.508 355H89.404V342.994H93.508C97.234 342.994 99.664 345.604 99.664 349.006C99.664 352.426 97.234 355 93.508 355ZM90.898 344.326V353.668H93.508C96.424 353.668 98.116 351.58 98.116 349.006C98.116 346.414 96.478 344.326 93.508 344.326H90.898ZM108.74 355H107.39V354.01C106.67 354.802 105.68 355.216 104.51 355.216C103.034 355.216 101.468 354.226 101.468 352.336C101.468 350.392 103.034 349.474 104.51 349.474C105.698 349.474 106.688 349.852 107.39 350.662V349.096C107.39 347.926 106.454 347.26 105.194 347.26C104.15 347.26 103.304 347.638 102.53 348.466L101.9 347.53C102.836 346.558 103.952 346.09 105.374 346.09C107.21 346.09 108.74 346.918 108.74 349.024V355ZM107.39 353.164V351.526C106.868 350.806 105.95 350.446 104.996 350.446C103.736 350.446 102.854 351.238 102.854 352.354C102.854 353.452 103.736 354.244 104.996 354.244C105.95 354.244 106.868 353.884 107.39 353.164ZM118.664 355H117.314V349.312C117.314 347.782 116.54 347.296 115.37 347.296C114.308 347.296 113.3 347.944 112.796 348.646V355H111.446V346.306H112.796V347.566C113.408 346.846 114.596 346.09 115.892 346.09C117.71 346.09 118.664 347.008 118.664 348.898V355ZM121.342 357.232L122.026 356.224C122.746 357.088 123.61 357.412 124.852 357.412C126.292 357.412 127.642 356.71 127.642 354.802V353.56C127.012 354.442 125.95 355.108 124.726 355.108C122.458 355.108 120.856 353.416 120.856 350.608C120.856 347.818 122.44 346.09 124.726 346.09C125.896 346.09 126.94 346.666 127.642 347.62V346.306H128.992V354.748C128.992 357.628 126.976 358.528 124.852 358.528C123.376 358.528 122.368 358.24 121.342 357.232ZM127.642 352.498V348.7C127.174 347.944 126.13 347.296 125.05 347.296C123.304 347.296 122.26 348.682 122.26 350.608C122.26 352.516 123.304 353.92 125.05 353.92C126.13 353.92 127.174 353.254 127.642 352.498ZM131.192 350.644C131.192 348.124 132.992 346.09 135.476 346.09C138.104 346.09 139.652 348.142 139.652 350.752V351.094H132.614C132.722 352.732 133.874 354.1 135.746 354.1C136.736 354.1 137.744 353.704 138.428 353.002L139.076 353.884C138.212 354.748 137.042 355.216 135.62 355.216C133.046 355.216 131.192 353.362 131.192 350.644ZM135.458 347.206C133.604 347.206 132.686 348.772 132.614 350.104H138.32C138.302 348.808 137.438 347.206 135.458 347.206ZM143.188 355H141.838V346.306H143.188V347.71C143.89 346.792 144.898 346.126 146.086 346.126V347.512C145.924 347.476 145.762 347.458 145.546 347.458C144.718 347.458 143.584 348.142 143.188 348.844V355ZM158.63 355H152.006V353.956L156.794 347.494H152.006V346.306H158.558V347.332L153.734 353.83H158.63V355ZM164.709 355.216C162.063 355.216 160.407 353.164 160.407 350.644C160.407 348.124 162.063 346.09 164.709 346.09C167.355 346.09 169.011 348.124 169.011 350.644C169.011 353.164 167.355 355.216 164.709 355.216ZM164.709 354.01C166.563 354.01 167.589 352.426 167.589 350.644C167.589 348.88 166.563 347.296 164.709 347.296C162.855 347.296 161.811 348.88 161.811 350.644C161.811 352.426 162.855 354.01 164.709 354.01ZM178.429 355H177.079V349.312C177.079 347.782 176.305 347.296 175.135 347.296C174.073 347.296 173.065 347.944 172.561 348.646V355H171.211V346.306H172.561V347.566C173.173 346.846 174.361 346.09 175.657 346.09C177.475 346.09 178.429 347.008 178.429 348.898V355ZM180.621 350.644C180.621 348.124 182.421 346.09 184.905 346.09C187.533 346.09 189.081 348.142 189.081 350.752V351.094H182.043C182.151 352.732 183.303 354.1 185.175 354.1C186.165 354.1 187.173 353.704 187.857 353.002L188.505 353.884C187.641 354.748 186.471 355.216 185.049 355.216C182.475 355.216 180.621 353.362 180.621 350.644ZM184.887 347.206C183.033 347.206 182.115 348.772 182.043 350.104H187.749C187.731 348.808 186.867 347.206 184.887 347.206Z"
    fill="#181B2B" />
  <circle cx="66" cy="349" r="10" fill="#F85454" />
  <defs>
    <filter id="filter0_f_1271_2260" x="29" y="45" width="742" height="547" filterUnits="userSpaceOnUse"
      color-interpolation-filters="sRGB">
      <feFlood flood-opacity="0" result="BackgroundImageFix" />
      <feBlend mode="normal" in="SourceGraphic" in2="BackgroundImageFix" result="shape" />
      <feGaussianBlur stdDeviation="45" result="effect1_foregroundBlur_1271_2260" />
    </filter>
    <filter id="filter1_dd_1271_2260" x="42" y="0" width="716" height="576" filterUnits="userSpaceOnUse"
      color-interpolation-filters="sRGB">
      <feFlood flood-opacity="0" result="BackgroundImageFix" />
      <feColorMatrix in="SourceAlpha" type="matrix" values="0 0 0 0 0 0 0 0 0 0 0 0 0 0 0 0 0 0 127 0"
        result="hardAlpha" />
      <feOffset dy="4" />
      <feGaussianBlur stdDeviation="25" />
      <feColorMatrix type="matrix" values="0 0 0 0 0.476616 0 0 0 0 0.521707 0 0 0 0 0.620087 0 0 0 0.04 0" />
      <feBlend mode="normal" in2="BackgroundImageFix" result="effect1_dropShadow_1271_2260" />
      <feColorMatrix in="SourceAlpha" type="matrix" values="0 0 0 0 0 0 0 0 0 0 0 0 0 0 0 0 0 0 127 0"
        result="hardAlpha" />
      <feOffset dy="60" />
      <feGaussianBlur stdDeviation="20" />
      <feColorMatrix type="matrix" values="0 0 0 0 0.476616 0 0 0 0 0.521707 0 0 0 0 0.620087 0 0 0 0.02 0" />
      <feBlend mode="normal" in2="effect1_dropShadow_1271_2260" result="effect2_dropShadow_1271_2260" />
      <feBlend mode="normal" in="SourceGraphic" in2="effect2_dropShadow_1271_2260" result="shape" />
    </filter>
    <filter id="filter2_f_1271_2260" x="483" y="83" width="220" height="171" filterUnits="userSpaceOnUse"
      color-interpolation-filters="sRGB">
      <feFlood flood-opacity="0" result="BackgroundImageFix" />
      <feBlend mode="normal" in="SourceGraphic" in2="BackgroundImageFix" result="shape" />
      <feGaussianBlur stdDeviation="30" result="effect1_foregroundBlur_1271_2260" />
    </filter>
    <filter id="filter3_d_1271_2260" x="485" y="92" width="288" height="140" filterUnits="userSpaceOnUse"
      color-interpolation-filters="sRGB">
      <feFlood flood-opacity="0" result="BackgroundImageFix" />
      <feColorMatrix in="SourceAlpha" type="matrix" values="0 0 0 0 0 0 0 0 0 0 0 0 0 0 0 0 0 0 127 0"
        result="hardAlpha" />
      <feOffset dy="10" />
      <feGaussianBlur stdDeviation="20" />
      <feColorMatrix type="matrix" values="0 0 0 0 0.476616 0 0 0 0 0.521707 0 0 0 0 0.620087 0 0 0 0.06 0" />
      <feBlend mode="normal" in2="BackgroundImageFix" result="effect1_dropShadow_1271_2260" />
      <feBlend mode="normal" in="SourceGraphic" in2="effect1_dropShadow_1271_2260" result="shape" />
    </filter>
    <filter id="filter4_f_1271_2260" x="0" y="280" width="220" height="171" filterUnits="userSpaceOnUse"
      color-interpolation-filters="sRGB">
      <feFlood flood-opacity="0" result="BackgroundImageFix" />
      <feBlend mode="normal" in="SourceGraphic" in2="BackgroundImageFix" result="shape" />
      <feGaussianBlur stdDeviation="30" result="effect1_foregroundBlur_1271_2260" />
    </filter>
    <filter id="filter5_d_1271_2260" x="0" y="289" width="250" height="140" filterUnits="userSpaceOnUse"
      color-interpolation-filters="sRGB">
      <feFlood flood-opacity="0" result="BackgroundImageFix" />
      <feColorMatrix in="SourceAlpha" type="matrix" values="0 0 0 0 0 0 0 0 0 0 0 0 0 0 0 0 0 0 127 0"
        result="hardAlpha" />
      <feOffset dy="10" />
      <feGaussianBlur stdDeviation="20" />
      <feColorMatrix type="matrix" values="0 0 0 0 0.476616 0 0 0 0 0.521707 0 0 0 0 0.620087 0 0 0 0.06 0" />
      <feBlend mode="normal" in2="BackgroundImageFix" result="effect1_dropShadow_1271_2260" />
      <feBlend mode="normal" in="SourceGraphic" in2="effect1_dropShadow_1271_2260" result="shape" />
    </filter>
  </defs>
</svg>