<svg width="773" height="592" viewBox="0 0 773 592" fill="none" xmlns="http://www.w3.org/2000/svg">
  <path d="M120 116C120 111.582 123.582 108 128 108H668C672.418 108 676 111.582 676 116V273H120V116Z" fill="#D6F6D6"
    fill-opacity="0.2" />
  <path d="M120 436C120 440.418 123.582 444 128 444H668C672.418 444 676 440.418 676 436V273H120V436Z" fill="#FFF2F2"
    fill-opacity="0.6" />
  <path
    d="M155.115 321.442C155.115 331.139 147.254 339 137.557 339C127.86 339 119.999 331.139 119.999 321.442V273H155.115V321.442Z"
    fill="#FFE6E6" />
  <path
    d="M239.979 349C239.979 353.418 236.397 357 231.979 357H214.326C209.908 357 206.326 353.418 206.326 349V273H239.979V349Z"
    fill="#FFE6E6" />
  <path
    d="M283.874 404C283.874 408.418 280.292 412 275.874 412H258.221C253.803 412 250.221 408.418 250.221 404V273H283.874V404Z"
    fill="#FFE6E6" />
  <path
    d="M292.757 218C292.757 213.582 296.339 210 300.757 210L319.507 210C323.925 210 327.507 213.582 327.507 218L327.507 274L292.757 274L292.757 218Z"
    fill="#D6F6D6" />
  <path
    d="M163.686 250C163.686 245.582 167.267 242 171.686 242L190.436 242C194.854 242 198.436 245.582 198.436 250L198.436 274L163.686 274L163.686 250Z"
    fill="#D6F6D6" />
  <path
    d="M468.493 254C468.493 249.582 472.075 246 476.493 246L494.25 246C498.669 246 502.25 249.582 502.25 254L502.25 274L468.493 274L468.493 254Z"
    fill="#D6F6D6" />
  <path
    d="M598.558 228C598.558 223.582 602.139 220 606.558 220L624.315 220C628.733 220 632.315 223.582 632.315 228L632.315 274L598.558 274L598.558 228Z"
    fill="#D6F6D6" />
  <path
    d="M371.663 397C371.663 401.418 368.081 405 363.663 405H344.547C340.129 405 336.547 401.418 336.547 397V273H371.663V397Z"
    fill="#FFE6E6" />
  <path
    d="M415.559 321C415.559 325.418 411.977 329 407.559 329H388.443C384.025 329 380.443 325.418 380.443 321V273H415.559V321Z"
    fill="#FFE6E6" />
  <path
    d="M459.452 380C459.452 384.418 455.87 388 451.452 388H432.336C427.918 388 424.336 384.418 424.336 380V273H459.452V380Z"
    fill="#FFE6E6" />
  <path
    d="M545.778 397C545.778 401.418 542.197 405 537.778 405H518.663C514.244 405 510.663 401.418 510.663 397V273H545.778V397Z"
    fill="#FFE6E6" />
  <path
    d="M588.21 413C588.21 417.418 584.628 421 580.21 421H562.557C558.139 421 554.557 417.418 554.557 413V273H588.21V413Z"
    fill="#FFE6E6" />
  <path d="M676 342C676 346.418 672.418 350 668 350H648.884C644.466 350 640.884 346.418 640.884 342V273H676V342Z"
    fill="#FFE6E6" />
</svg>