<svg xmlns="http://www.w3.org/2000/svg" width="16" height="16" fill="none">
  <path fill="#181B2B" d="M13.5 5.5c-.31 0-.62.06-.9.18L10.31 3.4A2.47 2.47 0 0 0 9.77.73a2.5 2.5 0 0 0-4.1 2.68L3.42 5.68a2.47 2.47 0 0 0-2.68.55 2.5 2.5 0 0 0 2.68 4.1l2.27 2.26a2.47 2.47 0 0 0 .55 2.68 2.5 2.5 0 0 0 4.1-2.68l2.26-2.27a2.47 2.47 0 0 0 2.68-.55A2.5 2.5 0 0 0 13.5 5.5zM8 11c-.31 0-.62.06-.9.18L4.81 8.9c.24-.58.24-1.24 0-1.82L7.1 4.82c.58.24 1.24.24 1.82 0l2.27 2.27a2.42 2.42 0 0 0 0 1.82L8.9 11.18C8.62 11.06 8.3 11 8 11z"/>
</svg>
