<svg width="26" height="27" viewBox="0 0 26 27" fill="none" xmlns="http://www.w3.org/2000/svg">
<path d="M2.03516 26.2461C1.27344 26.2461 0.642904 26.1488 0.143555 25.9541V23.542C0.685221 23.7113 1.16764 23.7959 1.59082 23.7959C2.72494 23.7959 3.47396 22.9284 3.83789 21.1934L6.59277 8.21875H4.32031L4.58691 6.87305L7.0498 5.9082L7.31641 4.74023C7.6888 3.06445 8.25586 1.87533 9.01758 1.17285C9.78776 0.461914 10.8753 0.106445 12.2803 0.106445C13.2536 0.106445 14.1465 0.288411 14.959 0.652344L14.1846 2.88672C13.5583 2.64974 12.9827 2.53125 12.458 2.53125C11.874 2.53125 11.4043 2.71322 11.0488 3.07715C10.7018 3.44108 10.4352 4.03776 10.249 4.86719L10.0205 5.95898H12.9277L12.458 8.21875H9.55078L6.71973 21.5869C6.38119 23.1865 5.82682 24.363 5.05664 25.1162C4.28646 25.8695 3.2793 26.2461 2.03516 26.2461Z" fill="#D2D6E7"/>
<path d="M18.1201 15.0869L14.248 20H10.8203L16.8506 12.7764L13.918 5.95898H17.0283L18.8564 10.6943L22.5 5.95898H25.9785L20.126 12.9287L23.2744 20H20.1514L18.1201 15.0869Z" fill="#D2D6E7"/>
</svg>
