<svg xmlns="http://www.w3.org/2000/svg" width="38" height="48" fill="none">
  <path fill="#D2D6E7" d="M0 2C0 .9.9 0 2 0h23l4.2 8.4c.2.4.5.7 1 .9L38 13v33a2 2 0 0 1-2 2H2a2 2 0 0 1-2-2V2z"/>
  <path fill="#fff" fill-rule="evenodd" d="M29 40H9V23h20v17zm-9-15h7v3h-7v-3zm0 5h7v3h-7v-3zm-2 3v-3h-7v3h7zm-7 2v3h7v-3h-7zm9 0h7v3h-7v-3zm-2-10v3h-7v-3h7z" clip-rule="evenodd"/>
  <path fill="url(#paint0_linear)" d="M38 13l-12.5-.6 12.5 13V13z"/>
  <path fill="#E7EAF3" d="M25 0l13 13H27a2 2 0 0 1-2-2V0z"/>
  <defs>
    <linearGradient id="paint0_linear" x1="31.5" x2="31.5" y1="13.3" y2="25.4" gradientUnits="userSpaceOnUse">
      <stop stop-color="#9FAAC4"/>
      <stop offset="1" stop-color="#9FAAC4" stop-opacity="0"/>
    </linearGradient>
  </defs>
</svg>
