<svg width="556" height="239" viewBox="0 0 556 239" fill="none" xmlns="http://www.w3.org/2000/svg">
  <path d="M0 215C0 210.582 3.58172 207 8 207H18C22.4183 207 26 210.582 26 215V239H0V215Z" fill="#ECF0FE" />
  <path d="M53 7.99999C53 3.58172 56.5817 0 61 0H71C75.4183 0 79 3.58172 79 8V239H53V7.99999Z" fill="#ECF0FE" />
  <path d="M106 206C106 201.582 109.582 198 114 198H124C128.418 198 132 201.582 132 206V239H106V206Z" fill="#ECF0FE" />
  <path d="M159 222C159 217.582 162.582 214 167 214H177C181.418 214 185 217.582 185 222V239H159V222Z" fill="#ECF0FE" />
  <path d="M212 222C212 217.582 215.582 214 220 214H230C234.418 214 238 217.582 238 222V239H212V222Z" fill="#ECF0FE" />
  <path d="M265 218C265 213.582 268.582 210 273 210H283C287.418 210 291 213.582 291 218V239H265V218Z" fill="#ECF0FE" />
  <path d="M318 51C318 46.5817 321.582 43 326 43H336C340.418 43 344 46.5817 344 51V239H318V51Z" fill="#ECF0FE" />
  <path d="M371 234C371 229.582 374.582 226 379 226H389C393.418 226 397 229.582 397 234V239H371V234Z" fill="#ECF0FE" />
  <path d="M424 222C424 217.582 427.582 214 432 214H442C446.418 214 450 217.582 450 222V239H424V222Z" fill="#ECF0FE" />
  <path d="M477 106C477 101.582 480.582 98 485 98H495C499.418 98 503 101.582 503 106V239H477V106Z" fill="#ECF0FE" />
  <path d="M530 222C530 217.582 533.582 214 538 214H548C552.418 214 556 217.582 556 222V239H530V222Z" fill="#ECF0FE" />
</svg>