<svg xmlns="http://www.w3.org/2000/svg" width="67" height="66" fill="none">
  <path fill="#8affce" d="M16 18c-2.91-3.64 1.22-8.1 5.3-8.93 4.1-.82 4.3 6.04 2.7 8.43-2.49 3.7-6 3-8 .5z"/>
  <path fill="#E7EAF3" d="M1.5 45.5C-.5 37 4.5 38 6 41c7.4 14.8 20.82 15.05 33.5 12 12-2.89 18.88-14.98 16.51-24.48-1-4-.5-12 3-11.5s8 9 7 18.5-2.5 15-7.5 20.5c-4.06 4.47-19.27 9-26 9-19 0-28.29-7.94-31.01-19.52z"/>
  <path stroke="#181B2B" stroke-linecap="round" stroke-width="2" d="M35.49 1.03a35.45 35.45 0 0 0-26.8 10.7c-7.04 7.32-9.35 17.92-6.5 27.73 2.85 9.87 10.85 18.37 21.15 19.9 5.08.74 10.66 1.44 15.47-.53 8.57-3.48 19.24-8 23.4-16.7 3.9-8.17.67-17.67-2.34-26.02-2.55-7.1-11.15-12.26-18.12-14.04-1.45-.37-4.25-1.04-6.26-1.04z"/>
  <path stroke="#181B2B" stroke-linecap="round" stroke-width="2" d="M21.31 10.16c-1.17-1.14-2.76-.47-3.77.34a8.93 8.93 0 0 0-1.81 2c-1.04 1.56-1.04 3.7.49 4.9.88.71 2.08.88 3.14.55a4.76 4.76 0 0 0 2.55-2.14c.57-.96.88-2.1.87-3.24-.01-1.14-.78-1.89-1.47-2.4z"/>
  <path fill="#E7EAF3" d="M38.27 31.75c2.91-3.65.73-8-1.77-4.25s-7.83 1.36-6.23 3.75c2.49 3.7 6 3 8 .5zM55.3 43.69c2.9-3.65.73-8-1.77-4.25s-7.84 1.36-6.24 3.75c2.5 3.7 6 3 8 .5zM54 19c3.22-3.93-.81-9.9-2.47-5.04-1.66 4.85-5.53.13-5.53 3.23 0 3.24 5.79 4.5 8 1.81zM17 41.5c2.91-3.64-1.5-9.19-3-4.69-1.5 4.5-5 .13-5 3 0 3 6 4.19 8 1.69zM36.04 55.32c4.16-3.36 1.32-11.52-1.54-6.82-2.86 4.7-6.7-.75-7.5 2.5-.83 3.4 6.18 6.62 9.04 4.32z"/>
  <path stroke="#181B2B" stroke-linecap="round" stroke-width="2" d="M30.63 26.75c.23 1.1.3 3.3 2.15 4.17.93.44 2.05.62 2.92.08 1-.64 1.4-1.92 1.61-3.1a8.54 8.54 0 0 0 0-4.03c-.51-1.7-2.16-3.17-3.96-2.47a5 5 0 0 0-2.72 5.35zM52.64 16.2c1-1.86.2-3.68-.6-4.29-2.37-1.8-6.01-.43-5.93 2.79a3.53 3.53 0 0 0 2.97 3.38c1.39.2 2.99-.54 3.56-1.88zM53.13 42.87c.67-.55 1.18-.9 1.41-1.8.2-.75.17-1.58-.09-2.3a4.25 4.25 0 0 0-2.7-2.55c-.97-.32-2.65-.39-3.42.45-1.4 1.52-2.02 4.34-.74 6.13.85 1.18 3.94 1.4 5.54.07zM32.58 44.84a4.5 4.5 0 0 0-4.9 1.17c-2.86 3.3.83 7.65 4.73 7.04a5.38 5.38 0 0 0 3.92-2.8c.43-.84.61-1.84.28-2.72-.5-1.34-2.82-2.27-4.03-2.69zM12.67 34.46c-1.72-.16-2.75.78-3.03 2.08-.27 1.3.1 2.75.95 3.7.76.85 2.25 1.56 3.3 1a3.8 3.8 0 0 0 1.89-3.28c-.02-1.43-1.44-3.51-3.11-3.5z"/>
</svg>
